<svg xmlns="http://www.w3.org/2000/svg" width="154" height="84" viewBox="0 0 154 84">
  <g fill="none" fill-rule="evenodd" transform="translate(0 1)">
    <path fill="#FFF" stroke="#D6D6D6" d="M153.5,70.1 C153.5,76.7 148.1,82.1 141.5,82.1 L12.5,82.1 C5.9,82.1 0.5,76.7 0.5,70.1 L0.5,12.1 C0.5,5.5 5.9,0.1 12.5,0.1 L141.5,0.1 C148.1,0.1 153.5,5.5 153.5,12.1 L153.5,70.1 Z"/>
    <path fill="#006CD3" fill-rule="nonzero" d="M57.42,11.07 L63.48,17.57 L63.48,4.34 L57.42,11.07 Z M38.15,15.94 L38.15,15.94 L38.15,15.94 L48.03,15.93 L52.34,11.13 L47.84,6.28 L38.15,6.28 L38.15,9.56 L46.8,9.56 L46.8,12.93 L38.15,12.93 L38.15,15.94 L38.15,15.94 Z M145.38,13.46 C146.73,12.07 147.35,10.35 147.35,8.05 C147.35,3.08 144.02,0.12 138.43,0.12 L130.75,0.12 C129.62,0.12 128.66,0.81 128.25,1.78 C126.76,0.72 124.77,0.12 122.32,0.12 L114.64,0.12 C114.2,0.12 113.82,0.24 113.46,0.42 C113.1,0.24 112.7,0.12 112.28,0.12 L99.12,0.12 C98.68,0.12 98.29,0.25 97.92,0.43 C97.56,0.24 97.16,0.12 96.71,0.12 L92.75,0.12 C91.25,0.12 90.02,1.34 90.02,2.84 L90.02,5.24 C90.03,5.47 90.03,5.83 90.01,6.12 C89.83,6.13 89.57,6.14 89.21,6.14 L87.72,6.14 L87.72,2.83 C87.72,1.33 86.5,0.11 84.99,0.11 L81.03,0.11 C79.52,0.11 78.3,1.33 78.3,2.83 L78.3,7.03 C76.9,6.2 74.97,5.65 72.3,5.65 L70.11,5.65 L70.11,2.83 C70.11,1.33 68.89,0.11 67.38,0.11 L59.72,0.11 C58.94,0.11 58.2,0.44 57.68,1.02 L54.82,4.23 L51.81,0.97 C51.29,0.41 50.57,0.09 49.81,0.09 L34.19,0.09 C32.69,0.09 31.47,1.31 31.47,2.82 L31.47,19.32 C31.47,20.83 32.69,22.05 34.19,22.05 L50.05,22.05 C50.83,22.05 51.56,21.73 52.08,21.14 L54.95,17.96 L57.94,21.2 C58.46,21.76 59.18,22.07 59.94,22.07 L72.54,22.07 C75.3,22.07 77.24,21.46 78.62,20.56 C79.07,21.45 79.97,22.07 81.03,22.07 L90.14,22.07 C92.23,22.07 94.26,21.99 96.17,20.97 C96.37,20.85 96.51,20.7 96.69,20.57 C97.14,21.45 98.04,22.07 99.1,22.07 L112.26,22.07 C113.28,22.07 114.13,21.49 114.61,20.65 C115.91,21.54 117.63,22.07 119.8,22.07 L127.7,22.07 C128.89,22.07 129.86,21.31 130.24,20.25 C131.59,21.34 133.45,22.07 135.91,22.07 L143.81,22.07 C145.32,22.07 146.54,20.85 146.54,19.34 L146.54,15.83 C146.54,14.87 146.04,14.03 145.3,13.54 C145.33,13.52 145.36,13.49 145.38,13.46 L145.38,13.46 Z M79.19,13.91 C79.19,18.48 75.67,19.35 72.54,19.35 L59.94,19.35 L54.92,13.94 L50.06,19.35 L34.2,19.35 L34.2,2.85 L49.82,2.85 L54.87,8.31 L59.73,2.85 L67.39,2.85 L67.39,8.39 L72.31,8.39 C75.77,8.38 79.19,9.33 79.19,13.91 L79.19,13.91 Z M94.13,10.51 C95.16,10.93 96.92,12.27 96.92,14.91 C96.92,16.79 96.14,17.82 94.89,18.57 C93.59,19.26 92.14,19.34 90.15,19.34 L81.04,19.34 L81.04,2.84 L85,2.84 L85,8.86 L89.21,8.86 C90.66,8.86 91.53,8.72 92.1,8.13 C92.84,7.36 92.74,5.89 92.74,4.9 L92.74,2.83 L96.7,2.83 L96.7,6.1 C96.68,7.55 96.61,8.3 96.05,9.11 C95.72,9.61 95,10.19 94.13,10.51 L94.13,10.51 Z M112.27,19.34 L99.11,19.34 L99.11,2.84 L112.27,2.84 L112.27,6.26 L103.03,6.28 L103.03,9.56 L112.04,9.56 L112.04,12.93 L103.03,12.93 L103.03,15.93 L112.27,15.93 L112.27,19.34 L112.27,19.34 Z M128.5,8.06 C128.5,9.75 128.09,10.76 127.32,11.56 C126.43,12.46 124.96,12.83 122.82,12.89 L120.7,12.95 C120.03,12.95 119.58,12.99 119.16,13.14 C118.67,13.33 118.3,13.75 118.3,14.37 C118.3,14.89 118.46,15.29 118.9,15.56 C119.29,15.83 119.76,15.86 120.48,15.86 L127.71,15.86 L127.71,19.37 L119.81,19.37 C115.67,19.37 114.17,16.86 114.17,14.46 C114.17,9.24 118.79,9.48 122.47,9.36 C123.16,9.36 123.57,9.25 123.88,8.99 C124.16,8.76 124.36,8.38 124.36,7.9 C124.36,7.45 124.17,7.07 123.9,6.82 C123.57,6.5 123.04,6.41 122.29,6.41 L114.64,6.41 L114.64,2.86 L122.32,2.86 C126.29,2.84 128.5,4.5 128.5,8.06 Z M144.62,8.06 C144.62,9.75 144.2,10.76 143.44,11.56 C142.55,12.46 141.08,12.83 138.94,12.89 L136.82,12.95 C136.15,12.95 135.71,12.99 135.28,13.14 C134.79,13.33 134.42,13.75 134.42,14.37 C134.42,14.89 134.58,15.29 135.01,15.56 C135.4,15.83 135.87,15.86 136.59,15.86 L143.82,15.86 L143.82,19.37 L135.92,19.37 C131.78,19.37 130.28,16.86 130.28,14.46 C130.28,9.24 134.9,9.48 138.58,9.36 C139.27,9.36 139.68,9.25 139.99,8.99 C140.27,8.76 140.47,8.38 140.47,7.9 C140.47,7.45 140.28,7.07 140.01,6.82 C139.68,6.5 139.15,6.41 138.41,6.41 L130.76,6.41 L130.76,2.86 L138.44,2.86 C142.4,2.84 144.62,4.5 144.62,8.06 L144.62,8.06 Z M72.55,15.94 C73.98,15.94 74.96,15.36 74.96,13.91 C74.96,12.49 74.02,11.74 72.5,11.74 L67.4,11.74 L67.4,15.94 C67.4,15.94 72.55,15.94 72.55,15.94 Z M74.86,40.98 C74.31,40.65 73.67,40.64 72.91,40.64 L68.12,40.64 L68.12,44.3 L72.98,44.3 C73.66,44.3 74.38,44.27 74.85,44 C75.36,43.76 75.68,43.25 75.68,42.54 C75.68,41.83 75.37,41.25 74.86,40.98 Z M91.75,15.63 C92.26,15.37 92.56,14.86 92.57,14.14 C92.57,13.43 92.27,12.87 91.76,12.55 C91.23,12.24 90.57,12.21 89.8,12.21 L85.01,12.21 L85.01,15.91 L89.87,15.91 C90.56,15.93 91.27,15.92 91.75,15.63 Z M106.31,44.94 L109.05,38.36 L103.6,38.36 L106.31,44.94 Z M10.02,38.37 L12.7,44.95 L15.4,38.37 C15.4,38.37 10.02,38.37 10.02,38.37 Z M32.09,28.52 C31.01,28.52 30.04,29.16 29.6,30.14 L29.08,31.31 L29.08,31.25 C29.08,29.75 27.86,28.53 26.36,28.53 L18.34,28.53 C17.23,28.53 16.24,29.2 15.82,30.22 L15,32.2 L10.43,32.2 L9.6,30.2 C9.18,29.19 8.19,28.52 7.09,28.52 L2.8,28.52 C1.88,28.52 1.03,28.98 0.52,29.74 C0.02,30.51 -0.07,31.47 0.29,32.31 L7.35,48.81 C7.78,49.81 8.76,50.46 9.86,50.46 L15.71,50.46 C16.8,50.46 17.79,49.81 18.22,48.81 L19.7,45.36 L19.7,47.73 C19.7,49.23 20.92,50.45 22.42,50.45 L28.86,50.45 C29.92,50.45 30.89,49.83 31.34,48.87 L33.92,43.27 L36.26,48.79 C36.69,49.8 37.67,50.45 38.76,50.45 L45.33,50.45 C45.88,50.45 46.37,50.24 46.8,49.96 C47.23,50.24 47.71,50.45 48.27,50.45 L61.44,50.45 C61.95,50.45 62.4,50.27 62.81,50.03 C63.22,50.27 63.67,50.45 64.18,50.45 L73.25,50.45 C75.6,50.45 77.54,50.37 79.39,49.3 C79.58,49.19 79.71,49.04 79.88,48.92 C80.33,49.82 81.23,50.45 82.31,50.45 L86.34,50.45 C87.7,50.45 88.78,49.44 88.98,48.13 C90.74,49.66 93.14,50.45 96.38,50.45 L100.19,50.45 C100.8,50.45 101.37,50.25 101.82,49.91 C102.28,50.25 102.85,50.45 103.45,50.45 L109.36,50.45 C110.45,50.45 111.43,49.8 111.86,48.8 L113.31,45.41 L113.31,47.73 C113.31,49.23 114.53,50.45 116.03,50.45 L122.04,50.45 C122.99,50.45 123.87,49.95 124.37,49.13 L126.24,46.02 L126.24,47.72 C126.24,49.22 127.46,50.44 128.97,50.44 L133.01,50.44 C134.51,50.44 135.73,49.22 135.73,47.72 L135.73,31.22 C135.73,29.72 134.51,28.5 133.01,28.5 L127.43,28.5 C126.47,28.5 125.59,29 125.09,29.82 L122.67,33.83 L122.67,31.23 C122.67,29.73 121.45,28.51 119.95,28.51 L111.93,28.51 C110.83,28.51 109.84,29.17 109.42,30.19 L108.59,32.19 L104.05,32.19 L103.25,30.21 C102.84,29.18 101.84,28.5 100.74,28.5 L96.12,28.5 C94.37,28.5 91.22,28.82 88.98,30.7 C88.72,29.46 87.68,28.5 86.36,28.5 L82.3,28.5 C81.85,28.5 81.45,28.64 81.07,28.83 C80.7,28.64 80.3,28.5 79.85,28.5 L75.87,28.5 C74.38,28.5 73.16,29.71 73.14,31.2 L73.12,33.28 L73.13,33.64 C73.13,33.86 73.14,34.19 73.12,34.47 C72.94,34.48 72.7,34.49 72.35,34.49 L70.84,34.49 L70.84,31.21 C70.84,29.71 69.62,28.49 68.12,28.49 L64.17,28.49 C63.66,28.49 63.21,28.67 62.8,28.91 C62.4,28.67 61.95,28.49 61.43,28.49 L48.26,28.49 C47.7,28.49 47.22,28.7 46.79,28.98 C46.36,28.7 45.87,28.49 45.32,28.49 L41.28,28.49 C39.77,28.49 38.56,29.71 38.56,31.21 L38.56,31.28 L38.04,30.11 C37.6,29.12 36.63,28.49 35.55,28.49 L32.09,28.52 L32.09,28.52 L32.09,28.52 Z M88.26,39.37 C88.26,36.37 88.98,34.47 90.38,33.07 C91.75,31.67 94.17,31.25 96.09,31.25 L100.71,31.25 L102.19,34.93 L110.39,34.93 L111.93,31.25 L119.95,31.25 L119.95,43.63 L127.43,31.25 L133.02,31.25 L133.02,47.75 L128.98,47.75 L128.98,36.26 L122.05,47.75 L116.04,47.75 L116.04,32.14 L109.37,47.75 L103.46,47.75 L97.89,34.78 L96.12,34.78 C95.09,34.78 93.98,34.98 93.37,35.63 C92.63,36.46 92.28,37.74 92.28,39.5 C92.28,41.23 92.74,42.54 93.41,43.24 C94.19,44.01 95.01,44.22 96.44,44.22 L100.18,44.22 L100.18,47.76 L96.37,47.76 C93.65,47.76 91.65,47.15 90.38,45.84 C88.69,44.06 88.26,41.82 88.26,39.37 L88.26,39.37 Z M96.46,41.49 C95.53,41.49 95.44,41.39 95.33,41.28 C95.29,41.23 95.02,40.63 95.02,39.49 C95.02,38.36 95.2,37.81 95.33,37.57 C95.47,37.53 95.73,37.49 96.1,37.49 L97.81,41.48 L96.46,41.49 C96.46,41.49 96.46,41.49 96.46,41.49 Z M82.31,31.25 L86.34,31.25 L86.34,47.75 L82.31,47.75 L82.31,31.25 Z M64.18,31.25 L68.13,31.25 L68.13,37.25 L72.36,37.25 C73.78,37.25 74.66,37.12 75.23,36.55 C75.95,35.75 75.85,34.33 75.85,33.34 L75.87,31.26 L79.85,31.26 L79.85,34.5 C79.85,35.97 79.75,36.7 79.2,37.53 C78.85,38.01 78.11,38.59 77.25,38.92 C78.27,39.33 80.03,40.69 80.03,43.32 C80.03,45.16 79.28,46.24 78.03,46.98 C76.76,47.72 75.27,47.77 73.26,47.77 L64.19,47.77 L64.18,31.25 L64.18,31.25 L64.18,31.25 Z M48.27,31.25 L61.44,31.25 L61.44,34.66 L52.21,34.66 L52.21,37.96 L61.22,37.96 L61.22,41.34 L52.21,41.34 L52.21,44.31 L61.44,44.31 L61.44,47.75 L48.27,47.75 C48.27,47.75 48.27,31.25 48.27,31.25 Z M32.09,31.25 L35.55,31.25 L41.27,44.17 L41.29,31.25 L45.33,31.25 L45.33,47.75 L38.76,47.75 L34.02,36.56 L28.86,47.75 L22.42,47.75 L22.42,32.12 L15.71,47.74 L9.86,47.74 L2.8,31.24 L7.09,31.24 L8.62,34.92 L16.83,34.92 L18.35,31.24 L26.38,31.24 L26.38,44.17 L32.09,31.25 Z" transform="matrix(1 0 0 -1 3.4 66.4)"/>
  </g>
</svg>
