<svg xmlns="http://www.w3.org/2000/svg" width="155" height="83" viewBox="0 0 155 83">
  <g fill="none" fill-rule="evenodd" transform="translate(1)">
    <path fill="#FFF" stroke="#D6D6D6" d="M153.2,70.5 C153.2,77.1 147.8,82.5 141.2,82.5 L12.2,82.5 C5.6,82.5 0.2,77.1 0.2,70.5 L0.2,12.5 C0.2,5.9 5.6,0.5 12.2,0.5 L141.2,0.5 C147.8,0.5 153.2,5.9 153.2,12.5 L153.2,70.5 Z"/>
    <path fill="#333" fill-rule="nonzero" d="M52.5,70.8 L52.5,66.9 C52.5,65.4 51.6,64.4 50,64.4 C49.2,64.4 48.4,64.7 47.8,65.5 C47.3,64.8 46.7,64.4 45.7,64.4 C45,64.4 44.4,64.6 43.9,65.3 L43.9,64.5 L42.5,64.5 L42.5,70.8 L43.9,70.8 L43.9,67.4 C43.9,66.3 44.5,65.8 45.4,65.8 C46.3,65.8 46.8,66.4 46.8,67.4 L46.8,70.8 L48.2,70.8 L48.2,67.4 C48.2,66.3 48.9,65.8 49.7,65.8 C50.6,65.8 51.1,66.4 51.1,67.4 L51.1,70.8 L52.5,70.8 L52.5,70.8 Z M72.8,64.6 L70.6,64.6 L70.6,62.7 L69.2,62.7 L69.2,64.6 L68,64.6 L68,65.8 L69.2,65.8 L69.2,68.7 C69.2,70.1 69.8,71 71.4,71 C72,71 72.6,70.8 73.1,70.5 L72.7,69.3 C72.3,69.6 71.9,69.6 71.5,69.6 C70.8,69.6 70.6,69.2 70.6,68.6 L70.6,65.8 L72.8,65.8 L72.8,64.6 L72.8,64.6 Z M84.4,64.5 C83.6,64.5 83.1,64.9 82.8,65.4 L82.8,64.6 L81.4,64.6 L81.4,70.9 L82.8,70.9 L82.8,67.4 C82.8,66.3 83.3,65.8 84.1,65.8 C84.4,65.8 84.7,65.9 84.9,65.9 L85.3,64.6 C85,64.5 84.7,64.5 84.4,64.5 L84.4,64.5 Z M66.8,65.1 C66.1,64.6 65.2,64.4 64.3,64.4 C62.7,64.4 61.7,65.2 61.7,66.4 C61.7,67.5 62.5,68 63.9,68.2 L64.6,68.3 C65.3,68.4 65.7,68.6 65.7,69 C65.7,69.5 65.2,69.8 64.3,69.8 C63.4,69.8 62.7,69.5 62.2,69.1 L61.5,70.2 C62.2,70.7 63.2,71 64.2,71 C66,71 67.1,70.2 67.1,69 C67.1,67.9 66.3,67.3 64.9,67.1 L64.2,67 C63.6,66.9 63.2,66.8 63.2,66.4 C63.2,65.9 63.7,65.7 64.4,65.7 C65.2,65.7 66,66 66.4,66.2 L66.8,65.1 Z M103.2,64.5 C102.4,64.5 101.9,64.9 101.6,65.4 L101.6,64.6 L100.2,64.6 L100.2,70.9 L101.6,70.9 L101.6,67.4 C101.6,66.3 102.1,65.8 102.9,65.8 C103.2,65.8 103.5,65.9 103.7,65.9 L104.1,64.6 C103.9,64.5 103.5,64.5 103.2,64.5 L103.2,64.5 Z M85.8,67.7 C85.8,69.6 87.1,71 89.1,71 C90,71 90.7,70.8 91.3,70.3 L90.6,69.2 C90.1,69.6 89.6,69.8 89,69.8 C87.9,69.8 87.1,69 87.1,67.8 C87.1,66.6 87.9,65.8 89,65.8 C89.6,65.8 90.1,66 90.6,66.4 L91.3,65.3 C90.6,64.8 90,64.6 89.1,64.6 C87.1,64.5 85.8,65.8 85.8,67.7 L85.8,67.7 Z M98.4,67.7 L98.4,64.6 L97,64.6 L97,65.4 C96.5,64.8 95.9,64.5 95,64.5 C93.2,64.5 91.9,65.9 91.9,67.8 C91.9,69.7 93.3,71.1 95,71.1 C95.9,71.1 96.6,70.8 97,70.2 L97,71 L98.4,71 L98.4,67.7 Z M93.4,67.7 C93.4,66.6 94.1,65.7 95.3,65.7 C96.4,65.7 97.2,66.5 97.2,67.7 C97.2,68.8 96.4,69.7 95.3,69.7 C94.1,69.7 93.4,68.8 93.4,67.7 L93.4,67.7 Z M77,64.5 C75.2,64.5 73.9,65.8 73.9,67.8 C73.9,69.8 75.2,71.1 77.1,71.1 C78,71.1 78.9,70.8 79.6,70.3 L78.9,69.3 C78.4,69.7 77.7,70 77.1,70 C76.3,70 75.4,69.6 75.2,68.5 L79.8,68.5 C79.8,68.3 79.8,68.2 79.8,68 C80,65.8 78.8,64.5 77,64.5 L77,64.5 Z M77,65.6 C77.8,65.6 78.4,66.1 78.6,67.1 L75.3,67.1 C75.5,66.3 76,65.6 77,65.6 L77,65.6 Z M111,67.7 L111,62.1 L109.6,62.1 L109.6,65.4 C109.1,64.8 108.5,64.5 107.6,64.5 C105.8,64.5 104.5,65.9 104.5,67.8 C104.5,69.7 105.9,71.1 107.6,71.1 C108.5,71.1 109.2,70.8 109.6,70.2 L109.6,71 L111,71 L111,67.7 Z M106,67.7 C106,66.6 106.7,65.7 107.9,65.7 C109,65.7 109.8,66.5 109.8,67.7 C109.8,68.8 109,69.7 107.9,69.7 C106.7,69.7 106,68.8 106,67.7 L106,67.7 Z M60.2,67.7 L60.2,64.6 L58.8,64.6 L58.8,65.4 C58.3,64.8 57.7,64.5 56.8,64.5 C55,64.5 53.7,65.9 53.7,67.8 C53.7,69.7 55.1,71.1 56.8,71.1 C57.7,71.1 58.4,70.8 58.8,70.2 L58.8,71 L60.2,71 L60.2,67.7 Z M55.1,67.7 C55.1,66.6 55.8,65.7 57,65.7 C58.1,65.7 58.9,66.5 58.9,67.7 C58.9,68.8 58.1,69.7 57,69.7 C55.8,69.7 55.1,68.8 55.1,67.7 Z"/>
    <g fill-rule="nonzero" transform="translate(38 12)">
      <rect width="20.5" height="36.9" x="28.4" y="5" fill="#FF5F00"/>
      <path fill="#EB001B" d="M29.7,23.5 C29.7,16 33.2,9.3 38.6,5 C34.6,1.9 29.6,0 24.1,0 C11.1,0 0.6,10.5 0.6,23.5 C0.6,36.5 11.2,47 24.2,47 C29.7,47 34.7,45.1 38.7,42 C33.2,37.7 29.7,31 29.7,23.5 Z"/>
      <path fill="#F79E1B" d="M76.7,23.5 C76.7,36.5 66.2,47 53.2,47 C47.7,47 42.7,45.1 38.7,42 C44.2,37.7 47.6,31 47.6,23.5 C47.6,16 44.1,9.3 38.7,5 C42.7,1.9 47.7,0 53.2,0 C66.2,0 76.7,10.6 76.7,23.5 Z"/>
    </g>
  </g>
</svg>
