<svg xmlns="http://www.w3.org/2000/svg" width="155" height="83" viewBox="0 0 155 83">
  <g fill="none" fill-rule="evenodd">
    <path fill="#FFF" stroke="#D6D6D6" d="M153.9,70.5 C153.9,77.1 148.5,82.5 141.9,82.5 L12.9,82.5 C6.3,82.5 0.9,77.1 0.9,70.5 L0.9,12.5 C0.9,5.9 6.3,0.5 12.9,0.5 L141.9,0.5 C148.5,0.5 153.9,5.9 153.9,12.5 L153.9,70.5 Z"/>
    <g fill-rule="nonzero" transform="translate(14 21)">
      <path fill="#F9A51A" d="M16.6,1.6 L0.2,1.6 L0.1,2.4 C12.8,5.5 21.2,12.9 24.7,21.9 L21.2,4.8 C20.6,2.4 18.8,1.7 16.6,1.6"/>
      <path fill="#00589F" d="M35.7,1.6 L25.8,27 L24.7,21.8 C22.9,15.8 17.1,9.4 10.7,6.2 L19.8,38.8 L30.5,38.8 L46.5,1.6 L35.7,1.6 L35.7,1.6 Z"/>
      <polygon fill="#00589F" points="44.2 38.9 50.6 1.6 60.7 1.6 54.4 38.9"/>
      <path fill="#00589F" d="M91.1 2.5C89.1 1.7 85.9.9 82 .9 72 .9 64.9 6 64.9 13.2 64.8 18.5 69.9 21.5 73.8 23.3 77.8 25.1 79.1 26.3 79.1 27.9 79.1 30.4 76 31.5 73 31.5 69 31.5 66.8 30.9 63.5 29.5L62.2 28.9 60.8 37.3C63.2 38.3 67.6 39.2 72.1 39.3 82.8 39.3 89.7 34.3 89.7 26.6 89.7 22.4 87 19.1 81.2 16.5 77.7 14.8 75.5 13.6 75.5 11.9 75.5 10.4 77.3 8.7 81.3 8.7 84.6 8.7 87 9.4 88.9 10.1L89.8 10.5 91.1 2.5zM117.1 1.6L109.3 1.6C106.9 1.6 105.1 2.3 104 4.7L88.9 38.9 99.5 38.9C99.5 38.9 101.2 34.3 101.6 33.3 102.8 33.3 113.1 33.3 114.6 33.3 114.9 34.6 115.8 38.9 115.8 38.9L125.2 38.9 117.1 1.6zM104.6 25.7C105.4 23.5 108.6 15.3 108.6 15.3 108.5 15.4 109.4 13.1 109.9 11.7L110.6 14.9C110.6 14.9 112.5 23.8 113 25.7L104.6 25.7 104.6 25.7z"/>
    </g>
  </g>
</svg>
