<svg xmlns="http://www.w3.org/2000/svg" width="373" height="107" viewBox="0 0 373 107">
  <g fill="none" fill-rule="evenodd" transform="translate(0 1)">
    <g transform="translate(0 5.5)">
      <path fill="#9692C9" d="M153,76.8292683 C153,84.0731707 147.6,90 141,90 L12,90 C5.4,90 0,84.0731707 0,76.8292683 L0,13.1707317 C0,5.92682927 5.4,0 12,0 L141,0 C147.6,0 153,5.92682927 153,13.1707317 L153,76.8292683 Z"/>
      <g transform="translate(8.1 62.5)">
        <rect width="98" height="12" fill="#FFF"/>
        <polygon fill="#EE7F04" points="22.559 0 25 0 12.399 12 10 12" transform="matrix(-1 0 0 1 35 0)"/>
        <polygon fill="#EE7F04" points="27.559 0 30 0 17.399 12 15 12" transform="matrix(-1 0 0 1 45 0)"/>
        <polygon fill="#EE7F04" points="32.559 0 35 0 22.399 12 20 12" transform="matrix(-1 0 0 1 55 0)"/>
        <polygon fill="#EE7F04" points="37.559 0 40 0 27.399 12 25 12" transform="matrix(-1 0 0 1 65 0)"/>
        <polygon fill="#EE7F04" points="42.559 0 45 0 32.399 12 30 12" transform="matrix(-1 0 0 1 75 0)"/>
        <polygon fill="#EE7F04" points="47.559 0 50 0 37.399 12 35 12" transform="matrix(-1 0 0 1 85 0)"/>
        <polygon fill="#EE7F04" points="52.559 0 55 0 42.399 12 40 12" transform="matrix(-1 0 0 1 95 0)"/>
        <polygon fill="#EE7F04" points="57.559 0 60 0 47.399 12 45 12" transform="matrix(-1 0 0 1 105 0)"/>
        <polygon fill="#EE7F04" points="62.559 0 65 0 52.399 12 50 12" transform="matrix(-1 0 0 1 115 0)"/>
        <polygon fill="#EE7F04" points="67.559 0 70 0 57.399 12 55 12" transform="matrix(-1 0 0 1 125 0)"/>
        <polygon fill="#EE7F04" points="72.559 0 75 0 62.399 12 60 12" transform="matrix(-1 0 0 1 135 0)"/>
        <polygon fill="#EE7F04" points="77.559 0 80 0 67.399 12 65 12" transform="matrix(-1 0 0 1 145 0)"/>
        <polygon fill="#EE7F04" points="82.559 0 85 0 72.399 12 70 12" transform="matrix(-1 0 0 1 155 0)"/>
        <polygon fill="#EE7F04" points="87.559 0 90 0 77.399 12 75 12" transform="matrix(-1 0 0 1 165 0)"/>
        <polygon fill="#EE7F04" points="92.559 0 95 0 82.399 12 80 12" transform="matrix(-1 0 0 1 175 0)"/>
        <polygon fill="#EE7F04" points="97.559 0 100 0 87.399 12 85 12" transform="matrix(-1 0 0 1 185 0)"/>
        <polygon fill="#EE7F04" points="102.559 0 105 0 92.399 12 90 12" transform="matrix(-1 0 0 1 195 0)"/>
        <polygon fill="#EE7F04" points="107.559 0 110 0 97.399 12 95 12" transform="matrix(-1 0 0 1 205 0)"/>
        <polygon fill="#EE7F04" points="17.559 0 20 0 7.399 12 5 12" transform="matrix(-1 0 0 1 25 0)"/>
        <polygon fill="#EE7F04" points="12.559 0 15 0 2.399 12 0 12" transform="matrix(-1 0 0 1 15 0)"/>
        <polygon fill="#EE7F04" points="10 2.623 10 4.786 2.399 12 0 12" transform="matrix(-1 0 0 1 10 0)"/>
        <polygon fill="#EE7F04" points="5 7.312 5 9.525 2.399 12 0 12" transform="matrix(-1 0 0 1 5 0)"/>
      </g>
      <rect width="153" height="24" x=".1" y="14.5" fill="#455D6C"/>
      <circle cx="131.1" cy="62.5" r="37" fill="#9692C9" stroke="#FFF"/>
      <path fill="#455D6C" d="M99.9658841,42.5 C106.549041,32.2731326 118.033546,25.5 131.1,25.5 C144.166454,25.5 155.650959,32.2731326 162.234116,42.5 L99.9658841,42.5 Z"/>
      <g fill-rule="nonzero" transform="translate(8.1 47.5)">
        <g transform="translate(.65 1)">
          <path fill="#EEE" d="M4.37439024,-1.42108547e-14 L0.374390244,-1.42108547e-14 L0.35,0.197044335 C3.44756098,0.960591133 5.49634146,2.78325123 6.35,5 L5.49634146,0.78817734 C5.35,0.197044335 4.91097561,0.0246305419 4.37439024,-1.42108547e-14"/>
          <path fill="#FFF" d="M8.93659218,1 L6.72430168,6.46236559 L6.47849162,5.34408602 C6.07625698,4.05376344 4.7801676,2.67741935 3.35,1.98924731 L5.38351955,9 L7.77458101,9 L11.35,1 L8.93659218,1 L8.93659218,1 Z"/>
          <polygon fill="#FFF" points="11.35 9 12.902 1 15.35 1 13.823 9"/>
          <path fill="#FFF" d="M22.35 1.33333333C21.8879538 1.16666667 21.1486799 1 20.2476898 1 17.9374587 1 16.2971947 2.0625 16.2971947 3.5625 16.2740924 4.66666667 17.4523102 5.29166667 18.3533003 5.66666667 19.2773927 6.04166667 19.5777228 6.29166667 19.5777228 6.625 19.5777228 7.14583333 18.8615512 7.375 18.1684818 7.375 17.2443894 7.375 16.7361386 7.25 15.9737624 6.95833333L15.6734323 6.83333333 15.35 8.58333333C15.9044554 8.79166667 16.9209571 8.97916667 17.9605611 9 20.4325083 9 22.0265677 7.95833333 22.0265677 6.35416667 22.0265677 5.47916667 21.4028053 4.79166667 20.0628713 4.25 19.2542904 3.89583333 18.7460396 3.64583333 18.7460396 3.29166667 18.7460396 2.97916667 19.1618812 2.625 20.0859736 2.625 20.8483498 2.625 21.4028053 2.77083333 21.8417492 2.91666667L22.04967 3 22.35 1.33333333zM28.3417355 1L26.4078512 1C25.8128099 1 25.3665289 1.15013405 25.0938017 1.66487936L21.35 9 23.9780992 9C23.9780992 9 24.3995868 8.01340483 24.4987603 7.79892761 24.796281 7.79892761 27.35 7.79892761 27.7219008 7.79892761 27.796281 8.07774799 28.0194215 9 28.0194215 9L30.35 9 28.3417355 1zM25.242562 6.1689008C25.4409091 5.69705094 26.2342975 3.9383378 26.2342975 3.9383378 26.2095041 3.95978552 26.4326446 3.46648794 26.5566116 3.16621984L26.7301653 3.85254692C26.7301653 3.85254692 27.2012397 5.7613941 27.3252066 6.1689008L25.242562 6.1689008 25.242562 6.1689008z"/>
        </g>
        <g transform="translate(39)">
          <path fill="#FFF" d="M2.85069675,11.9294118 L2.85069675,11.0117647 C2.85069675,10.6588235 2.65958859,10.4235294 2.31984074,10.4235294 C2.14996682,10.4235294 1.9800929,10.4941176 1.85268746,10.6823529 C1.74651626,10.5176471 1.61911082,10.4235294 1.40676841,10.4235294 C1.25812873,10.4235294 1.13072329,10.4705882 1.02455209,10.6352941 L1.02455209,10.4470588 L0.727272727,10.4470588 L0.727272727,11.9294118 L1.02455209,11.9294118 L1.02455209,11.1294118 C1.02455209,10.8705882 1.15195753,10.7529412 1.34306569,10.7529412 C1.53417386,10.7529412 1.64034506,10.8941176 1.64034506,11.1294118 L1.64034506,11.9294118 L1.93762442,11.9294118 L1.93762442,11.1294118 C1.93762442,10.8705882 2.0862641,10.7529412 2.25613802,10.7529412 C2.44724618,10.7529412 2.55341739,10.8941176 2.55341739,11.1294118 L2.55341739,11.9294118 L2.85069675,11.9294118 L2.85069675,11.9294118 Z M7.16124751,10.4705882 L6.69409423,10.4705882 L6.69409423,10.0235294 L6.39681486,10.0235294 L6.39681486,10.4705882 L6.14200398,10.4705882 L6.14200398,10.7529412 L6.39681486,10.7529412 L6.39681486,11.4352941 C6.39681486,11.7647059 6.52422031,11.9764706 6.86396815,11.9764706 C6.99137359,11.9764706 7.11877903,11.9294118 7.22495023,11.8588235 L7.14001327,11.5764706 C7.05507631,11.6470588 6.97013935,11.6470588 6.88520239,11.6470588 C6.73656271,11.6470588 6.69409423,11.5529412 6.69409423,11.4117647 L6.69409423,10.7529412 L7.16124751,10.7529412 L7.16124751,10.4705882 L7.16124751,10.4705882 Z M9.62441938,10.4470588 C9.45454545,10.4470588 9.34837425,10.5411765 9.28467153,10.6588235 L9.28467153,10.4705882 L8.98739217,10.4705882 L8.98739217,11.9529412 L9.28467153,11.9529412 L9.28467153,11.1294118 C9.28467153,10.8705882 9.39084273,10.7529412 9.56071666,10.7529412 C9.62441938,10.7529412 9.6881221,10.7764706 9.73059058,10.7764706 L9.81552754,10.4705882 C9.75182482,10.4470588 9.6881221,10.4470588 9.62441938,10.4470588 L9.62441938,10.4470588 Z M5.8871931,10.5882353 C5.73855342,10.4705882 5.54744526,10.4235294 5.35633709,10.4235294 C5.01658925,10.4235294 4.80424685,10.6117647 4.80424685,10.8941176 C4.80424685,11.1529412 4.97412077,11.2705882 5.27140013,11.3176471 L5.42003981,11.3411765 C5.5686795,11.3647059 5.65361646,11.4117647 5.65361646,11.5058824 C5.65361646,11.6235294 5.54744526,11.6941176 5.35633709,11.6941176 C5.16522893,11.6941176 5.01658925,11.6235294 4.91041805,11.5294118 L4.76177837,11.7882353 C4.91041805,11.9058824 5.12276045,11.9764706 5.33510285,11.9764706 C5.71731918,11.9764706 5.95089582,11.7882353 5.95089582,11.5058824 C5.95089582,11.2470588 5.7810219,11.1058824 5.48374253,11.0588235 L5.33510285,11.0352941 C5.20769741,11.0117647 5.12276045,10.9882353 5.12276045,10.8941176 C5.12276045,10.7764706 5.22893165,10.7294118 5.37757133,10.7294118 C5.54744526,10.7294118 5.71731918,10.8 5.80225614,10.8470588 L5.8871931,10.5882353 Z M13.6164565,10.4470588 C13.4465826,10.4470588 13.3404114,10.5411765 13.2767087,10.6588235 L13.2767087,10.4705882 L12.9794293,10.4705882 L12.9794293,11.9529412 L13.2767087,11.9529412 L13.2767087,11.1294118 C13.2767087,10.8705882 13.3828799,10.7529412 13.5527538,10.7529412 C13.6164565,10.7529412 13.6801593,10.7764706 13.7226277,10.7764706 L13.8075647,10.4705882 C13.7650962,10.4470588 13.6801593,10.4470588 13.6164565,10.4470588 L13.6164565,10.4470588 Z M9.92169874,11.2 C9.92169874,11.6470588 10.1977439,11.9764706 10.6224287,11.9764706 C10.8135368,11.9764706 10.9621765,11.9294118 11.089582,11.8117647 L10.9409423,11.5529412 C10.8347711,11.6470588 10.7285999,11.6941176 10.6011944,11.6941176 C10.3676178,11.6941176 10.1977439,11.5058824 10.1977439,11.2235294 C10.1977439,10.9411765 10.3676178,10.7529412 10.6011944,10.7529412 C10.7285999,10.7529412 10.8347711,10.8 10.9409423,10.8941176 L11.089582,10.6352941 C10.9409423,10.5176471 10.8135368,10.4705882 10.6224287,10.4705882 C10.1977439,10.4470588 9.92169874,10.7529412 9.92169874,11.2 L9.92169874,11.2 Z M12.597213,11.2 L12.597213,10.4705882 L12.2999336,10.4705882 L12.2999336,10.6588235 C12.1937624,10.5176471 12.066357,10.4470588 11.8752488,10.4470588 C11.4930325,10.4470588 11.2169874,10.7764706 11.2169874,11.2235294 C11.2169874,11.6705882 11.5142668,12 11.8752488,12 C12.066357,12 12.2149967,11.9294118 12.2999336,11.7882353 L12.2999336,11.9764706 L12.597213,11.9764706 L12.597213,11.2 Z M11.535501,11.2 C11.535501,10.9411765 11.6841407,10.7294118 11.9389516,10.7294118 C12.1725282,10.7294118 12.3424021,10.9176471 12.3424021,11.2 C12.3424021,11.4588235 12.1725282,11.6705882 11.9389516,11.6705882 C11.6841407,11.6705882 11.535501,11.4588235 11.535501,11.2 L11.535501,11.2 Z M8.0530856,10.4470588 C7.67086928,10.4470588 7.39482415,10.7529412 7.39482415,11.2235294 C7.39482415,11.6941176 7.67086928,12 8.07431984,12 C8.265428,12 8.45653616,11.9294118 8.60517585,11.8117647 L8.45653616,11.5764706 C8.35036496,11.6705882 8.20172528,11.7411765 8.07431984,11.7411765 C7.90444592,11.7411765 7.71333776,11.6470588 7.67086928,11.3882353 L8.64764433,11.3882353 C8.64764433,11.3411765 8.64764433,11.3176471 8.64764433,11.2705882 C8.69011281,10.7529412 8.43530192,10.4470588 8.0530856,10.4470588 L8.0530856,10.4470588 Z M8.0530856,10.7058824 C8.22295952,10.7058824 8.35036496,10.8235294 8.39283344,11.0588235 L7.69210352,11.0588235 C7.734572,10.8705882 7.8407432,10.7058824 8.0530856,10.7058824 L8.0530856,10.7058824 Z M15.2727273,11.2 L15.2727273,9.88235294 L14.9754479,9.88235294 L14.9754479,10.6588235 C14.8692767,10.5176471 14.7418713,10.4470588 14.5507631,10.4470588 C14.1685468,10.4470588 13.8925017,10.7764706 13.8925017,11.2235294 C13.8925017,11.6705882 14.189781,12 14.5507631,12 C14.7418713,12 14.8905109,11.9294118 14.9754479,11.7882353 L14.9754479,11.9764706 L15.2727273,11.9764706 L15.2727273,11.2 Z M14.2110153,11.2 C14.2110153,10.9411765 14.3596549,10.7294118 14.6144658,10.7294118 C14.8480425,10.7294118 15.0179164,10.9176471 15.0179164,11.2 C15.0179164,11.4588235 14.8480425,11.6705882 14.6144658,11.6705882 C14.3596549,11.6705882 14.2110153,11.4588235 14.2110153,11.2 L14.2110153,11.2 Z M4.48573324,11.2 L4.48573324,10.4705882 L4.18845388,10.4705882 L4.18845388,10.6588235 C4.08228268,10.5176471 3.95487724,10.4470588 3.76376908,10.4470588 C3.38155275,10.4470588 3.10550763,10.7764706 3.10550763,11.2235294 C3.10550763,11.6705882 3.40278699,12 3.76376908,12 C3.95487724,12 4.10351692,11.9294118 4.18845388,11.7882353 L4.18845388,11.9764706 L4.48573324,11.9764706 L4.48573324,11.2 Z M3.40278699,11.2 C3.40278699,10.9411765 3.55142668,10.7294118 3.80623756,10.7294118 C4.0398142,10.7294118 4.20968812,10.9176471 4.20968812,11.2 C4.20968812,11.4588235 4.0398142,11.6705882 3.80623756,11.6705882 C3.55142668,11.6705882 3.40278699,11.4588235 3.40278699,11.2 Z"/>
          <rect width="4.26" height="7.205" x="5.901" y=".976" fill="#DDD"/>
          <path fill="#FFF" d="M6.17142857,4.58823529 C6.17142857,3.12390488 6.8987013,1.81576971 8.02077922,0.976220275 C7.18961039,0.370963705 6.15064935,0 5.00779221,0 C2.30649351,0 0.124675325,2.05006258 0.124675325,4.58823529 C0.124675325,7.12640801 2.32727273,9.17647059 5.02857143,9.17647059 C6.17142857,9.17647059 7.21038961,8.80550688 8.04155844,8.20025031 C6.8987013,7.36070088 6.17142857,6.05256571 6.17142857,4.58823529 Z"/>
          <path fill="#EEE" d="M15.9376623,4.58823529 C15.9376623,7.12640801 13.7558442,9.17647059 11.0545455,9.17647059 C9.91168831,9.17647059 8.87272727,8.80550688 8.04155844,8.20025031 C9.18441558,7.36070088 9.89090909,6.05256571 9.89090909,4.58823529 C9.89090909,3.12390488 9.16363636,1.81576971 8.04155844,0.976220275 C8.87272727,0.370963705 9.91168831,0 11.0545455,0 C13.7558442,0 15.9376623,2.06958698 15.9376623,4.58823529 Z"/>
        </g>
      </g>
      <rect width="41" height="25" x="117.1" y="55.5" fill="#E7E7E7"/>
      <polygon fill="#FFF" points="94.1 55.5 116.609 55.5 117.1 65.666 115.6 73 112.571 80.5 94.1 80.5" transform="matrix(-1 0 0 1 211.2 0)"/>
      <path fill="#111" fill-rule="nonzero" d="M125.081,73.5 L125.081,71.808 L127.637,71.808 L127.637,64.284 L125.531,64.284 L125.531,62.988 C126.107003,62.8799995 126.601998,62.7510008 127.016,62.601 C127.430002,62.4509992 127.816998,62.2680011 128.177,62.052 L129.725,62.052 L129.725,71.808 L131.975,71.808 L131.975,73.5 L125.081,73.5 Z M133.667,73.5 L133.667,72.294 C134.459004,71.5259962 135.175997,70.8180032 135.818,70.17 C136.460003,69.5219968 137.005998,68.9220028 137.456,68.37 C137.906002,67.8179972 138.250999,67.3020024 138.491,66.822 C138.731001,66.3419976 138.851,65.8860022 138.851,65.454 C138.851,64.8419969 138.689002,64.3590018 138.365,64.005 C138.040998,63.6509982 137.573003,63.474 136.961,63.474 C136.516998,63.474 136.112002,63.5999987 135.746,63.852 C135.379998,64.1040013 135.041002,64.4039983 134.729,64.752 L133.577,63.6 C134.105003,63.0359972 134.647997,62.6010015 135.206,62.295 C135.764003,61.9889985 136.438996,61.836 137.231,61.836 C137.783003,61.836 138.280998,61.9199992 138.725,62.088 C139.169002,62.2560008 139.546998,62.4929985 139.859,62.799 C140.171002,63.1050015 140.413999,63.4739978 140.588,63.906 C140.762001,64.3380022 140.849,64.8179974 140.849,65.346 C140.849,65.8500025 140.738001,66.3629974 140.516,66.885 C140.293999,67.4070026 139.994002,67.9349973 139.616,68.469 C139.237998,69.0030027 138.797003,69.5519972 138.293,70.116 C137.788997,70.6800028 137.255003,71.261997 136.691,71.862 C136.991001,71.8379999 137.314998,71.8110001 137.663,71.781 C138.011002,71.7509998 138.322999,71.736 138.599,71.736 L141.407,71.736 L141.407,73.5 L133.667,73.5 Z M146.537,73.716 C145.600995,73.716 144.821003,73.5600016 144.197,73.248 C143.572997,72.9359984 143.057002,72.5520023 142.649,72.096 L143.639,70.764 C143.987002,71.1120017 144.382998,71.4089988 144.827,71.655 C145.271002,71.9010012 145.780997,72.024 146.357,72.024 C146.981003,72.024 147.487998,71.8710015 147.878,71.565 C148.268002,71.2589985 148.463,70.836 148.463,70.296 C148.463,69.9959985 148.409001,69.7260012 148.301,69.486 C148.192999,69.2459988 148.010001,69.0420008 147.752,68.874 C147.493999,68.7059992 147.149,68.5770004 146.717,68.487 C146.284998,68.3969996 145.745003,68.352 145.097,68.352 L145.097,66.84 C145.661003,66.84 146.131998,66.7950005 146.51,66.705 C146.888002,66.6149995 147.193999,66.4890008 147.428,66.327 C147.662001,66.1649992 147.829999,65.9700011 147.932,65.742 C148.034001,65.5139989 148.085,65.2680013 148.085,65.004 C148.085,64.5239976 147.935001,64.1490013 147.635,63.879 C147.334998,63.6089986 146.921003,63.474 146.393,63.474 C145.936998,63.474 145.526002,63.572999 145.16,63.771 C144.793998,63.969001 144.437002,64.2299984 144.089,64.554 L143.027,63.276 C143.519002,62.8439978 144.043997,62.4960013 144.602,62.232 C145.160003,61.9679987 145.780997,61.836 146.465,61.836 C147.017003,61.836 147.520998,61.9019993 147.977,62.034 C148.433002,62.1660007 148.822998,62.3609987 149.147,62.619 C149.471002,62.8770013 149.722999,63.1949981 149.903,63.573 C150.083001,63.9510019 150.173,64.3799976 150.173,64.86 C150.173,65.5080032 149.996002,66.0479978 149.642,66.48 C149.287998,66.9120022 148.799003,67.2479988 148.175,67.488 L148.175,67.56 C148.859003,67.7400009 149.425998,68.0699976 149.876,68.55 C150.326002,69.0300024 150.551,69.6479962 150.551,70.404 C150.551,70.9320026 150.446001,71.399998 150.236,71.808 C150.025999,72.216002 149.738002,72.5609986 149.372,72.843 C149.005998,73.1250014 148.580002,73.3409992 148.094,73.491 C147.607998,73.6410008 147.089003,73.716 146.537,73.716 Z"/>
      <g fill="#EE7F04" transform="translate(94.59 55.5)">
        <polygon points="17.607 0 21.436 0 3.987 25 0 25" transform="matrix(-1 0 0 1 21.436 0)"/>
        <polygon points="18.679 0 22.509 0 7 22.026 7 16.566" transform="matrix(-1 0 0 1 29.51 0)"/>
        <polygon points="18.679 0 22.509 0 14 11.765 14 6.589" transform="matrix(-1 0 0 1 36.51 0)"/>
        <polygon points="13.436 5.378 13.436 11.5 3.987 25 0 25" transform="matrix(-1 0 0 1 13.436 0)"/>
      </g>
      <circle cx="131.1" cy="62.5" r="37" stroke="#FFF"/>
    </g>
    <g transform="translate(200)">
      <path fill="#00B5DD" d="M153,82.3292683 C153,89.5731707 147.6,95.5 141,95.5 L12,95.5 C5.4,95.5 0,89.5731707 0,82.3292683 L0,18.6707317 C0,11.4268293 5.4,5.5 12,5.5 L141,5.5 C147.6,5.5 153,11.4268293 153,18.6707317 L153,82.3292683 Z"/>
      <path fill="#FFF" fill-rule="nonzero" d="M17.0708108,3.25588235 L18.8724324,5.16764706 L18.8724324,1.27647059 L17.0708108,3.25588235 Z M11.3418919,4.68823529 L11.3418919,4.68823529 L11.3418919,4.68823529 L14.2791892,4.68529412 L15.5605405,3.27352941 L14.2227027,1.84705882 L11.3418919,1.84705882 L11.3418919,2.81176471 L13.9135135,2.81176471 L13.9135135,3.80294118 L11.3418919,3.80294118 L11.3418919,4.68823529 L11.3418919,4.68823529 Z M43.2210811,3.95882353 C43.6224324,3.55 43.8067568,3.04411765 43.8067568,2.36764706 C43.8067568,0.905882353 42.8167568,0.0352941176 41.1548649,0.0352941176 L38.8716216,0.0352941176 C38.5356757,0.0352941176 38.2502703,0.238235294 38.1283784,0.523529412 C37.6854054,0.211764706 37.0937838,0.0352941176 36.3654054,0.0352941176 L34.0821622,0.0352941176 C33.9513514,0.0352941176 33.8383784,0.0705882353 33.7313514,0.123529412 C33.6243243,0.0705882353 33.5054054,0.0352941176 33.3805405,0.0352941176 L29.4681081,0.0352941176 C29.3372973,0.0352941176 29.2213514,0.0735294118 29.1113514,0.126470588 C29.0043243,0.0705882353 28.8854054,0.0352941176 28.7516216,0.0352941176 L27.5743243,0.0352941176 C27.1283784,0.0352941176 26.7627027,0.394117647 26.7627027,0.835294118 L26.7627027,1.54117647 C26.7656757,1.60882353 26.7656757,1.71470588 26.7597297,1.8 C26.7062162,1.80294118 26.6289189,1.80588235 26.5218919,1.80588235 L26.0789189,1.80588235 L26.0789189,0.832352941 C26.0789189,0.391176471 25.7162162,0.0323529412 25.2672973,0.0323529412 L24.09,0.0323529412 C23.6410811,0.0323529412 23.2783784,0.391176471 23.2783784,0.832352941 L23.2783784,2.06764706 C22.8621622,1.82352941 22.2883784,1.66176471 21.4945946,1.66176471 L20.8435135,1.66176471 L20.8435135,0.832352941 C20.8435135,0.391176471 20.4808108,0.0323529412 20.0318919,0.0323529412 L17.7545946,0.0323529412 C17.5227027,0.0323529412 17.3027027,0.129411765 17.1481081,0.3 L16.2978378,1.24411765 L15.402973,0.285294118 C15.2483784,0.120588235 15.0343243,0.0264705882 14.8083784,0.0264705882 L10.1645946,0.0264705882 C9.71864865,0.0264705882 9.35594595,0.385294118 9.35594595,0.829411765 L9.35594595,5.68235294 C9.35594595,6.12647059 9.71864865,6.48529412 10.1645946,6.48529412 L14.8797297,6.48529412 C15.1116216,6.48529412 15.3286486,6.39117647 15.4832432,6.21764706 L16.3364865,5.28235294 L17.2254054,6.23529412 C17.38,6.4 17.5940541,6.49117647 17.82,6.49117647 L21.5659459,6.49117647 C22.3864865,6.49117647 22.9632432,6.31176471 23.3735135,6.04705882 C23.5072973,6.30882353 23.7748649,6.49117647 24.09,6.49117647 L26.7983784,6.49117647 C27.4197297,6.49117647 28.0232432,6.46764706 28.5910811,6.16764706 C28.6505405,6.13235294 28.6921622,6.08823529 28.7456757,6.05 C28.8794595,6.30882353 29.147027,6.49117647 29.4621622,6.49117647 L33.3745946,6.49117647 C33.6778378,6.49117647 33.9305405,6.32058824 34.0732432,6.07352941 C34.4597297,6.33529412 34.9710811,6.49117647 35.6162162,6.49117647 L37.9648649,6.49117647 C38.3186486,6.49117647 38.607027,6.26764706 38.72,5.95588235 C39.1213514,6.27647059 39.6743243,6.49117647 40.4056757,6.49117647 L42.7543243,6.49117647 C43.2032432,6.49117647 43.5659459,6.13235294 43.5659459,5.68823529 L43.5659459,4.65588235 C43.5659459,4.37352941 43.4172973,4.12647059 43.1972973,3.98235294 C43.2062162,3.97647059 43.2151351,3.96764706 43.2210811,3.95882353 L43.2210811,3.95882353 Z M23.542973,4.09117647 C23.542973,5.43529412 22.4964865,5.69117647 21.5659459,5.69117647 L17.82,5.69117647 L16.3275676,4.1 L14.8827027,5.69117647 L10.1675676,5.69117647 L10.1675676,0.838235294 L14.8113514,0.838235294 L16.3127027,2.44411765 L17.7575676,0.838235294 L20.0348649,0.838235294 L20.0348649,2.46764706 L21.4975676,2.46764706 C22.5262162,2.46470588 23.542973,2.74411765 23.542973,4.09117647 L23.542973,4.09117647 Z M27.9845946,3.09117647 C28.2908108,3.21470588 28.8140541,3.60882353 28.8140541,4.38529412 C28.8140541,4.93823529 28.5821622,5.24117647 28.2105405,5.46176471 C27.8240541,5.66470588 27.392973,5.68823529 26.8013514,5.68823529 L24.092973,5.68823529 L24.092973,0.835294118 L25.2702703,0.835294118 L25.2702703,2.60588235 L26.5218919,2.60588235 C26.952973,2.60588235 27.2116216,2.56470588 27.3810811,2.39117647 C27.6010811,2.16470588 27.5713514,1.73235294 27.5713514,1.44117647 L27.5713514,0.832352941 L28.7486486,0.832352941 L28.7486486,1.79411765 C28.7427027,2.22058824 28.7218919,2.44117647 28.5554054,2.67941176 C28.4572973,2.82647059 28.2432432,2.99705882 27.9845946,3.09117647 L27.9845946,3.09117647 Z M33.3775676,5.68823529 L29.4651351,5.68823529 L29.4651351,0.835294118 L33.3775676,0.835294118 L33.3775676,1.84117647 L30.6305405,1.84705882 L30.6305405,2.81176471 L33.3091892,2.81176471 L33.3091892,3.80294118 L30.6305405,3.80294118 L30.6305405,4.68529412 L33.3775676,4.68529412 L33.3775676,5.68823529 L33.3775676,5.68823529 Z M38.2027027,2.37058824 C38.2027027,2.86764706 38.0808108,3.16470588 37.8518919,3.4 C37.5872973,3.66470588 37.1502703,3.77352941 36.5140541,3.79117647 L35.8837838,3.80882353 C35.6845946,3.80882353 35.5508108,3.82058824 35.4259459,3.86470588 C35.2802703,3.92058824 35.1702703,4.04411765 35.1702703,4.22647059 C35.1702703,4.37941176 35.2178378,4.49705882 35.3486486,4.57647059 C35.4645946,4.65588235 35.6043243,4.66470588 35.8183784,4.66470588 L37.9678378,4.66470588 L37.9678378,5.69705882 L35.6191892,5.69705882 C34.3883784,5.69705882 33.9424324,4.95882353 33.9424324,4.25294118 C33.9424324,2.71764706 35.3159459,2.78823529 36.41,2.75294118 C36.6151351,2.75294118 36.737027,2.72058824 36.8291892,2.64411765 C36.9124324,2.57647059 36.9718919,2.46470588 36.9718919,2.32352941 C36.9718919,2.19117647 36.9154054,2.07941176 36.8351351,2.00588235 C36.737027,1.91176471 36.5794595,1.88529412 36.3564865,1.88529412 L34.0821622,1.88529412 L34.0821622,0.841176471 L36.3654054,0.841176471 C37.5456757,0.835294118 38.2027027,1.32352941 38.2027027,2.37058824 Z M42.9951351,2.37058824 C42.9951351,2.86764706 42.8702703,3.16470588 42.6443243,3.4 C42.3797297,3.66470588 41.9427027,3.77352941 41.3064865,3.79117647 L40.6762162,3.80882353 C40.477027,3.80882353 40.3462162,3.82058824 40.2183784,3.86470588 C40.0727027,3.92058824 39.9627027,4.04411765 39.9627027,4.22647059 C39.9627027,4.37941176 40.0102703,4.49705882 40.1381081,4.57647059 C40.2540541,4.65588235 40.3937838,4.66470588 40.6078378,4.66470588 L42.7572973,4.66470588 L42.7572973,5.69705882 L40.4086486,5.69705882 C39.1778378,5.69705882 38.7318919,4.95882353 38.7318919,4.25294118 C38.7318919,2.71764706 40.1054054,2.78823529 41.1994595,2.75294118 C41.4045946,2.75294118 41.5264865,2.72058824 41.6186486,2.64411765 C41.7018919,2.57647059 41.7613514,2.46470588 41.7613514,2.32352941 C41.7613514,2.19117647 41.7048649,2.07941176 41.6245946,2.00588235 C41.5264865,1.91176471 41.3689189,1.88529412 41.1489189,1.88529412 L38.8745946,1.88529412 L38.8745946,0.841176471 L41.1578378,0.841176471 C42.3351351,0.835294118 42.9951351,1.32352941 42.9951351,2.37058824 L42.9951351,2.37058824 Z M21.5689189,4.68823529 C21.9940541,4.68823529 22.2854054,4.51764706 22.2854054,4.09117647 C22.2854054,3.67352941 22.0059459,3.45294118 21.5540541,3.45294118 L20.0378378,3.45294118 L20.0378378,4.68823529 C20.0378378,4.68823529 21.5689189,4.68823529 21.5689189,4.68823529 Z M22.2556757,12.0529412 C22.0921622,11.9558824 21.9018919,11.9529412 21.6759459,11.9529412 L20.2518919,11.9529412 L20.2518919,13.0294118 L21.6967568,13.0294118 C21.8989189,13.0294118 22.112973,13.0205882 22.2527027,12.9411765 C22.4043243,12.8705882 22.4994595,12.7205882 22.4994595,12.5117647 C22.4994595,12.3029412 22.4072973,12.1323529 22.2556757,12.0529412 Z M27.277027,4.59705882 C27.4286486,4.52058824 27.5178378,4.37058824 27.5208108,4.15882353 C27.5208108,3.95 27.4316216,3.78529412 27.28,3.69117647 C27.1224324,3.6 26.9262162,3.59117647 26.6972973,3.59117647 L25.2732432,3.59117647 L25.2732432,4.67941176 L26.7181081,4.67941176 C26.9232432,4.68529412 27.1343243,4.68235294 27.277027,4.59705882 Z M31.6056757,13.2176471 L32.4202703,11.2823529 L30.8,11.2823529 L31.6056757,13.2176471 Z M2.97891892,11.2852941 L3.77567568,13.2205882 L4.57837838,11.2852941 C4.57837838,11.2852941 2.97891892,11.2852941 2.97891892,11.2852941 Z M9.54027027,8.38823529 C9.21918919,8.38823529 8.93081081,8.57647059 8.8,8.86470588 L8.64540541,9.20882353 L8.64540541,9.19117647 C8.64540541,8.75 8.2827027,8.39117647 7.83675676,8.39117647 L5.45243243,8.39117647 C5.12243243,8.39117647 4.82810811,8.58823529 4.70324324,8.88823529 L4.45945946,9.47058824 L3.10081081,9.47058824 L2.85405405,8.88235294 C2.72918919,8.58529412 2.43486486,8.38823529 2.10783784,8.38823529 L0.832432432,8.38823529 C0.558918919,8.38823529 0.306216216,8.52352941 0.154594595,8.74705882 C0.00594594595,8.97352941 -0.0208108108,9.25588235 0.0862162162,9.50294118 L2.18513514,14.3558824 C2.31297297,14.65 2.60432432,14.8411765 2.93135135,14.8411765 L4.67054054,14.8411765 C4.99459459,14.8411765 5.28891892,14.65 5.41675676,14.3558824 L5.85675676,13.3411765 L5.85675676,14.0382353 C5.85675676,14.4794118 6.21945946,14.8382353 6.66540541,14.8382353 L8.58,14.8382353 C8.89513514,14.8382353 9.18351351,14.6558824 9.3172973,14.3735294 L10.0843243,12.7264706 L10.78,14.35 C10.9078378,14.6470588 11.1991892,14.8382353 11.5232432,14.8382353 L13.4764865,14.8382353 C13.64,14.8382353 13.7856757,14.7764706 13.9135135,14.6941176 C14.0413514,14.7764706 14.1840541,14.8382353 14.3505405,14.8382353 L18.2659459,14.8382353 C18.4175676,14.8382353 18.5513514,14.7852941 18.6732432,14.7147059 C18.7951351,14.7852941 18.9289189,14.8382353 19.0805405,14.8382353 L21.777027,14.8382353 C22.4756757,14.8382353 23.0524324,14.8147059 23.6024324,14.5 C23.6589189,14.4676471 23.6975676,14.4235294 23.7481081,14.3882353 C23.8818919,14.6529412 24.1494595,14.8382353 24.4705405,14.8382353 L25.6686486,14.8382353 C26.072973,14.8382353 26.3940541,14.5411765 26.4535135,14.1558824 C26.9767568,14.6058824 27.6902703,14.8382353 28.6535135,14.8382353 L29.7862162,14.8382353 C29.9675676,14.8382353 30.137027,14.7794118 30.2708108,14.6794118 C30.4075676,14.7794118 30.577027,14.8382353 30.7554054,14.8382353 L32.5124324,14.8382353 C32.8364865,14.8382353 33.1278378,14.6470588 33.2556757,14.3529412 L33.6867568,13.3558824 L33.6867568,14.0382353 C33.6867568,14.4794118 34.0494595,14.8382353 34.4954054,14.8382353 L36.2821622,14.8382353 C36.5645946,14.8382353 36.8262162,14.6911765 36.9748649,14.45 L37.5308108,13.5352941 L37.5308108,14.0352941 C37.5308108,14.4764706 37.8935135,14.8352941 38.3424324,14.8352941 L39.5435135,14.8352941 C39.9894595,14.8352941 40.3521622,14.4764706 40.3521622,14.0352941 L40.3521622,9.18235294 C40.3521622,8.74117647 39.9894595,8.38235294 39.5435135,8.38235294 L37.8845946,8.38235294 C37.5991892,8.38235294 37.3375676,8.52941176 37.1889189,8.77058824 L36.4694595,9.95 L36.4694595,9.18529412 C36.4694595,8.74411765 36.1067568,8.38529412 35.6608108,8.38529412 L33.2764865,8.38529412 C32.9494595,8.38529412 32.6551351,8.57941176 32.5302703,8.87941176 L32.2835135,9.46764706 L30.9337838,9.46764706 L30.6959459,8.88529412 C30.5740541,8.58235294 30.2767568,8.38235294 29.9497297,8.38235294 L28.5762162,8.38235294 C28.0559459,8.38235294 27.1194595,8.47647059 26.4535135,9.02941176 C26.3762162,8.66470588 26.067027,8.38235294 25.6745946,8.38235294 L24.4675676,8.38235294 C24.3337838,8.38235294 24.2148649,8.42352941 24.1018919,8.47941176 C23.9918919,8.42352941 23.872973,8.38235294 23.7391892,8.38235294 L22.5559459,8.38235294 C22.112973,8.38235294 21.7502703,8.73823529 21.7443243,9.17647059 L21.7383784,9.78823529 L21.7413514,9.89411765 C21.7413514,9.95882353 21.7443243,10.0558824 21.7383784,10.1382353 C21.6848649,10.1411765 21.6135135,10.1441176 21.5094595,10.1441176 L21.0605405,10.1441176 L21.0605405,9.17941176 C21.0605405,8.73823529 20.6978378,8.37941176 20.2518919,8.37941176 L19.0775676,8.37941176 C18.9259459,8.37941176 18.7921622,8.43235294 18.6702703,8.50294118 C18.5513514,8.43235294 18.4175676,8.37941176 18.262973,8.37941176 L14.3475676,8.37941176 C14.1810811,8.37941176 14.0383784,8.44117647 13.9105405,8.52352941 C13.7827027,8.44117647 13.637027,8.37941176 13.4735135,8.37941176 L12.2724324,8.37941176 C11.8235135,8.37941176 11.4637838,8.73823529 11.4637838,9.17941176 L11.4637838,9.2 L11.3091892,8.85588235 C11.1783784,8.56470588 10.89,8.37941176 10.5689189,8.37941176 L9.54027027,8.38823529 L9.54027027,8.38823529 L9.54027027,8.38823529 Z M26.2394595,11.5794118 C26.2394595,10.6970588 26.4535135,10.1382353 26.8697297,9.72647059 C27.277027,9.31470588 27.9964865,9.19117647 28.5672973,9.19117647 L29.9408108,9.19117647 L30.3808108,10.2735294 L32.8186486,10.2735294 L33.2764865,9.19117647 L35.6608108,9.19117647 L35.6608108,12.8323529 L37.8845946,9.19117647 L39.5464865,9.19117647 L39.5464865,14.0441176 L38.3454054,14.0441176 L38.3454054,10.6647059 L36.2851351,14.0441176 L34.4983784,14.0441176 L34.4983784,9.45294118 L32.5154054,14.0441176 L30.7583784,14.0441176 L29.1024324,10.2294118 L28.5762162,10.2294118 C28.27,10.2294118 27.94,10.2882353 27.7586486,10.4794118 C27.5386486,10.7235294 27.4345946,11.1 27.4345946,11.6176471 C27.4345946,12.1264706 27.5713514,12.5117647 27.7705405,12.7176471 C28.0024324,12.9441176 28.2462162,13.0058824 28.6713514,13.0058824 L29.7832432,13.0058824 L29.7832432,14.0470588 L28.6505405,14.0470588 C27.8418919,14.0470588 27.2472973,13.8676471 26.8697297,13.4823529 C26.3672973,12.9588235 26.2394595,12.3 26.2394595,11.5794118 L26.2394595,11.5794118 Z M28.6772973,12.2029412 C28.4008108,12.2029412 28.3740541,12.1735294 28.3413514,12.1411765 C28.3294595,12.1264706 28.2491892,11.95 28.2491892,11.6147059 C28.2491892,11.2823529 28.3027027,11.1205882 28.3413514,11.05 C28.382973,11.0382353 28.4602703,11.0264706 28.5702703,11.0264706 L29.0786486,12.2 L28.6772973,12.2029412 C28.6772973,12.2029412 28.6772973,12.2029412 28.6772973,12.2029412 Z M24.4705405,9.19117647 L25.6686486,9.19117647 L25.6686486,14.0441176 L24.4705405,14.0441176 L24.4705405,9.19117647 Z M19.0805405,9.19117647 L20.2548649,9.19117647 L20.2548649,10.9558824 L21.5124324,10.9558824 C21.9345946,10.9558824 22.1962162,10.9176471 22.3656757,10.75 C22.5797297,10.5147059 22.55,10.0970588 22.55,9.80588235 L22.5559459,9.19411765 L23.7391892,9.19411765 L23.7391892,10.1470588 C23.7391892,10.5794118 23.7094595,10.7941176 23.5459459,11.0382353 C23.4418919,11.1794118 23.2218919,11.35 22.9662162,11.4470588 C23.2694595,11.5676471 23.7927027,11.9676471 23.7927027,12.7411765 C23.7927027,13.2823529 23.5697297,13.6 23.1981081,13.8176471 C22.8205405,14.0352941 22.3775676,14.05 21.78,14.05 L19.0835135,14.05 L19.0805405,9.19117647 L19.0805405,9.19117647 L19.0805405,9.19117647 Z M14.3505405,9.19117647 L18.2659459,9.19117647 L18.2659459,10.1941176 L15.5218919,10.1941176 L15.5218919,11.1647059 L18.2005405,11.1647059 L18.2005405,12.1588235 L15.5218919,12.1588235 L15.5218919,13.0323529 L18.2659459,13.0323529 L18.2659459,14.0441176 L14.3505405,14.0441176 C14.3505405,14.0441176 14.3505405,9.19117647 14.3505405,9.19117647 Z M9.54027027,9.19117647 L10.5689189,9.19117647 L12.2694595,12.9911765 L12.2754054,9.19117647 L13.4764865,9.19117647 L13.4764865,14.0441176 L11.5232432,14.0441176 L10.1140541,10.7529412 L8.58,14.0441176 L6.66540541,14.0441176 L6.66540541,9.44705882 L4.67054054,14.0411765 L2.93135135,14.0411765 L0.832432432,9.18823529 L2.10783784,9.18823529 L2.5627027,10.2705882 L5.00351351,10.2705882 L5.45540541,9.18823529 L7.8427027,9.18823529 L7.8427027,12.9911765 L9.54027027,9.19117647 Z" transform="matrix(1 0 0 -1 9.1 35)"/>
      <rect width="35" height="15" x="9.1" y="55" fill="#B6E6F3"/>
      <rect width="35" height="15" x="49.1" y="55" fill="#B6E6F3"/>
      <rect width="35" height="15" x="89.1" y="55" fill="#B6E6F3"/>
      <g transform="translate(98.1)">
        <circle cx="37" cy="37" r="37" fill="#00B5DD" stroke="#FFF"/>
        <path fill="#FFF" fill-rule="nonzero" d="M20.364,37 L20.364,35.308 L22.92,35.308 L22.92,27.784 L20.814,27.784 L20.814,26.488 C21.3900029,26.3799995 21.8849979,26.2510007 22.299,26.101 C22.7130021,25.9509992 23.0999982,25.7680011 23.46,25.552 L25.008,25.552 L25.008,35.308 L27.258,35.308 L27.258,37 L20.364,37 Z M28.95,37 L28.95,35.794 C29.742004,35.0259962 30.4589968,34.3180032 31.101,33.67 C31.7430032,33.0219968 32.2889978,32.4220028 32.739,31.87 C33.1890023,31.3179972 33.5339988,30.8020024 33.774,30.322 C34.0140012,29.8419976 34.134,29.3860022 34.134,28.954 C34.134,28.3419969 33.9720016,27.8590018 33.648,27.505 C33.3239984,27.1509982 32.8560031,26.974 32.244,26.974 C31.7999978,26.974 31.3950018,27.0999987 31.029,27.352 C30.6629982,27.6040013 30.3240016,27.9039983 30.012,28.252 L28.86,27.1 C29.3880026,26.5359972 29.9309972,26.1010015 30.489,25.795 C31.0470028,25.4889985 31.721996,25.336 32.514,25.336 C33.0660028,25.336 33.5639978,25.4199992 34.008,25.588 C34.4520022,25.7560008 34.8299984,25.9929985 35.142,26.299 C35.4540016,26.6050015 35.6969991,26.9739978 35.871,27.406 C36.0450009,27.8380022 36.132,28.3179974 36.132,28.846 C36.132,29.3500025 36.0210011,29.8629974 35.799,30.385 C35.5769989,30.9070026 35.2770019,31.4349973 34.899,31.969 C34.5209981,32.5030027 34.0800025,33.0519972 33.576,33.616 C33.0719975,34.1800028 32.5380028,34.761997 31.974,35.362 C32.2740015,35.3379999 32.5979983,35.3110001 32.946,35.281 C33.2940017,35.2509998 33.6059986,35.236 33.882,35.236 L36.69,35.236 L36.69,37 L28.95,37 Z M41.82,37.216 C40.8839953,37.216 40.1040031,37.0600016 39.48,36.748 C38.8559969,36.4359984 38.340002,36.0520023 37.932,35.596 L38.922,34.264 C39.2700017,34.6120017 39.6659978,34.9089988 40.11,35.155 C40.5540022,35.4010012 41.0639971,35.524 41.64,35.524 C42.2640031,35.524 42.7709981,35.3710015 43.161,35.065 C43.5510019,34.7589985 43.746,34.336 43.746,33.796 C43.746,33.4959985 43.6920005,33.2260012 43.584,32.986 C43.4759995,32.7459988 43.2930013,32.5420008 43.035,32.374 C42.7769987,32.2059992 42.432,32.0770004 42,31.987 C41.5679978,31.8969996 41.0280032,31.852 40.38,31.852 L40.38,30.34 C40.9440028,30.34 41.4149981,30.2950004 41.793,30.205 C42.1710019,30.1149996 42.4769988,29.9890008 42.711,29.827 C42.9450012,29.6649992 43.1129995,29.4700011 43.215,29.242 C43.3170005,29.0139989 43.368,28.7680013 43.368,28.504 C43.368,28.0239976 43.2180015,27.6490013 42.918,27.379 C42.6179985,27.1089986 42.2040026,26.974 41.676,26.974 C41.2199977,26.974 40.8090018,27.072999 40.443,27.271 C40.0769982,27.469001 39.7200017,27.7299984 39.372,28.054 L38.31,26.776 C38.8020025,26.3439978 39.3269972,25.9960013 39.885,25.732 C40.4430028,25.4679987 41.0639966,25.336 41.748,25.336 C42.3000028,25.336 42.8039977,25.4019993 43.26,25.534 C43.7160023,25.6660007 44.1059984,25.8609987 44.43,26.119 C44.7540016,26.3770013 45.0059991,26.6949981 45.186,27.073 C45.3660009,27.4510019 45.456,27.8799976 45.456,28.36 C45.456,29.0080032 45.2790018,29.5479978 44.925,29.98 C44.5709982,30.4120022 44.0820031,30.7479988 43.458,30.988 L43.458,31.06 C44.1420034,31.2400009 44.7089978,31.5699976 45.159,32.05 C45.6090023,32.5300024 45.834,33.1479962 45.834,33.904 C45.834,34.4320026 45.7290011,34.899998 45.519,35.308 C45.308999,35.716002 45.0210018,36.0609986 44.655,36.343 C44.2889982,36.6250014 43.8630024,36.8409992 43.377,36.991 C42.8909976,37.1410008 42.3720028,37.216 41.82,37.216 Z M52.116,37 L52.116,34.048 L47.058,34.048 L47.058,32.644 L51.594,25.552 L54.06,25.552 L54.06,32.446 L55.5,32.446 L55.5,34.048 L54.06,34.048 L54.06,37 L52.116,37 Z M49.11,32.446 L52.116,32.446 L52.116,29.854 C52.116,29.5179983 52.1249999,29.1220023 52.143,28.666 C52.1610001,28.2099977 52.1819999,27.8140017 52.206,27.478 L52.134,27.478 C51.9899993,27.7780015 51.8400008,28.0719986 51.684,28.36 C51.5279992,28.6480014 51.3660008,28.9479984 51.198,29.26 L49.11,32.446 Z"/>
        <polygon fill="#B6E6F3" points="1.907 49 41 49 41 74 33.752 74 25.116 72.159 15.5 67.465 6.744 58.827"/>
        <circle cx="37" cy="37" r="37" stroke="#FFF"/>
      </g>
    </g>
  </g>
</svg>
