<svg xmlns="http://www.w3.org/2000/svg" width="256" height="256" viewBox="0 0 256 256">
  <g fill="#CC1F2D" transform="translate(83 22)">
    <polygon points="0 .321 0 22.847 9.253 36.485 78.862 36.485 89.409 22.204 89.409 0 68.977 0 68.977 13.331 53.648 13.331 53.648 .643 34.481 .643 34.481 13.96 19.477 13.96 19.477 .321"/>
    <polygon points="78.159 145.325 78.159 145.325 78.159 42.186 47.728 42.186 47.728 147.84 48.052 147.84 78.159 169.429"/>
    <polygon points="76.753 178.078 40.219 152.074 40.219 42.186 9.787 42.186 9.787 162.708 10.209 162.708 76.922 210.679"/>
  </g>
</svg>
