<svg xmlns="http://www.w3.org/2000/svg" width="24" height="24" viewBox="0 0 24 24">
  <path d="M7.4943609,19.5 C6.2537594,19.5 5.25,20.5125 5.25,21.75 C5.25,22.9875 6.2537594,24 7.4943609,24 C8.73496241,24 9.75,22.9875 9.75,21.75 C9.75,20.5125 8.73496241,19.5 7.4943609,19.5 Z M19.4943609,19.5 C18.2537594,19.5 17.25,20.5125 17.25,21.75 C17.25,22.9875 18.2537594,24 19.4943609,24 C20.7349624,24 21.75,22.9875 21.75,21.75 C21.75,20.5125 20.7349624,19.5 19.4943609,19.5 Z M8.45238095,13.2 L17.3214286,13.2 C18.2142857,13.2 19,12.708 19.4047619,11.964 L24,3.552 L21.9285714,2.4 L17.3214286,10.8 L8.96428571,10.8 L3.89285714,0 L0,0 L0,2.4 L2.38095238,2.4 L6.66666667,11.508 L5.05952381,14.436 C4.19047619,16.044 5.33333333,18 7.14285714,18 L21.4285714,18 L21.4285714,15.6 L7.14285714,15.6 L8.45238095,13.2 Z"/>
</svg>
