<svg xmlns="http://www.w3.org/2000/svg" viewBox="0 0 297 154">
  <g fill="none">
    <polygon fill="#E5303C" points="100.17 66.53 100.17 77.09 66.61 77.09 66.61 30 77.91 30 77.91 66.53"/>
    <polygon fill="#E5303C" points="140.31 66.53 140.31 77.09 106.76 77.09 106.76 30 118.05 30 118.05 66.53"/>
    <path fill="#E5303C" d="M180,71 L158.33,71 L155.58,77.06 L143,77.06 L165.19,30 L173.13,30 L195.32,77.08 L182.75,77.08 L180,71 Z M175.22,60.44 L169.84,48.54 L169.17,46.66 L168.5,48.54 L163.12,60.44 L175.22,60.44 Z"/>
    <polygon fill="#E5303C" points="241.46 30 241.46 77.09 230.83 77.09 211.33 51.93 210.39 50.19 210.52 51.93 210.52 77.09 199.22 77.09 199.22 30 209.85 30 229.35 54.82 230.29 56.56 230.16 54.82 230.16 30"/>
    <path fill="#E5303C" d="M271.78,29.07 C278.307066,28.9550311 284.600672,31.4972308 289.216721,36.1132793 C293.832769,40.7293277 296.374969,47.0229341 296.26,53.55 C296.439032,62.4012134 291.819394,70.6577753 284.182465,75.1358718 C276.545536,79.6139683 267.084464,79.6139683 259.447535,75.1358718 C251.810606,70.6577753 247.190968,62.4012134 247.37,53.55 C247.238605,47.0303049 249.765834,40.7378208 254.370284,36.1201667 C258.974734,31.5025126 265.259955,28.9572754 271.78,29.07 Z M271.78,66.86 C279.45,66.86 284.49,61.42 284.49,53.55 C284.49,45.68 279.49,40.23 271.78,40.23 C264.07,40.23 259.14,45.61 259.14,53.55 C259.14,61.49 264.18,66.86 271.78,66.86 Z"/>
    <polygon fill="#E5303C" points="164.62 87 164.62 94.43 154.54 94.43 154.54 120.1 146.59 120.1 146.59 94.41 136.65 94.41 136.65 87"/>
    <path fill="#E5303C" d="M183.45 86.32C190.418457 86.3038131 196.70976 90.4890529 199.387696 96.9224277 202.065633 103.355803 200.602253 110.768983 195.680529 115.702166 190.758806 120.635348 183.349049 122.115965 176.909463 119.452997 170.469878 116.790028 166.270019 110.508476 166.27 103.54 166.188146 98.9553345 167.970561 94.5337665 171.209153 91.2876339 174.447746 88.0415012 178.865157 86.2488082 183.45 86.32zM183.45 112.91C188.84 112.91 192.39 109.07 192.39 103.54 192.39 98.01 188.84 94.17 183.45 94.17 178.06 94.17 174.55 97.96 174.55 103.54 174.55 109.12 178.1 112.91 183.45 112.91zM224.47 120.1L217.9 109.31 214 109.31 214 120.1 206 120.1 206 87 218.35 87C226.68 87 231.69 91.35 231.69 98.17 231.869135 102.339772 229.465059 106.190266 225.64 107.86L233.26 120.12 224.47 120.1zM214 101.88L219.49 101.88C220.870499 101.951456 222.177839 101.255609 222.889546 100.070553 223.601253 98.8854966 223.601253 97.4045034 222.889546 96.2194473 222.177839 95.0343911 220.870499 94.3385444 219.49 94.41L214 94.41 214 101.88zM256.84 120.1L250.26 109.31 246.34 109.31 246.34 120.1 238.34 120.1 238.34 87 250.69 87C259.01 87 264.03 91.35 264.03 98.17 264.204598 102.341436 261.797044 106.191139 257.97 107.86L265.59 120.12 256.84 120.1zM246.34 101.88L251.83 101.88C253.210499 101.951456 254.517839 101.255609 255.229546 100.070553 255.941253 98.8854966 255.941253 97.4045034 255.229546 96.2194473 254.517839 95.0343911 253.210499 94.3385444 251.83 94.41L246.34 94.41 246.34 101.88z"/>
    <polygon fill="#E5303C" points="295.12 112.67 295.12 120.1 270.75 120.1 270.75 87 294.84 87 294.84 94.43 278.7 94.43 278.7 99.87 291.33 99.87 291.33 107 278.7 107 278.7 112.68"/>
    <path fill="#E5303C" d="M74.13,104 C76.2897926,103.92004 78.3874208,104.731814 79.9307266,106.244859 C81.4740325,107.757904 82.3271805,109.839048 82.29,112 C82.3164177,114.109955 81.4746579,116.138066 79.9619227,117.609201 C78.4491875,119.080336 76.398398,119.865229 74.29,119.78 L67.56,119.78 L67.56,104 L74.13,104 Z M74.33,118.5 C76.0842448,118.569466 77.7891783,117.910705 79.0409609,116.679754 C80.2927435,115.448803 80.9800206,113.755163 80.94,112 C80.9975439,110.184901 80.2954687,108.428044 79.0028415,107.1525 C77.7102144,105.876956 75.9441733,105.198315 74.13,105.28 L68.89,105.28 L68.89,118.54 L74.33,118.5 Z"/>
    <polygon fill="#E5303C" points="95.78 118.51 95.78 119.75 85.39 119.75 85.39 104 95.64 104 95.64 105.24 86.72 105.24 86.72 110.72 93.93 110.72 93.93 112 86.72 112 86.72 118.56"/>
    <polygon fill="#E5303C" points="118.12 118.51 118.12 119.75 108.12 119.75 108.12 104 109.45 104 109.45 118.5"/>
    <path fill="#E5303C" d="M132.35,115.29 L123,115.29 L120.73,119.75 L119.29,119.75 L127.29,104 L128,104 L136.05,119.74 L134.61,119.74 L132.35,115.29 Z M131.72,114.06 L127.81,106.35 L127.65,105.95 L127.49,106.35 L123.58,114.06 L131.72,114.06 Z"/>
    <polygon fill="#E5303C" points="0 .23 0 16.35 6.58 26.11 56.08 26.11 63.58 15.89 63.58 0 49.05 0 49.05 9.54 38.15 9.54 38.15 .46 24.52 .46 24.52 9.99 13.85 9.99 13.85 .23"/>
    <polygon fill="#FFF" points="81 149.28 81 136.28 82 136.28 82 149.28"/>
    <path fill="#FFF" d="M93.07 149.28L93.07 149.07C93.07 148.95 93.07 148.79 93.07 148.59 93.07 148.39 93.07 148.22 93.07 148.07L92.97 148.14C92.7088627 148.362239 92.4276559 148.559753 92.13 148.73 90.5087913 149.616667 88.5765809 149.733993 86.86 149.05 86.2261793 148.782993 85.6542591 148.388096 85.18 147.89 84.7332664 147.421102 84.3922682 146.861865 84.18 146.25 83.7002258 144.977039 83.7002258 143.572961 84.18 142.3 84.4203718 141.688655 84.7846804 141.13368 85.25 140.67 85.7499929 140.187391 86.346365 139.815936 87 139.58 87.6983375 139.311128 88.4417752 139.178735 89.19 139.19 89.868542 139.191155 90.5429473 139.295688 91.19 139.5 91.8607322 139.707609 92.4830064 140.047649 93.02 140.5L93.02 136 94 136 94 149.3 93.07 149.28zM93.07 141.68C92.5532744 141.12443 91.9220629 140.6877 91.22 140.4 90.5796591 140.163438 89.9026388 140.041574 89.22 140.04 88.5773049 140.031442 87.938988 140.146883 87.34 140.38 86.2988149 140.783811 85.4799858 141.613558 85.09 142.66 84.8950996 143.198538 84.7969227 143.767287 84.7999298 144.34 84.8004257 144.892872 84.8986036 145.441314 85.09 145.96 85.2764066 146.467839 85.5619444 146.933537 85.93 147.33 86.3177819 147.740531 86.7880967 148.064298 87.31 148.28 87.9168684 148.523174 88.5663378 148.642186 89.22 148.63L89.22 148.63C89.7027622 148.637593 90.184179 148.576995 90.65 148.45 91.0262175 148.333336 91.3910519 148.182716 91.74 148 91.9 147.91 92.05 147.81 92.18 147.72L92.54 147.44 92.81 147.2 93.05 147 93.07 141.68zM97.31 144.57C97.3232398 145.233623 97.4837754 145.886012 97.78 146.48 98.0208941 146.965728 98.3616645 147.395099 98.78 147.74 99.1945673 148.049115 99.6623016 148.279593 100.16 148.42 100.63469 148.556823 101.125991 148.62749 101.62 148.63 102.136063 148.629748 102.651198 148.586263 103.16 148.5 103.7 148.41 104.16 148.31 104.67 148.2 105.18 148.09 105.54 147.98 105.87 147.88L106.51 147.7 106.51 148.52C105.85 148.72 105.26 148.88 104.77 149.01 104.28 149.14 103.77 149.24 103.17 149.34 102.65516 149.433898 102.133299 149.484076 101.61 149.49 100.930136 149.485765 100.255187 149.374398 99.61 149.16 98.9447587 148.933111 98.3348274 148.568516 97.82 148.09 97.3539818 147.628731 96.9865486 147.077582 96.74 146.47 96.463427 145.749428 96.3309241 144.981591 96.35 144.21 96.3408295 143.48602 96.4803764 142.767864 96.76 142.1 97.0467578 141.479599 97.4707703 140.932486 98 140.5 98.4784723 140.070949 99.0307257 139.732144 99.63 139.5 100.302111 139.253631 101.014316 139.13493 101.73 139.15 102.41637 139.141337 103.097172 139.274093 103.73 139.54 104.35985 139.808214 104.925637 140.206992 105.39 140.71 105.824456 141.161599 106.164428 141.695354 106.39 142.28 106.656023 142.999454 106.781624 143.763244 106.76 144.53L97.31 144.57zM105.31 142.31C105.102067 141.875947 104.817507 141.482983 104.47 141.15 104.115791 140.808285 103.702401 140.533821 103.25 140.34 102.762452 140.136173 102.238407 140.034086 101.71 140.04 101.119793 140.032781 100.533316 140.134482 99.98 140.34 99.4839881 140.51727 99.0234769 140.781387 98.62 141.12 98.242998 141.446667 97.9338148 141.844188 97.71 142.29 97.4899088 142.726147 97.3606324 143.202428 97.33 143.69L105.72 143.69C105.663384 143.209912 105.5247 142.743121 105.31 142.31zM117 149.28L117 142.45C117.00153 142.133369 116.964592 141.817724 116.89 141.51 116.815683 141.215347 116.663744 140.946001 116.45 140.73 116.222196 140.522774 115.957649 140.359976 115.67 140.25 115.248434 140.092571 114.799608 140.021167 114.35 140.04 113.593357 140.057087 112.845489 140.205984 112.14 140.48 111.97 140.55 111.77 140.64 111.56 140.75 111.33186 140.854434 111.11132 140.974728 110.9 141.11 110.68 141.24 110.47 141.38 110.27 141.52L109.74 141.9 109.74 149.28 108.83 149.28 108.83 139.4 109.74 139.4C109.74 139.4 109.74 139.51 109.74 139.67 109.74 139.83 109.74 140.03 109.74 140.27 109.74 140.51 109.74 140.72 109.74 140.89 110.423736 140.408083 111.158096 140.00234 111.93 139.68 112.343189 139.511711 112.771916 139.384432 113.21 139.3 113.612854 139.229124 114.020965 139.192327 114.43 139.19 115.427765 139.112775 116.412818 139.453198 117.15 140.13 117.419946 140.416034 117.62465 140.757208 117.75 141.13 117.901424 141.556589 117.972622 142.00751 117.96 142.46L117.96 149.31 117 149.28zM129.41 149.11C128.681693 149.369657 127.913164 149.49831 127.14 149.49 126.651034 149.486184 126.163027 149.446074 125.68 149.37 125.158552 149.28355 124.655053 149.111212 124.19 148.86 123.718345 148.590474 123.320032 148.20933 123.03 147.75 122.695339 147.171153 122.535564 146.507739 122.57 145.84L122.57 140.27 119.66 140.27 119.66 139.4 122.57 139.4 122.57 136.56 123.48 136.56 123.48 139.4 130 139.4 130 140.27 123.5 140.27 123.5 145.84C123.479138 146.33331 123.589563 146.823321 123.82 147.26 124.02361 147.610593 124.317022 147.900553 124.67 148.1 125.039933 148.306572 125.442358 148.448604 125.86 148.52 126.303136 148.591377 126.751156 148.628155 127.2 148.63 127.884747 148.642203 128.564938 148.516368 129.2 148.26 129.743542 148.047315 130.274416 147.80358 130.79 147.53L131.19 148.33C130.621169 148.642673 130.025451 148.903718 129.41 149.11L129.41 149.11zM132.94 137.94L132.94 135.94 133.85 135.94 133.85 137.94 132.94 137.94zM132.94 149.28L132.94 139.4 133.85 139.4 133.85 149.28 132.94 149.28zM146.32 137.14C146.125777 136.906827 145.900319 136.70156 145.65 136.53 145.417367 136.394982 145.173047 136.281189 144.92 136.19 144.593506 136.083796 144.259132 136.003546 143.92 135.95 143.536405 135.888669 143.148465 135.85857 142.76 135.86 142.31435 135.858896 141.869413 135.895695 141.43 135.97 141.038068 136.043234 140.662241 136.185438 140.32 136.39 139.996462 136.581967 139.72783 136.854043 139.54 137.18 139.327494 137.568607 139.223847 138.007379 139.24 138.45L139.24 139.45 144.91 139.45 144.91 140.32 139.24 140.32 139.24 153.71 138.33 153.71 138.33 140.27 136 140.27 136 139.4 138.3 139.4 138.3 138.4C138.289502 137.83792 138.416519 137.281789 138.67 136.78 138.926971 136.300962 139.315585 135.905409 139.79 135.64 140.186811 135.388585 140.628088 135.215469 141.09 135.13 141.629252 135.017387 142.17915 134.963738 142.73 134.97 143.161234 134.970177 143.592048 134.996894 144.02 135.05 144.423282 135.100401 144.819297 135.197727 145.2 135.34 145.455077 135.437985 145.702439 135.554981 145.94 135.69 146.252311 135.86951 146.549909 136.073481 146.83 136.3L146.32 137.14zM147.46 137.94L147.46 135.94 148.37 135.94 148.37 137.94 147.46 137.94zM147.46 149.28L147.46 139.4 148.37 139.4 148.37 149.28 147.46 149.28zM160.28 148C159.988674 148.315308 159.651568 148.584993 159.28 148.8 158.879199 149.043056 158.444428 149.225053 157.99 149.34 157.439518 149.46974 156.875554 149.533521 156.31 149.53 155.615569 149.532239 154.92467 149.431132 154.26 149.23 153.620459 149.039866 153.02544 148.723656 152.51 148.3 151.992603 147.860987 151.576401 147.315148 151.29 146.7 150.961419 145.971671 150.800791 145.178786 150.82 144.38 150.801101 143.58985 150.965391 142.806052 151.3 142.09 151.592755 141.467667 152.019631 140.91785 152.55 140.48 153.069239 140.051794 153.66709 139.72909 154.31 139.53 154.957919 139.330575 155.632084 139.22945 156.31 139.23 156.793749 139.222088 157.276835 139.269054 157.75 139.37 158.156649 139.453481 158.550191 139.591389 158.92 139.78 159.284123 139.953548 159.620999 140.179255 159.92 140.45 160.230712 140.73382 160.515198 141.04508 160.77 141.38L159.99 141.84C159.784971 141.571099 159.561073 141.317125 159.32 141.08 159.084255 140.859916 158.818224 140.674705 158.53 140.53 158.211008 140.380544 157.875293 140.269758 157.53 140.2 157.125561 140.11554 156.713137 140.075304 156.3 140.08 155.725869 140.079248 155.155318 140.170402 154.61 140.35 154.0744 140.515567 153.577791 140.787682 153.15 141.15 152.72253 141.518018 152.381147 141.975471 152.15 142.49 151.86876 143.079395 151.731658 143.727202 151.75 144.38 151.730663 145.04792 151.864051 145.711441 152.14 146.32 152.367721 146.833689 152.70975 147.288588 153.14 147.65 153.570649 148.001158 154.066991 148.262928 154.6 148.42 155.150744 148.588908 155.723945 148.673202 156.3 148.67 156.768334 148.67763 157.235648 148.623838 157.69 148.51 158.061856 148.41741 158.41873 148.27264 158.75 148.08 159.048603 147.905902 159.318459 147.686641 159.55 147.43 159.79272 147.179766 160.004259 146.901073 160.18 146.6L161.01 147.02C160.794407 147.366442 160.550223 147.694251 160.28 148zM170.79 149.28C170.512059 148.974598 170.309938 148.608039 170.2 148.21 169.915721 148.465167 169.595672 148.67741 169.25 148.84 168.92714 148.995402 168.592824 149.125785 168.25 149.23 167.92333 149.328642 167.588755 149.398903 167.25 149.44 166.94 149.44 166.68 149.49 166.45 149.49 165.774764 149.503585 165.101116 149.419379 164.45 149.24 163.970922 149.113887 163.522048 148.89285 163.13 148.59 162.816077 148.349139 162.568357 148.032608 162.41 147.67 162.270074 147.354883 162.195244 147.014747 162.19 146.67 162.165813 146.054567 162.356752 145.449927 162.73 144.96 163.142453 144.457956 163.675848 144.069094 164.28 143.83 165.080572 143.504624 165.916141 143.273081 166.77 143.14 167.77 142.97 168.88 142.84 170.13 142.73L170.13 142.54C170.136399 142.174394 170.085792 141.810024 169.98 141.46 169.887758 141.157017 169.706589 140.888748 169.46 140.69 169.16803 140.461226 168.824858 140.306799 168.46 140.24 167.948085 140.125603 167.424478 140.0719 166.9 140.08 166.143099 140.076645 165.389344 140.177594 164.66 140.38L164.57 139.49C164.82 139.43 165.05 139.39 165.25 139.36L166 139.27C166.306462 139.254157 166.613538 139.254157 166.92 139.27 168.02833 139.174991 169.135931 139.46071 170.06 140.08 170.743519 140.688724 171.111759 141.576181 171.06 142.49L171.06 147.4C171.06 147.61 171.06 147.77 171.06 147.9 171.048433 148.013038 171.048433 148.126962 171.06 148.24 171.079197 148.33181 171.120374 148.417596 171.18 148.49 171.242161 148.585832 171.312418 148.676162 171.39 148.76L171.92 149.36 170.79 149.28zM170.13 143.55C168.91 143.66 167.86 143.78 166.97 143.94 166.225446 144.053468 165.494804 144.244507 164.79 144.51 164.299423 144.687674 163.859915 144.982968 163.51 145.37 163.231921 145.726199 163.086912 146.168299 163.1 146.62 163.10931 146.842104 163.153169 147.061401 163.23 147.27 163.336277 147.529828 163.508644 147.757353 163.73 147.93 164.030852 148.154962 164.369519 148.324295 164.73 148.43 165.301162 148.577897 165.890197 148.645215 166.48 148.63 166.68 148.63 166.93 148.63 167.22 148.63 167.558651 148.588278 167.893173 148.518028 168.22 148.42 168.568641 148.302408 168.903845 148.148214 169.22 147.96 169.567621 147.744446 169.878264 147.474322 170.14 147.16L170.13 143.55zM186.81 149.11C186.081693 149.369657 185.313164 149.49831 184.54 149.49 184.051034 149.486184 183.563027 149.446074 183.08 149.37 182.558552 149.28355 182.055053 149.111212 181.59 148.86 181.11921 148.592878 180.723614 148.211042 180.44 147.75 180.097448 147.174006 179.933853 146.509182 179.97 145.84L179.97 140.27 177.06 140.27 177.06 139.4 180 139.4 180 136.56 180.91 136.56 180.91 139.4 187.41 139.4 187.41 140.27 180.91 140.27 180.91 145.84C180.887197 146.334685 181.001391 146.826065 181.24 147.26 181.438261 147.614699 181.73298 147.905951 182.09 148.1 182.459273 148.30803 182.861957 148.450153 183.28 148.52 183.719725 148.591798 184.164455 148.62858 184.61 148.63 185.294747 148.642203 185.974938 148.516368 186.61 148.26 187.153542 148.047315 187.684416 147.80358 188.2 147.53L188.61 148.33C188.034428 148.64309 187.432033 148.904128 186.81 149.11zM198.12 149.28L198.12 149.1C198.12 149 198.12 148.87 198.12 148.71 198.12 148.55 198.12 148.38 198.12 148.21 198.12 148.04 198.12 147.88 198.12 147.75 197.72 148.02 197.35 148.26 197.01 148.45 196.686439 148.656437 196.348964 148.840211 196 149 195.204948 149.321721 194.35754 149.494592 193.5 149.51 192.49346 149.571192 191.507205 149.208598 190.78 148.51 190.509021 148.22475 190.304172 147.883334 190.18 147.51 190.033296 147.082447 189.965528 146.63179 189.98 146.18L189.98 139.4 190.89 139.4 190.89 146.23C190.88116 146.566212 190.914758 146.902196 190.99 147.23 191.064097 147.526392 191.224132 147.794277 191.45 148 191.66635 148.192476 191.913002 148.347901 192.18 148.46 192.609929 148.625958 193.069625 148.700872 193.53 148.68 193.889304 148.676557 194.247511 148.639732 194.6 148.57 194.989845 148.483751 195.371324 148.363284 195.74 148.21 196.12596 148.053584 196.500247 147.869783 196.86 147.66 197.307505 147.413121 197.735426 147.132298 198.14 146.82L198.14 139.4 199 139.4 199 149.28 198.12 149.28zM206.67 144.57C206.678425 145.234246 206.839221 145.887694 207.14 146.48 207.395436 146.970542 207.753561 147.400293 208.19 147.74 208.602248 148.0469 209.066288 148.277226 209.56 148.42 210.038098 148.556861 210.532705 148.62752 211.03 148.63 211.546047 148.629376 212.061151 148.585893 212.57 148.5 213.11 148.413333 213.61 148.313333 214.07 148.2 214.54 148.09 214.94 147.98 215.28 147.88L215.91 147.7 215.97 148.52C215.3 148.72 214.72 148.88 214.22 149.01 213.72 149.14 213.22 149.24 212.62 149.34 212.105288 149.434817 211.583349 149.485003 211.06 149.49 210.363426 149.490214 209.671318 149.378801 209.01 149.16 208.34742 148.933773 207.740624 148.569014 207.23 148.09 206.760871 147.631303 206.392979 147.079464 206.15 146.47 205.869763 145.750184 205.73385 144.982274 205.75 144.21 205.739288 143.484886 205.882436 142.765741 206.17 142.1 206.436459 141.489083 206.832218 140.943208 207.33 140.5 207.813653 140.07288 208.368815 139.734367 208.97 139.5 209.638604 139.25349 210.347563 139.134764 211.06 139.15 211.74637 139.141337 212.427172 139.274093 213.06 139.54 214.278265 140.056306 215.234655 141.045177 215.71 142.28 215.970704 143.000851 216.096138 143.763624 216.08 144.53L206.67 144.57zM214.67 142.31C214.459341 141.877575 214.175109 141.485064 213.83 141.15 213.473668 140.806198 213.0566 140.531544 212.6 140.34 212.1127 140.135355 211.588484 140.033235 211.06 140.04 210.473037 140.032633 209.889811 140.134359 209.34 140.34 208.843988 140.51727 208.383477 140.781387 207.98 141.12 207.600248 141.444049 207.290601 141.842167 207.07 142.29 206.851141 142.72723 206.71872 143.202589 206.68 143.69L215.07 143.69C215.016727 143.210478 214.881423 142.743681 214.67 142.31L214.67 142.31zM226.76 147.65C226.520977 148.016988 226.211705 148.333057 225.85 148.58 224.779135 149.245427 223.52864 149.56329 222.27 149.49 221.71771 149.493169 221.16602 149.453046 220.62 149.37 220.136351 149.288357 219.658639 149.174775 219.19 149.03 218.797901 148.912931 218.424234 148.741247 218.08 148.52 217.728254 148.277201 217.394089 148.00987 217.08 147.72L217.75 147.05C218.230841 147.553853 218.823471 147.937521 219.48 148.17 220.36086 148.488221 221.293825 148.637496 222.23 148.61 222.794238 148.608906 223.356981 148.551962 223.91 148.44 224.412641 148.338489 224.893374 148.148904 225.33 147.88 225.843458 147.595535 226.164308 147.056964 226.17 146.47 226.166944 146.261112 226.126295 146.054481 226.05 145.86 225.967454 145.644406 225.833588 145.452189 225.66 145.3 225.352158 145.040333 224.984379 144.861599 224.59 144.78 224.32 144.71 224 144.64 223.59 144.57 223.18 144.5 222.73 144.41 222.14 144.32 221.55 144.23 221.14 144.16 220.7 144.09 220.26 144.02 219.97 143.95 219.7 143.88 219.453424 143.821278 219.212494 143.740968 218.98 143.64 218.784351 143.542169 218.597056 143.428455 218.42 143.3 218.143286 143.108616 217.911303 142.859575 217.74 142.57 217.584734 142.284898 217.505523 141.964608 217.51 141.64 217.501301 141.232286 217.624015 140.832592 217.86 140.5 218.126734 140.166826 218.469721 139.902726 218.86 139.73 219.325867 139.527883 219.81702 139.389957 220.32 139.32 220.938918 139.227314 221.564211 139.183845 222.19 139.19 222.691049 139.190643 223.191725 139.217345 223.69 139.27 224.170345 139.329181 224.638978 139.460668 225.08 139.66 225.383519 139.785508 225.669284 139.950243 225.93 140.15 226.235081 140.389626 226.510374 140.664919 226.75 140.97L226.05 141.59C225.699825 141.093031 225.213726 140.707625 224.65 140.48 223.8685 140.16913 223.030374 140.026035 222.19 140.06 221.651852 140.062184 221.114282 140.095573 220.58 140.16 220.118567 140.211557 219.669021 140.339999 219.25 140.54 219.016061 140.647695 218.81058 140.808655 218.65 141.01 218.522063 141.194829 218.455585 141.415256 218.46 141.64 218.456254 141.799106 218.490537 141.956809 218.56 142.1 218.644007 142.272961 218.771504 142.421133 218.93 142.53 219.057373 142.638273 219.198618 142.729074 219.35 142.8 219.545218 142.880235 219.745684 142.947057 219.95 143 220.2 143.06 220.51 143.13 220.95 143.2L222.45 143.44 223.91 143.7C224.32 143.77 224.67 143.86 224.97 143.94 225.232432 144.020607 225.489595 144.117461 225.74 144.23 225.948153 144.336475 226.142862 144.4674 226.32 144.62 226.593039 144.83035 226.809526 145.105254 226.95 145.42 227.08922 145.734961 227.160763 146.075643 227.160006 146.42 227.145416 146.859533 227.006739 147.285965 226.76 147.65L226.76 147.65zM239.07 146.19C238.857688 146.831623 238.517503 147.423544 238.07 147.93 237.604223 148.402722 237.050499 148.779798 236.44 149.04 235.711114 149.353707 234.923342 149.507169 234.13 149.49 233.84 149.49 233.49 149.49 233.13 149.42 232.667298 149.353283 232.216238 149.222004 231.79 149.03 231.533134 148.913653 231.282767 148.783462 231.04 148.64 230.781612 148.483978 230.534352 148.310228 230.3 148.12L230.3 153.62 229.39 153.62 229.39 139.4 230.3 139.4 230.3 140.54C230.498981 140.379686 230.705909 140.229496 230.92 140.09 231.16547 139.93327 231.422937 139.796177 231.69 139.68 232.056377 139.509123 232.442719 139.384822 232.84 139.31 233.28511 139.226799 233.737193 139.186614 234.19 139.19 235.688651 139.127781 237.143036 139.705899 238.19 140.78 238.608339 141.232843 238.946507 141.753621 239.19 142.32 239.440113 142.956575 239.562439 143.636166 239.55 144.32 239.491992 144.965157 239.329894 145.596664 239.07 146.19zM238.21 142.71C238.02316 142.208323 237.737518 141.749255 237.37 141.36 236.984798 140.938409 236.518942 140.598368 236 140.36 235.390883 140.111556 234.737746 139.989092 234.08 140 233.721657 140.004735 233.364099 140.03481 233.01 140.09 232.639549 140.154221 232.279573 140.268606 231.94 140.43 231.290517 140.708729 230.702571 141.113154 230.21 141.62L230.21 147C230.722639 147.520553 231.330257 147.938078 232 148.23 232.292656 148.366507 232.601965 148.464006 232.92 148.52 233.301984 148.59558 233.690618 148.632433 234.08 148.63 234.690464 148.635278 235.296863 148.530259 235.87 148.32 236.4385 148.108682 236.949033 147.766043 237.36 147.32 237.706855 146.950898 237.981583 146.520153 238.17 146.05 238.552846 144.969579 238.552846 143.790421 238.17 142.71L238.21 142.71zM249.44 149.28C249.162059 148.974598 248.959938 148.608039 248.85 148.21 248.563976 148.462902 248.244265 148.674921 247.9 148.84 247.57714 148.995402 247.242824 149.125785 246.9 149.23 246.57333 149.328642 246.238755 149.398903 245.9 149.44 245.59 149.44 245.32 149.49 245.1 149.49 244.424764 149.503585 243.751116 149.419379 243.1 149.24 242.620922 149.113887 242.172048 148.89285 241.78 148.59 241.463184 148.352076 241.214811 148.034711 241.06 147.67 240.920074 147.354883 240.845244 147.014747 240.84 146.67 240.815813 146.054567 241.006752 145.449927 241.38 144.96 241.790855 144.460578 242.320315 144.072078 242.92 143.83 243.724033 143.504647 244.56291 143.273117 245.42 143.14 246.42 142.97 247.53 142.84 248.78 142.73L248.78 142.54C248.786399 142.174394 248.735792 141.810024 248.63 141.46 248.537758 141.157017 248.356589 140.888748 248.11 140.69 247.81803 140.461226 247.474858 140.306799 247.11 140.24 246.598085 140.125603 246.074478 140.0719 245.55 140.08 244.793099 140.076645 244.039344 140.177594 243.31 140.38L243.22 139.49C243.47 139.43 243.69 139.39 243.9 139.36L244.65 139.27C244.956456 139.25394 245.263544 139.25394 245.57 139.27 246.675404 139.172421 247.780695 139.458455 248.7 140.08 249.383519 140.688724 249.751759 141.576181 249.7 142.49L249.7 147.4C249.7 147.61 249.7 147.77 249.7 147.9 249.688433 148.013038 249.688433 148.126962 249.7 148.24 249.720141 148.329667 249.757499 148.414571 249.81 148.49 249.87 148.57 249.94 148.66 250.03 148.76L250.56 149.36 249.44 149.28zM248.78 143.55C247.56 143.66 246.51 143.78 245.62 143.94 244.872488 144.054897 244.138675 144.245889 243.43 144.51 242.943576 144.690187 242.507883 144.985223 242.16 145.37 241.881921 145.726199 241.736912 146.168299 241.75 146.62 241.75931 146.842104 241.803169 147.061401 241.88 147.27 241.986277 147.529828 242.158644 147.757353 242.38 147.93 242.680852 148.154962 243.019519 148.324295 243.38 148.43 243.951162 148.577897 244.540197 148.645215 245.13 148.63 245.33 148.63 245.58 148.63 245.87 148.63 246.208651 148.588278 246.543173 148.518028 246.87 148.42 247.218641 148.302408 247.553845 148.148214 247.87 147.96 248.217621 147.744446 248.528264 147.474322 248.79 147.16L248.78 143.55zM261.46 148C261.166417 148.312875 260.829689 148.582257 260.46 148.8 260.054728 149.041258 259.616933 149.223111 259.16 149.34 257.931413 149.626258 256.649526 149.588352 255.44 149.23 254.799519 149.042168 254.204059 148.725723 253.69 148.3 253.166619 147.86429 252.746509 147.317806 252.46 146.7 252.135181 145.970772 251.977993 145.177995 252 144.38 251.977974 143.590636 252.138833 142.806875 252.47 142.09 252.762755 141.467667 253.189631 140.91785 253.72 140.48 254.240648 140.053893 254.838071 139.73142 255.48 139.53 256.128086 139.331307 256.80214 139.230198 257.48 139.23 257.967076 139.221589 258.453531 139.268557 258.93 139.37 259.335757 139.456683 259.72889 139.594448 260.1 139.78 260.461241 139.958569 260.797452 140.18383 261.1 140.45 261.410712 140.73382 261.695198 141.04508 261.95 141.38L261.16 141.84C260.957879 141.568727 260.733791 141.314537 260.49 141.08 260.257758 140.860165 259.99506 140.67493 259.71 140.53 259.390081 140.382887 259.054643 140.272193 258.71 140.2 258.305721 140.114499 257.893182 140.074251 257.48 140.08 256.909209 140.080142 256.342092 140.171286 255.8 140.35 255.2614 140.515604 254.761525 140.787645 254.33 141.15 253.905993 141.521235 253.565216 141.977876 253.33 142.49 253.056794 143.08176 252.923354 143.728429 252.94 144.38 252.922301 145.046756 253.052056 145.709194 253.32 146.32 253.548631 146.833154 253.890517 147.287862 254.32 147.65 254.750649 148.001158 255.246991 148.262928 255.78 148.42 256.327302 148.588969 256.897218 148.673276 257.47 148.67 257.938362 148.678211 258.405752 148.624411 258.86 148.51 259.264813 148.402014 259.649696 148.229829 260 148 260.299838 147.823392 260.572645 147.604472 260.81 147.35 261.046654 147.094616 261.257666 146.816616 261.44 146.52L262.26 146.94C262.030106 147.319641 261.762049 147.674816 261.46 148zM263.61 137.94L263.61 135.94 264.52 135.94 264.52 137.94 263.61 137.94zM263.61 149.28L263.61 139.4 264.52 139.4 264.52 149.28 263.61 149.28zM277.72 146.26C277.509019 146.869519 277.167772 147.425752 276.72 147.89 276.238539 148.393352 275.655686 148.788738 275.01 149.05 273.420134 149.62348 271.679866 149.62348 270.09 149.05 269.444513 148.796676 268.858775 148.411859 268.37 147.92 267.92778 147.447655 267.587399 146.889431 267.37 146.28 267.140252 145.638432 267.025165 144.961447 267.03 144.28 267.017871 143.526889 267.167934 142.779985 267.47 142.09 267.745996 141.473585 268.147946 140.921756 268.65 140.47 269.163641 140.021972 269.762189 139.681888 270.41 139.47 271.106132 139.237538 271.836117 139.122633 272.57 139.13 273.29729 139.123364 274.020579 139.238279 274.71 139.47 275.357811 139.681888 275.956359 140.021972 276.47 140.47 276.972054 140.921756 277.374004 141.473585 277.65 142.09 277.952066 142.779985 278.102129 143.526889 278.09 144.28L278.09 144.28C278.086695 144.956876 277.961356 145.627609 277.72 146.26zM276.79 142.54C276.558147 142.023019 276.21698 141.562443 275.79 141.19 275.360963 140.820008 274.865501 140.534948 274.33 140.35 273.743294 140.154374 273.12845 140.056405 272.51 140.06 271.883943 140.052975 271.261402 140.154476 270.67 140.36 270.132135 140.544485 269.635983 140.833341 269.21 141.21 268.78302 141.582443 268.441853 142.043019 268.21 142.56 267.970475 143.12945 267.851312 143.742286 267.86 144.36 267.862003 144.911866 267.956652 145.459478 268.14 145.98 268.322513 146.48905 268.612405 146.952877 268.99 147.34 269.400007 147.751781 269.890102 148.075107 270.43 148.29 271.0863 148.544341 271.786338 148.666678 272.49 148.65L272.49 148.65C273.173729 148.661145 273.853072 148.538863 274.49 148.29 275.026859 148.074917 275.513645 147.751527 275.92 147.34 276.300921 146.955499 276.591301 146.49089 276.77 145.98 276.961396 145.461314 277.059574 144.912872 277.06 144.36 277.095163 143.741264 277.003277 143.12188 276.79 142.54z"/>
    <polygon fill="#E5303C" points="55.58 104 55.58 104 55.58 30.19 33.94 30.19 33.94 105.8 34.17 105.8 55.58 121.25"/>
    <polygon fill="#E5303C" points="54.7 150.77 54.58 127.44 28.6 108.83 28.6 30.19 6.96 30.19 6.96 116.44 7.26 116.44"/>
  </g>
</svg>
