<svg xmlns="http://www.w3.org/2000/svg" viewBox="0 0 297 151">
  <g fill="#CC1F2D">
    <polygon points="100.17 66.53 100.17 77.09 66.61 77.09 66.61 30 77.91 30 77.91 66.53"/>
    <polygon points="140.31 66.53 140.31 77.09 106.76 77.09 106.76 30 118.05 30 118.05 66.53"/>
    <path d="M180,71 L158.33,71 L155.58,77.06 L143,77.06 L165.19,30 L173.13,30 L195.32,77.08 L182.75,77.08 L180,71 Z M175.22,60.44 L169.84,48.54 L169.17,46.66 L168.5,48.54 L163.12,60.44 L175.22,60.44 Z"/>
    <polygon points="241.46 30 241.46 77.09 230.83 77.09 211.33 51.93 210.39 50.19 210.52 51.93 210.52 77.09 199.22 77.09 199.22 30 209.85 30 229.35 54.82 230.29 56.56 230.16 54.82 230.16 30"/>
    <path d="M271.78,29.07 C278.307066,28.9550311 284.600672,31.4972308 289.216721,36.1132793 C293.832769,40.7293277 296.374969,47.0229341 296.26,53.55 C296.439032,62.4012134 291.819394,70.6577753 284.182465,75.1358718 C276.545536,79.6139683 267.084464,79.6139683 259.447535,75.1358718 C251.810606,70.6577753 247.190968,62.4012134 247.37,53.55 C247.238605,47.0303049 249.765834,40.7378208 254.370284,36.1201667 C258.974734,31.5025126 265.259955,28.9572754 271.78,29.07 Z M271.78,66.86 C279.45,66.86 284.49,61.42 284.49,53.55 C284.49,45.68 279.49,40.23 271.78,40.23 C264.07,40.23 259.14,45.61 259.14,53.55 C259.14,61.49 264.18,66.86 271.78,66.86 Z"/>
    <polygon points="164.62 87 164.62 94.43 154.54 94.43 154.54 120.1 146.59 120.1 146.59 94.41 136.65 94.41 136.65 87"/>
    <path d="M183.45 86.32C190.418457 86.3038131 196.70976 90.4890529 199.387696 96.9224277 202.065633 103.355803 200.602253 110.768983 195.680529 115.702166 190.758806 120.635348 183.349049 122.115965 176.909463 119.452997 170.469878 116.790028 166.270019 110.508476 166.27 103.54 166.188146 98.9553345 167.970561 94.5337665 171.209153 91.2876339 174.447746 88.0415012 178.865157 86.2488082 183.45 86.32zM183.45 112.91C188.84 112.91 192.39 109.07 192.39 103.54 192.39 98.01 188.84 94.17 183.45 94.17 178.06 94.17 174.55 97.96 174.55 103.54 174.55 109.12 178.1 112.91 183.45 112.91zM224.47 120.1L217.9 109.31 214 109.31 214 120.1 206 120.1 206 87 218.35 87C226.68 87 231.69 91.35 231.69 98.17 231.869135 102.339772 229.465059 106.190266 225.64 107.86L233.26 120.12 224.47 120.1zM214 101.88L219.49 101.88C220.870499 101.951456 222.177839 101.255609 222.889546 100.070553 223.601253 98.8854966 223.601253 97.4045034 222.889546 96.2194473 222.177839 95.0343911 220.870499 94.3385444 219.49 94.41L214 94.41 214 101.88zM256.84 120.1L250.26 109.31 246.34 109.31 246.34 120.1 238.34 120.1 238.34 87 250.69 87C259.01 87 264.03 91.35 264.03 98.17 264.204598 102.341436 261.797044 106.191139 257.97 107.86L265.59 120.12 256.84 120.1zM246.34 101.88L251.83 101.88C253.210499 101.951456 254.517839 101.255609 255.229546 100.070553 255.941253 98.8854966 255.941253 97.4045034 255.229546 96.2194473 254.517839 95.0343911 253.210499 94.3385444 251.83 94.41L246.34 94.41 246.34 101.88z"/>
    <polygon points="295.12 112.67 295.12 120.1 270.75 120.1 270.75 87 294.84 87 294.84 94.43 278.7 94.43 278.7 99.87 291.33 99.87 291.33 107 278.7 107 278.7 112.68"/>
    <path d="M74.13,104 C76.2897926,103.92004 78.3874208,104.731814 79.9307266,106.244859 C81.4740325,107.757904 82.3271805,109.839048 82.29,112 C82.3164177,114.109955 81.4746579,116.138066 79.9619227,117.609201 C78.4491875,119.080336 76.398398,119.865229 74.29,119.78 L67.56,119.78 L67.56,104 L74.13,104 Z M74.33,118.5 C76.0842448,118.569466 77.7891783,117.910705 79.0409609,116.679754 C80.2927435,115.448803 80.9800206,113.755163 80.94,112 C80.9975439,110.184901 80.2954687,108.428044 79.0028415,107.1525 C77.7102144,105.876956 75.9441733,105.198315 74.13,105.28 L68.89,105.28 L68.89,118.54 L74.33,118.5 Z"/>
    <polygon points="95.78 118.51 95.78 119.75 85.39 119.75 85.39 104 95.64 104 95.64 105.24 86.72 105.24 86.72 110.72 93.93 110.72 93.93 112 86.72 112 86.72 118.56"/>
    <polygon points="118.12 118.51 118.12 119.75 108.12 119.75 108.12 104 109.45 104 109.45 118.5"/>
    <path d="M132.35,115.29 L123,115.29 L120.73,119.75 L119.29,119.75 L127.29,104 L128,104 L136.05,119.74 L134.61,119.74 L132.35,115.29 Z M131.72,114.06 L127.81,106.35 L127.65,105.95 L127.49,106.35 L123.58,114.06 L131.72,114.06 Z"/>
    <polygon points="0 .23 0 16.35 6.58 26.11 56.08 26.11 63.58 15.89 63.58 0 49.05 0 49.05 9.54 38.15 9.54 38.15 .46 24.52 .46 24.52 9.99 13.85 9.99 13.85 .23"/>
    <polygon points="55.58 104 55.58 104 55.58 30.19 33.94 30.19 33.94 105.8 34.17 105.8 55.58 121.25"/>
    <polygon points="54.58 127.44 28.6 108.83 28.6 30.19 6.96 30.19 6.96 116.44 7.26 116.44 54.7 150.77"/>
  </g>
</svg>
