<svg xmlns="http://www.w3.org/2000/svg" width="126" height="33" viewBox="0 0 126 33">
  <g fill="none">
    <path fill="#060E9F" d="M46,15.2 C46,6.9 35.7,0.2 23,0.2 C10.3,0.2 0,6.9 0,15.2 C0,15.4 0,16 0,16.1 C0,24.9 9,32 23,32 C37.1,32 46,24.9 46,16.1 C46,15.8 46,15.6 46,15.2 Z"/>
    <ellipse cx="23.1" cy="15.2" fill="#009FE3" rx="22.1" ry="14.1"/>
    <g fill="#FFF" transform="translate(1 5)">
      <path d="M14.7,5.7 C14.7,5.7 14.5,5.9 14.6,6.1 C15,6.5 16,6.8 17.1,6.6 C17.7,6.4 18.6,5.8 19.4,5.2 C20.3,4.5 21.1,3.8 22,3.5 C22.9,3.2 23.5,3.3 23.9,3.5 C24.3,3.6 24.8,3.9 25.6,4.5 C27.1,5.6 33.2,10.9 34.2,11.8 C35,11.4 38.8,9.8 43.9,8.7 C43.5,6 41.8,3.5 39.3,1.5 C35.8,3 31.5,3.7 27.4,1.7 C27.4,1.7 25.1,0.6 22.9,0.7 C19.6,0.8 18.1,2.2 16.6,3.7 L14.7,5.7 Z"/>
      <path d="M34.1,12.4 C34,12.3 27,6.2 25.4,4.9 C24.5,4.2 24,4 23.4,4 C23.1,4 22.7,4 22.5,4.1 C21.7,4.3 20.8,4.9 19.9,5.6 C19,6.3 18.2,7 17.4,7.2 C16.4,7.4 15.2,7.2 14.6,6.8 C14.4,6.6 14.2,6.5 14.1,6.3 C13.9,5.8 14.3,5.4 14.3,5.4 L16.2,3.3 C16.4,3.1 16.6,2.8 16.9,2.6 C16.3,2.7 15.7,2.8 15.1,3 C14.4,3.2 13.7,3.4 13,3.4 C12.7,3.4 11.2,3.2 10.9,3.1 C9.1,2.6 7.6,2.1 5.3,1.1 C2.5,3.2 0.7,5.7 0.1,8.6 C0.5,8.7 1.1,8.9 1.4,9 C7.7,10.4 9.6,11.8 10,12.1 C10.4,11.7 10.9,11.4 11.6,11.4 C12.3,11.4 12.9,11.7 13.3,12.3 C13.7,12 14.2,11.8 14.8,11.8 C15.1,11.8 15.4,11.8 15.7,12 C16.4,12.2 16.8,12.7 17,13.1 C17.2,13 17.5,12.9 17.9,12.9 C18.2,12.9 18.6,13 18.9,13.1 C20.1,13.6 20.2,14.7 20.1,15.6 C20.2,15.6 20.3,15.6 20.3,15.6 C21.7,15.6 22.8,16.7 22.8,18.1 C22.8,18.5 22.7,18.9 22.5,19.3 C22.9,19.5 23.8,20 24.7,19.9 C25.4,19.8 25.6,19.6 25.7,19.5 C25.8,19.4 25.8,19.3 25.8,19.2 L24,17.2 C24,17.2 23.7,16.9 23.8,16.8 C23.9,16.7 24.1,16.8 24.2,17 C25.1,17.8 26.2,18.9 26.2,18.9 C26.2,18.9 26.3,19.1 26.7,19.1 C27.1,19.2 27.7,19.1 28.1,18.8 C28.2,18.7 28.3,18.6 28.4,18.5 C28.4,18.5 28.4,18.5 28.4,18.5 C28.8,17.9 28.3,17.3 28.3,17.3 L26.2,15 C26.2,15 25.9,14.7 26,14.6 C26.1,14.5 26.3,14.6 26.4,14.8 C27,15.3 28,16.3 28.9,17.1 C29.1,17.2 29.8,17.7 30.9,17 C31.5,16.6 31.7,16.1 31.6,15.7 C31.6,15.2 31.2,14.8 31.2,14.8 L28.4,12 C28.4,12 28.1,11.8 28.2,11.6 C28.3,11.5 28.5,11.6 28.6,11.8 C29.5,12.6 31.9,14.8 31.9,14.8 C31.9,14.8 32.8,15.4 33.8,14.8 C34.2,14.6 34.4,14.2 34.4,13.8 C34.6,12.8 34.1,12.4 34.1,12.4 Z"/>
      <path d="M20.4,16 C20,16 19.5,16.2 19.4,16.2 C19.4,16.2 19.4,16 19.5,15.9 C19.5,15.8 20.1,14.1 18.7,13.5 C17.6,13 17,13.6 16.7,13.8 C16.6,13.9 16.6,13.8 16.6,13.8 C16.6,13.5 16.4,12.6 15.5,12.4 C14.2,12 13.3,12.9 13.1,13.2 C13,12.4 12.4,11.9 11.6,11.9 C10.7,11.9 10.1,12.6 10.1,13.4 C10.1,14.2 10.8,14.9 11.6,14.9 C12,14.9 12.4,14.7 12.7,14.5 C12.7,14.5 12.7,14.5 12.7,14.5 C12.6,14.9 12.5,16.3 14,16.8 C14.6,17 15.1,16.9 15.5,16.6 C15.6,16.5 15.6,16.6 15.6,16.7 C15.5,17.1 15.6,17.8 16.7,18.2 C17.5,18.5 18,18.2 18.3,17.9 C18.4,17.8 18.5,17.8 18.5,18 C18.5,19 19.4,19.8 20.4,19.8 C21.5,19.8 22.3,18.9 22.3,17.9 C22.3,16.9 21.4,16 20.4,16 Z"/>
    </g>
    <path fill="#060E9F" d="M35.3,16.7 C33.1,14.8 28.1,10.4 26.7,9.4 C25.9,8.8 25.4,8.5 24.9,8.4 C24.7,8.3 24.4,8.3 24,8.3 C23.6,8.3 23.3,8.4 22.9,8.5 C22,8.8 21.1,9.5 20.3,10.2 L20.3,10.2 C19.5,10.8 18.7,11.5 18.1,11.6 C17.8,11.7 17.5,11.7 17.3,11.7 C16.6,11.7 16,11.5 15.7,11.2 C15.7,11.2 15.7,11.1 15.8,11 L15.8,11 L17.7,8.9 C19.2,7.4 20.6,6 23.9,5.9 C24,5.9 24,5.9 24.1,5.9 C26.1,5.9 28.2,6.8 28.4,6.9 C30.3,7.8 32.3,8.3 34.2,8.3 C36.3,8.3 38.4,7.8 40.6,6.8 C40.4,6.6 40.1,6.4 39.8,6.2 C37.8,7.1 36,7.5 34.2,7.5 C32.4,7.5 30.5,7.1 28.7,6.2 C28.6,6.2 26.4,5.1 24,5.1 C23.9,5.1 23.9,5.1 23.8,5.1 C21.1,5.2 19.5,6.1 18.5,7 C17.5,7 16.6,7.3 15.9,7.5 C15.2,7.7 14.6,7.9 14,7.9 C13.8,7.9 13.3,7.9 13.3,7.9 C12.6,7.9 9.3,7.1 6.6,6 C6.3,6.2 6.1,6.4 5.8,6.6 C8.6,7.8 12,8.6 13.1,8.7 C13.4,8.7 13.7,8.7 14,8.7 C14.7,8.7 15.4,8.5 16.1,8.3 C16.5,8.2 17,8.1 17.4,8 C17.3,8.1 17.2,8.2 17,8.4 L15.1,10.5 C15,10.7 14.6,11.1 14.8,11.6 C14.9,11.8 15.1,12 15.3,12.2 C15.8,12.5 16.6,12.7 17.4,12.7 C17.7,12.7 18,12.7 18.2,12.6 C19,12.4 19.9,11.7 20.8,11 C21.5,10.4 22.6,9.7 23.3,9.5 C23.5,9.4 23.8,9.4 24,9.4 C24.1,9.4 24.1,9.4 24.2,9.4 C24.7,9.5 25.2,9.6 26.1,10.3 C27.7,11.5 34.8,17.7 34.8,17.7 C34.8,17.7 35.2,18.1 35.2,18.7 C35.2,19.1 35,19.4 34.6,19.6 C34.3,19.8 34,19.9 33.7,19.9 C33.2,19.9 32.9,19.7 32.9,19.7 C32.9,19.7 30.5,17.5 29.6,16.7 C29.5,16.6 29.3,16.5 29.2,16.5 C29.1,16.5 29.1,16.5 29,16.6 C28.9,16.8 29,17 29.2,17.2 L32,20 C32,20 32.4,20.3 32.4,20.8 C32.4,21.3 32.2,21.7 31.7,22 C31.4,22.2 31,22.3 30.7,22.3 C30.3,22.3 30,22.1 29.9,22.1 L29.5,21.7 C28.8,21 28,20.2 27.4,19.7 C27.3,19.6 27.1,19.5 27,19.5 C26.9,19.5 26.9,19.5 26.8,19.6 C26.7,19.7 26.7,19.8 26.9,20 C27,20.1 27,20.2 27,20.2 L29.1,22.5 C29.1,22.5 29.5,23 29.2,23.5 L29.1,23.6 C29,23.7 29,23.7 28.9,23.8 C28.5,24.1 28.1,24.1 27.9,24.1 C27.8,24.1 27.7,24.1 27.6,24.1 C27.4,24.1 27.3,24 27.2,23.9 L27.2,23.9 C27.1,23.8 26.1,22.7 25.2,22 C25.1,21.9 25,21.8 24.8,21.8 C24.7,21.8 24.7,21.8 24.6,21.9 C24.4,22.1 24.7,22.4 24.8,22.5 L26.6,24.4 C26.6,24.4 26.6,24.5 26.5,24.5 C26.4,24.6 26.2,24.8 25.6,24.9 C25.5,24.9 25.4,24.9 25.4,24.9 C24.7,24.9 24,24.6 23.7,24.4 C23.9,24.1 23.9,23.7 23.9,23.3 C23.9,21.8 22.7,20.7 21.3,20.7 C21.3,20.7 21.2,20.7 21.2,20.7 C21.3,20 21.1,18.8 19.9,18.2 C19.5,18 19.2,18 18.8,18 C18.5,18 18.2,18 18,18.2 C17.7,17.7 17.3,17.3 16.7,17.1 C16.4,17 16.1,16.9 15.8,16.9 C15.3,16.9 14.8,17.1 14.3,17.4 C13.9,16.9 13.2,16.6 12.6,16.6 C12,16.6 11.5,16.8 11,17.3 C10.4,16.9 8.3,15.5 2.5,14.2 C2.2,14.1 1.6,14 1.2,13.8 C1.1,14.1 1.1,14.4 1.1,14.8 C1.1,14.8 2.2,15.1 2.4,15.1 C8.3,16.4 10.3,17.8 10.6,18.1 C10.5,18.4 10.4,18.7 10.4,18.9 C10.4,20.1 11.4,21.1 12.6,21.1 C12.7,21.1 12.9,21.1 13,21.1 C13.2,22 13.8,22.7 14.7,23 C15,23.1 15.2,23.2 15.5,23.2 C15.7,23.2 15.8,23.2 16,23.1 C16.2,23.5 16.5,24.1 17.4,24.4 C17.7,24.5 18,24.6 18.3,24.6 C18.5,24.6 18.8,24.6 19,24.5 C19.4,25.5 20.4,26.1 21.4,26.1 C22.1,26.1 22.8,25.8 23.3,25.3 C23.7,25.5 24.6,26 25.5,26 C25.6,26 25.7,26 25.8,26 C26.7,25.9 27.1,25.5 27.3,25.3 C27.3,25.3 27.4,25.2 27.4,25.1 C27.6,25.2 27.8,25.2 28.1,25.2 C28.6,25.2 29.1,25 29.5,24.7 C30,24.4 30.3,23.9 30.4,23.5 C30.4,23.5 30.4,23.5 30.4,23.5 C30.6,23.5 30.7,23.5 30.9,23.5 C31.4,23.5 31.9,23.3 32.4,23 C33.3,22.4 33.5,21.6 33.5,21.1 C33.7,21.1 33.8,21.1 34,21.1 C34.5,21.1 34.9,21 35.4,20.7 C36,20.3 36.3,19.8 36.4,19.1 C36.4,18.7 36.3,18.2 36.1,17.8 C37.6,17.1 41.1,15.9 45.3,14.9 C45.3,14.6 45.2,14.3 45.2,13.9 C40,14.6 36.3,16.2 35.3,16.7 Z M21.4,24.7 C20.4,24.7 19.6,23.9 19.6,23 C19.6,22.9 19.6,22.7 19.4,22.7 C19.3,22.7 19.3,22.7 19.2,22.8 C19,23 18.7,23.2 18.3,23.2 C18.1,23.2 17.9,23.2 17.7,23.1 C16.7,22.7 16.7,22 16.7,21.7 C16.7,21.6 16.7,21.5 16.7,21.5 L16.6,21.5 L16.5,21.5 C16.4,21.5 16.4,21.5 16.3,21.6 C16,21.8 15.7,21.9 15.4,21.9 C15.2,21.9 15.1,21.9 14.9,21.8 C13.5,21.3 13.7,20 13.7,19.6 C13.7,19.5 13.7,19.5 13.6,19.4 L13.5,19.3 L13.4,19.4 C13.1,19.6 12.8,19.8 12.4,19.8 C11.6,19.8 11,19.2 11,18.4 C11,17.6 11.6,17 12.4,17 C13.1,17 13.7,17.5 13.8,18.2 L13.9,18.6 L14.1,18.3 C14.1,18.3 14.7,17.4 15.7,17.4 C15.9,17.4 16.1,17.4 16.3,17.5 C17.1,17.7 17.3,18.5 17.3,18.8 C17.3,19 17.4,19 17.5,19 C17.6,19 17.6,19 17.7,18.9 C17.9,18.7 18.2,18.5 18.7,18.5 C18.9,18.5 19.2,18.6 19.5,18.7 C20.8,19.3 20.2,20.9 20.2,21 C20.1,21.3 20.1,21.4 20.2,21.5 L20.3,21.5 L20.3,21.5 C20.4,21.5 20.4,21.5 20.5,21.4 C20.7,21.3 20.9,21.2 21.2,21.2 L21.2,21.2 C22.2,21.2 23,22 23,23 C23.1,23.9 22.4,24.7 21.4,24.7 Z"/>
    <path fill="#009FE3" d="M2.9 12.7C2.9 13 2.8 13.4 2.5 13.6 2.2 13.8 2 14 1.6 14L.3 14 .3 5C.3 3.2.9 2.2 1.9 1.4 2.5.9 3.5.4 5.3.4 6.5.4 7.9.9 8.7 1.8 9.6 2.8 9.9 4 9.9 5.5 9.9 7.1 9.5 8.3 8.8 9.3 8 10.3 7.1 10.7 5.9 10.7 5.3 10.7 4.7 10.6 4.2 10.4 3.7 10.2 3.3 9.8 3 9.2L2.9 12.7 2.9 12.7zM7.3 5.7C7.3 4.7 7.1 4 6.7 3.5 6.3 3 5.8 2.7 5.1 2.7 4.4 2.7 3.9 3 3.5 3.5 3.1 4 3 4.7 3 5.7 3 6.7 3.2 7.4 3.6 7.8 4 8.3 4.5 8.6 5.2 8.6 5.9 8.6 6.4 8.3 6.8 7.8 7.1 7.3 7.3 6.6 7.3 5.7L7.3 5.7zM27 10L27 9.4C26.5 10.1 26 10.5 25.2 10.7 24.4 10.9 23.7 10.8 23 10.5 22.2 10.2 21.6 9.7 21.1 8.8 20.6 8 20.3 6.9 20.3 5.6 20.3 4.1 20.7 2.8 21.4 1.8 22.1.8 23.3.4 24.8.4 26.3.4 27.2.7 28.1 1.4 29.1 2.1 29.6 3.2 29.6 5L29.6 10.3C29.6 12 28.4 15.1 24.7 14.8 22.4 14.6 21.2 13.7 20.4 11.6L23.1 11.6C23.3 11.9 23.6 12.2 24 12.4 24.4 12.6 24.8 12.6 25.2 12.6 25.6 12.6 26 12.3 26.3 11.9 26.8 11.4 27 10.8 27 10M22.8 5.7C22.8 7.4 23.3 8.4 24.3 8.6 25.3 8.8 26 8.6 26.5 7.9 26.7 7.6 26.9 7.2 27 6.6 27.1 6 27.1 5.4 27 4.9 26.9 4.3 26.7 3.8 26.4 3.4 26.1 2.9 25.6 2.7 25 2.7 24.1 2.7 23.6 3 23.3 3.6 22.9 4.2 22.8 4.9 22.8 5.7M18 1.1C17.2.7 16.2.5 15.1.5 13.4.5 12.3.9 11.6 1.8 11.2 2.4 10.9 3.1 10.9 3.9L13.4 3.9C13.5 3.5 13.6 3.2 13.8 3 14 2.7 14.5 2.5 15.1 2.5 15.6 2.5 16.1 2.6 16.3 2.7 16.6 2.9 16.7 3.1 16.7 3.5 16.7 3.8 16.5 4.1 16.1 4.2 15.9 4.3 15.6 4.4 15.1 4.4L14.2 4.5C13.2 4.6 12.4 4.8 11.9 5.1 11 5.6 10.5 6.5 10.5 7.7 10.5 8.6 10.8 9.4 11.4 9.9 12 10.4 12.7 10.6 13.6 10.7 19.2 10.9 19.2 7.7 19.2 7.1L19.2 3.4C19.3 2.4 18.9 1.6 18 1.1L18 1.1zM16.7 6.8C16.7 7.7 16.4 8.3 16 8.6 15.5 8.9 15 9.1 14.5 9.1 14.1 9.1 13.8 9 13.6 8.8 13.4 8.6 13.2 8.3 13.2 7.8 13.2 7.3 13.4 6.9 13.8 6.7 14 6.6 14.4 6.5 15 6.4L15.6 6.3C15.9 6.3 16.1 6.2 16.3 6.1 16.5 6 16.6 5.9 16.8 5.9L16.7 6.8 16.7 6.8zM39.3 2C38.5 1 37.2.4 35.5.4 33.8.4 32.6.9 31.7 2 30.8 3.1 30.5 4.3 30.5 5.7 30.5 7.1 30.9 8.4 31.7 9.4 32.5 10.4 33.8 10.9 35.5 10.9 37.2 10.9 38.5 10.4 39.3 9.4 40.1 8.4 40.5 7.2 40.5 5.7 40.6 4.2 40.2 3 39.3 2M37.3 7.9C36.9 8.4 36.3 8.7 35.6 8.7 34.9 8.7 34.3 8.4 33.9 7.9 33.5 7.4 33.3 6.6 33.3 5.6 33.3 4.6 33.5 3.9 33.9 3.3 34.3 2.7 34.9 2.5 35.6 2.5 36.4 2.5 36.9 2.8 37.3 3.3 37.7 3.8 37.9 4.6 37.9 5.6 37.9 6.6 37.7 7.4 37.3 7.9" transform="translate(69 18)"/>
    <path fill="#060E9F" d="M71.2 5.6C70.4 4.6 69.1 4 67.4 4 65.7 4 64.4 4.5 63.6 5.6 62.8 6.6 62.4 7.9 62.4 9.3 62.4 10.7 62.8 12 63.6 13 64.4 14 65.7 14.5 67.4 14.5 69.1 14.5 70.4 14 71.2 13 72 12 72.4 10.8 72.4 9.3 72.5 7.9 72.1 6.7 71.2 5.6zM69.2 11.6C68.8 12.1 68.2 12.4 67.5 12.4 66.8 12.4 66.2 12.1 65.8 11.6 65.4 11.1 65.2 10.3 65.2 9.3 65.2 8.3 65.4 7.6 65.8 7 66.2 6.4 66.8 6.2 67.5 6.2 68.2 6.2 68.8 6.5 69.2 7 69.6 7.5 69.8 8.3 69.8 9.3 69.8 10.3 69.6 11 69.2 11.6zM61.7 1C61.7 1 59.1.7 59.1 2.8L59.1 5.6C58.8 5.1 58.4 4.8 58 4.5 57.5 4.2 57 4.1 56.4 4.1 55.1 4.1 54.1 4.6 53.3 5.5 52.5 6.5 52.1 7.8 52.1 9.5 52.1 11 52.5 12.1 53.3 13.1 54.1 14 55.6 14.4 57 14.4 61.8 14.4 61.7 10.3 61.7 10.3L61.7 1 61.7 1zM58.6 11.6C58.2 12.1 57.7 12.4 57 12.4 56.3 12.4 55.7 12.1 55.4 11.6 55 11.1 54.9 10.3 54.9 9.4 54.9 8.6 55.1 7.9 55.4 7.3 55.8 6.7 56.3 6.5 57 6.5 57.5 6.5 57.9 6.7 58.3 7 58.9 7.5 59.2 8.4 59.2 9.6 59.1 10.3 59 11 58.6 11.6zM50.1 4.7C49.3 4.3 48.3 4.1 47.2 4.1 45.5 4.1 44.4 4.5 43.7 5.4 43.3 6 43 6.7 43 7.5L45.5 7.5C45.6 7.1 45.7 6.8 45.9 6.6 46.1 6.3 46.6 6.1 47.2 6.1 47.7 6.1 48.2 6.2 48.4 6.3 48.7 6.5 48.8 6.7 48.8 7.1 48.8 7.4 48.6 7.7 48.2 7.8 48 7.9 47.7 8 47.2 8L46.3 8.1C45.3 8.2 44.5 8.4 44 8.7 43.1 9.2 42.6 10.1 42.6 11.3 42.6 12.2 42.9 13 43.5 13.5 44.1 14 44.8 14.2 45.7 14.3 51.3 14.5 51.3 11.3 51.3 10.7L51.3 7C51.3 6 50.9 5.2 50.1 4.7zM48.8 10.4C48.8 11.3 48.5 11.9 48.1 12.2 47.6 12.5 47.1 12.7 46.6 12.7 46.2 12.7 46 12.6 45.7 12.4 45.5 12.2 45.3 11.9 45.3 11.4 45.3 10.9 45.5 10.5 45.9 10.3 46.1 10.2 46.5 10 47.1 10L47.7 9.9C48 9.9 48.2 9.8 48.4 9.7 48.6 9.6 48.7 9.5 48.9 9.5L48.8 10.4 48.8 10.4zM37.2 6.3C37.8 6.3 38.3 6.5 38.6 6.9 38.8 7.2 38.9 7.5 39 7.9L41.8 7.9C41.7 6.5 41.2 5.5 40.3 5 39.5 4.5 38.4 4.2 37.1 4.2 35.6 4.2 34.4 4.7 33.5 5.6 32.6 6.5 32.2 7.9 32.2 9.5 32.2 11 32.6 12.2 33.4 13.1 34.2 14 35.4 14.5 37.1 14.5 38.8 14.5 40 13.9 40.9 12.8 41.4 12.1 41.7 11.4 41.8 10.6L39 10.6C39 11.1 38.8 11.5 38.5 11.9 38.2 12.3 37.8 12.4 37.1 12.4 36.2 12.4 35.6 12 35.3 11.2 35.1 10.8 35 10.2 35 9.5 35 8.7 35.1 8.1 35.3 7.7 35.7 6.7 36.3 6.3 37.2 6.3zM31.5 4.1C25.8 4.1 26.1 9.1 26.1 9.1L26.1 14.2 28.7 14.2 28.7 9.4C28.7 8.6 28.8 8 29 7.6 29.4 6.9 30 6.6 31.1 6.6 31.2 6.6 31.3 6.6 31.4 6.6 31.5 6.6 31.7 6.6 31.8 6.6L31.8 4C31.7 4 31.6 4 31.6 4 31.6 4.1 31.6 4.1 31.5 4.1zM22 11.6C21.9 11.8 21.8 11.9 21.6 12 21.2 12.3 20.7 12.4 20.2 12.4 19.6 12.4 19.2 12.3 18.8 12.1 18.2 11.7 17.8 11 17.8 10.1L24.9 10.1C24.9 9.3 24.9 8.6 24.8 8.1 24.7 7.3 24.4 6.6 24 6.1 23.6 5.4 23 5 22.3 4.6 21.6 4.2 20.9 4.1 20 4.1 18.6 4.1 17.4 4.6 16.5 5.5 15.6 6.4 15.1 7.7 15.1 9.4 15.1 11.2 15.6 12.5 16.6 13.3 17.6 14.1 18.7 14.5 20.1 14.5 21.7 14.5 22.9 14 23.8 13.1 24.3 12.6 24.6 12.1 24.7 11.6L22 11.6 22 11.6zM18.6 6.8C19 6.4 19.5 6.2 20.1 6.2 20.7 6.2 21.2 6.4 21.6 6.7 22 7 22.2 7.6 22.3 8.2L17.9 8.2C18 7.7 18.2 7.2 18.6 6.8zM14.2 14.3L11.8 14.3 11.8 8.4C11.8 7.9 11.6 6.6 10.1 6.6 9.1 6.6 8.3 7.4 8.3 8.4L8.3 14.4 5.9 14.4 5.9 8.4C5.9 7.9 5.7 6.6 4.2 6.6 3.1 6.6 2.4 7.4 2.4 8.4L2.4 14.4-2.84217094e-14 14.4-2.84217094e-14 8.5C-2.84217094e-14 6 1.6 4.2 4.1 4.2 5.3 4.2 6.4 4.7 7 5.6 7.7 4.8 8.7 4.2 9.9 4.2 12.5 4.2 14 6 14 8.5L14.2 14.3 14.2 14.3z" transform="translate(53)"/>
  </g>
</svg>
