<svg xmlns="http://www.w3.org/2000/svg" width="139" height="120" viewBox="0 0 139 120">
  <g fill="none">
    <g transform="translate(13)">
      <path fill="#FC0D1B" d="M.2 12.6C4.4 6.4 11.4 2.1 18.9 1.1 28.7-.3 38.9 4.4 44.4 12.6 42.3 12.6 40.2 12.6 38.1 12.6 34.3 8.8 29.2 6.2 23.8 5.8 17.4 5.3 10.9 8 6.5 12.6 4.4 12.6 2.3 12.6.2 12.6zM63.7 6C65.3 5.7 67.1 5.6 68.4 6.7 70.2 8.2 71.3 10.4 72.7 12.3 74.2 10.3 75.3 7.1 78.2 7.1 81.7 7.2 84.5 9.9 86.7 12.3 88.2 14.2 90 16.6 89 19.1 88 21.3 86.2 23.1 84.8 25 86.6 25.5 88.6 25.9 90.3 26.8 91.6 27.5 92 29 91.9 30.4 91.7 34.1 89.9 37.4 87.6 40.3 86.6 41.5 85.2 42.7 83.5 42.5 81.1 42.3 78.8 41.2 76.5 40.4 76.4 42.8 77.4 45.9 75.4 47.8 72.8 49.6 69.5 49.2 66.5 48.9 64.1 48.5 61.4 47.8 59.8 45.8 58.4 43.2 59 40.1 59.1 37.3 56.7 38 54.2 39.8 51.7 38.6 49.5 37 48.7 34.2 48.1 31.6 47.6 28.7 47.1 25.1 49.2 22.8 51.4 21.2 54.2 20.8 56.7 20 55.5 18.4 54.1 17 53.3 15.2 52.7 13.2 54.1 11.4 55.5 10.2 57.9 8.2 60.7 6.7 63.7 6L63.7 6zM62.1 15.5C61.1 16.1 61.6 17.7 62.7 17.6 64.3 17.5 65.7 16.7 67.2 16.5 68.3 16.2 69.5 16.7 70.1 17.7 70.5 16 71.4 14.4 72.3 13 68.8 12.6 64.9 13.2 62.1 15.5L62.1 15.5zM76.9 17.3C77.6 19 79.3 20.1 79.6 22 79.9 22.8 79.4 23.5 79 24.2 80.8 24.1 82.5 24.5 84.2 24.8 83.5 21.2 81.6 17.7 78.4 15.9 77.6 15.3 76.4 16.3 76.9 17.3L76.9 17.3zM65.2 23.5C64.3 24.1 63.2 24.3 62.1 24.4 62.9 25.1 63.6 25.9 64 26.9 64.9 28.9 65.8 31.2 65.1 33.4 66.7 32.5 68.6 32.4 70.4 32.4 71.9 32.5 73.6 32.6 74.8 33.5 74.4 31.9 74.7 30.3 75.2 28.8 75.7 27.1 76.4 25.4 77.9 24.4 75.7 24.2 73.8 22.9 72.1 21.6 71.1 20.8 70.4 19.8 70 18.7 69.2 21 67.2 22.4 65.2 23.5L65.2 23.5zM56.1 29C56.3 29.9 56.4 30.9 57.1 31.6 57.9 32.1 58.9 31.4 58.9 30.5 59.1 28.8 58.7 27.1 59.4 25.5 59.7 24.8 60.5 24.5 61.1 24.1 59.7 23.1 58.4 21.9 57.3 20.6 56.1 23.2 55.5 26.1 56.1 29L56.1 29zM81.6 30.4C80.5 31.2 79.9 32.6 79 33.5 78.2 34.5 76.9 34.9 75.7 34.5 76.4 36.1 76.5 37.9 76.7 39.6 79.9 37.8 82.8 35 83.5 31.3 83.6 30.3 82.2 29.9 81.6 30.4L81.6 30.4zM59.9 37.1C62.7 39.5 66.3 41.3 70 40.8 70.8 40.8 70.8 39.9 71 39.4 69.3 37.8 66.6 38.1 65 36.3 64.5 35.8 64.5 35.1 64.5 34.5 63.1 35.6 61.4 36.2 59.9 37.1z" transform="translate(23)"/>
      <path fill="#074883" d="M41.8 3.5C43.6 2.5 45.4 1.6 47.2.6 47.2 3.4 47.2 6.2 47.2 9 49.1 9 50.9 9 52.8 9 52.8 10.7 52.8 12.4 52.8 14 51 14 49.1 14 47.2 14 47.2 18.7 47.2 23.4 47.2 28.1 47.2 29.2 47.4 30.5 48.5 31 50.5 31.6 52.5 30.7 54.2 29.8 53.7 31.5 53.3 33.3 52.9 35 50.9 36.1 48.4 36.5 46.1 35.9 43.4 35.1 41.8 32.1 41.9 29.4 41.9 24.3 41.9 19.2 41.9 14.1 40.4 14.1 38.8 14.1 37.3 14.1 37.3 12.4 37.3 10.7 37.3 9.1 38.8 9.1 40.4 9.1 41.9 9.1 41.8 7.1 41.8 5.3 41.8 3.5zM4.5 11.9C7.6 9.2 11.8 8.1 15.8 8.6 18.9 8.8 21.8 10.7 23.8 13.1 22.8 14.4 21.7 15.6 20.7 16.9 19.1 15.4 17.2 14.1 15 13.9 11.9 13.5 8.5 14.9 7 17.7 4.2 21.9 5.9 28.4 10.7 30.3 14.2 31.8 18.2 30.5 20.7 27.9 21.7 29.1 22.8 30.4 23.8 31.7 21.8 34 19 35.9 15.8 36.2 10.6 36.9 4.8 34.7 2.1 30-1.2 24.3-.5 16.3 4.5 11.9zM26.9 8.9C28.7 8.9 30.6 8.9 32.4 8.9 32.4 17.8 32.4 26.8 32.4 35.7 30.6 35.7 28.7 35.7 26.9 35.7 26.8 26.8 26.9 17.9 26.9 8.9zM58.4 8.9C60.2 8.9 62.1 8.9 63.9 8.9 63.9 17.8 63.9 26.8 63.9 35.7 62.1 35.7 60.2 35.7 58.4 35.7 58.4 26.8 58.4 17.9 58.4 8.9z" transform="translate(0 7)"/>
    </g>
    <g transform="translate(0 79)">
      <path fill="#0C1967" d="M1.8,1.7 C1.9,0.9 2.7,0.2 3.5,0.2 C9.9,0.2 16.4,0.2 22.8,0.2 C23.3,0.2 23.8,0.3 24.2,0.7 C24.6,1.1 24.6,1.8 24.5,2.3 C24.2,4.1 23.9,6 23.7,7.8 C23.7,8.2 23.6,8.5 23.5,8.8 C23,8.8 22.6,8.3 22.2,8 L22.1,8 C22.3,6.9 22.4,5.8 22.6,4.7 C22.7,4.2 22.7,3.6 22.4,3.2 C22,2.8 21.4,2.8 20.9,2.8 C19.4,2.8 17.9,2.8 16.4,2.8 C16.3,3.2 16.2,3.5 15.9,3.8 C15.4,4.3 14.7,4.4 14,4.3 C13.7,4.2 13.4,3.9 13.4,3.5 C13.4,3.1 13.9,2.8 14.3,2.8 C15,2.8 15.6,2.8 16.3,2.8 C16.4,2.5 16.4,2.2 16.4,1.8 C14.5,1.8 12.6,1.8 10.8,1.8 C8.9,1.8 6.8,2.2 5.2,3.4 C4.1,4.2 3.4,5.3 2.9,6.6 C4.2,6.6 5.5,6.6 6.8,6.6 C5.5,7.4 4.4,8.6 3.6,10 C3.7,9.2 3.8,8.5 3.9,7.8 C2.8,7.8 1.7,7.8 0.6,7.8 C1.1,5.9 1.4,3.8 1.8,1.7 Z"/>
      <path fill="#018749" d="M135.4,25.8 C135.8,25.8 136.3,25.8 136.7,25.8 C137.4,26 137.3,27 136.8,27.3 C137,27.6 137.2,27.9 137.4,28.1 C137.2,28.1 137,28.1 136.8,28.1 C136.6,27.8 136.5,27.6 136.3,27.3 C136.2,27.3 136.1,27.3 136,27.3 C136,27.6 136,27.8 136,28.1 C135.8,28.1 135.6,28.1 135.4,28.1 C135.4,27.4 135.4,26.6 135.4,25.8 L135.4,25.8 Z M136,26.2 C136,26.4 136,26.7 136,26.9 C136.3,26.9 136.8,26.9 136.7,26.5 C136.7,26.1 136.3,26.2 136,26.2 Z"/>
      <path fill="#018749" d="M135.8 24.9C136.5 24.8 137.2 24.8 137.8 25.3 138.3 25.7 138.5 26.3 138.5 26.9 138.5 27.5 138.4 28.1 138 28.6 137.6 29.1 136.9 29.2 136.3 29.2 135.8 29.2 135.2 29.1 134.8 28.7 134.4 28.3 134.2 27.8 134.2 27.3 134.2 26.7 134.2 26.1 134.6 25.7 134.9 25.2 135.3 25 135.8 24.9L135.8 24.9zM135.7 25.5C134.8 25.8 134.6 26.9 134.9 27.7 135.3 29 137.4 29 137.9 27.7 138.1 27.1 138.1 26.4 137.7 25.9 137.2 25.3 136.3 25.3 135.7 25.5zM115.3 11.5C115.5 11.4 115.8 11.2 116.1 11.3 116.3 11.4 116.3 11.7 116.3 11.9 116.2 12.4 116.2 12.9 116.1 13.5 116.6 13 117 12.5 117.7 12.2 118.6 11.7 119.7 11.5 120.8 11.5 122.3 11.6 123.7 12.5 124.2 13.9 124.8 13.1 125.6 12.3 126.6 11.9 127.7 11.4 129 11.4 130.2 11.6 131.2 11.8 132.3 12.3 132.8 13.2 133.6 14.4 133.7 16 133.5 17.4 133 21 132.4 24.6 131.9 28.3 130.8 28.3 129.6 28.3 128.5 28.3 129 25.2 129.4 22.2 129.9 19.1 130 18.4 130.1 17.6 130.2 16.9 130.2 16.2 130.1 15.4 129.5 15 128.8 14.4 127.7 14.4 126.9 14.9 125.8 15.6 124.9 16.8 124.7 18.1 124.2 21.5 123.7 24.9 123.1 28.4 121.9 28.4 120.8 28.4 119.7 28.4 120.2 25.3 120.6 22.3 121.1 19.2 121.2 18.4 121.4 17.6 121.4 16.7 121.4 16 121.2 15.3 120.6 14.9 119.8 14.4 118.8 14.6 118.1 15 116.8 15.7 116.1 17.1 115.9 18.5 115.4 21.8 114.9 25 114.4 28.3 113.3 28.3 112.1 28.3 111 28.3 111.8 23.1 112.6 17.9 113.3 12.8 113.8 12.2 114.6 11.9 115.3 11.5zM90.8 11.5C91 11.4 91.2 11.3 91.5 11.3 91.7 11.4 91.7 11.7 91.7 11.9 91.7 12.4 91.6 12.9 91.5 13.4 92 12.9 92.5 12.4 93.1 12.1 94 11.6 95.1 11.4 96.2 11.4 97.7 11.5 99.1 12.4 99.6 13.8 100.4 12.8 101.4 11.9 102.6 11.6 103.8 11.3 105.1 11.3 106.3 11.7 107.2 12 108 12.7 108.4 13.6 108.9 14.8 109 16.1 108.8 17.3 108.3 20.9 107.7 24.5 107.2 28.1 106.1 28.1 104.9 28.1 103.8 28.1 104.3 24.8 104.8 21.5 105.3 18.3 105.5 17.3 105.6 16.3 105.2 15.3 104.7 14.3 103.4 14.1 102.5 14.6 101.5 15.1 100.7 16.1 100.3 17.1 100.1 17.6 100 18.2 99.9 18.8 99.4 21.9 99 25.1 98.5 28.2 97.3 28.2 96.2 28.2 95.1 28.2 95.6 24.8 96.1 21.3 96.7 17.9 96.8 17.1 96.9 16.3 96.6 15.5 96.4 15 96 14.6 95.5 14.5 94.6 14.3 93.6 14.7 92.8 15.3 92 16 91.5 16.9 91.3 17.9 90.8 21.3 90.3 24.8 89.7 28.2 88.6 28.2 87.4 28.2 86.3 28.2 87.1 23 87.9 17.8 88.6 12.7 89.3 12.2 90 11.8 90.8 11.5zM77.1 11.6C78.8 11.4 80.6 11.4 82.3 12 83.5 12.5 84.4 13.5 84.7 14.8 85.2 16.7 84.9 18.8 84.6 20.7 84.2 22.9 83.4 25.1 81.7 26.7 80.3 28 78.5 28.5 76.6 28.5 75.1 28.5 73.6 28.4 72.3 27.7 71.3 27.2 70.6 26.2 70.3 25.2 69.9 23.9 70 22.5 70.1 21.1 70.3 18.7 70.8 16.3 72.3 14.3 73.3 12.8 75.2 11.8 77.1 11.6L77.1 11.6zM77.5 14C76.8 14.1 76.1 14.5 75.6 15 74.6 16 74.3 17.4 74 18.7 73.8 20.1 73.6 21.5 73.6 22.9 73.6 23.7 73.8 24.7 74.4 25.3 75.1 25.9 76.1 25.8 77 25.8 78.1 25.7 79.1 25.1 79.7 24.2 80.6 22.8 80.9 21.2 81.2 19.6 81.4 18.3 81.6 16.9 81.3 15.6 81.1 14.9 80.7 14.3 80.1 14.1 79.2 13.8 78.3 13.9 77.5 14zM62 11.8C63.5 11.3 65.1 11.3 66.6 11.6 67.8 11.8 68.9 12.4 69.8 13.2 69.2 14.1 68.5 15 67.9 15.9 67.6 15.2 67.1 14.6 66.5 14.2 65.3 13.7 63.9 13.9 62.8 14.6 61.8 15.2 61.2 16.2 60.7 17.3 60.3 18.5 60.1 19.7 60 20.9 59.9 22.1 59.8 23.3 60.3 24.4 60.6 25.1 61.2 25.5 62 25.7 63.2 25.9 64.5 25.8 65.7 25.4 66.3 25.2 66.8 25 67.4 24.7 67.6 25.4 67.7 26 67.9 26.7 66.5 27.8 64.7 28.4 62.9 28.4 61.4 28.5 59.7 28.3 58.4 27.5 57.4 26.9 56.7 25.8 56.5 24.6 56.1 22.9 56.3 21.2 56.6 19.5 56.8 17.7 57.4 15.9 58.5 14.5 59.1 13.3 60.5 12.3 62 11.8zM42.5 13.5C44 12.1 46 11.5 48 11.4 49.6 11.4 51.2 11.4 52.6 12.1 53.5 12.6 54.2 13.5 54.4 14.6 54.6 15.7 54.5 16.9 54.2 18.1 53.9 19.1 53.1 20 52.1 20.5 50.9 21.1 49.7 21.3 48.4 21.5 46.7 21.7 45 22 43.3 22.2 43.1 23.1 43.1 24 43.6 24.8 44.1 25.5 44.9 25.7 45.7 25.8 46.9 25.9 48 25.9 49.2 25.6 50 25.4 50.8 25.1 51.6 24.8 51.8 25.5 51.9 26.1 52.1 26.8 50.1 28.2 47.5 28.7 45.1 28.5 43.7 28.4 42.3 28.2 41.2 27.3 40.3 26.6 39.9 25.4 39.7 24.3 39.5 22.5 39.7 20.8 40 19 40.2 16.9 41 14.9 42.5 13.5L42.5 13.5zM45.2 15.2C44 16.3 43.5 17.9 43.3 19.5 45 19.2 46.7 19 48.4 18.7 49.3 18.5 50.4 18.2 50.9 17.4 51.3 16.6 51.5 15.6 50.9 14.8 50.5 14.2 49.7 13.9 49 13.9 47.7 13.8 46.2 14.2 45.2 15.2zM37.8 4.9C38 4.8 38.3 4.6 38.5 4.7 38.8 4.8 38.8 5.2 38.7 5.4 37.5 13 36.4 20.6 35.3 28.2 34.1 28.2 33 28.2 31.8 28.2 32.9 20.9 34 13.6 35.1 6.3 36 5.8 36.9 5.3 37.8 4.9zM19.1 13.4C20.8 12 23 11.4 25.2 11.5 26.7 11.5 28.3 11.6 29.5 12.5 30.5 13.2 30.9 14.5 30.9 15.8 30.9 17.1 30.7 18.5 29.9 19.5 28.9 20.7 27.4 21.1 26 21.4 23.9 21.7 21.8 22 19.8 22.3 19.6 23.3 19.5 24.5 20.3 25.2 21.2 26 22.5 25.9 23.6 25.9 25.2 25.9 26.7 25.3 28.1 24.8 28.3 25.5 28.4 26.1 28.6 26.8 26.6 28.2 24.1 28.7 21.7 28.5 20.3 28.4 18.9 28.2 17.7 27.3 16.8 26.6 16.3 25.4 16.2 24.3 16 22.5 16.2 20.7 16.5 18.9 16.7 16.8 17.5 14.7 19.1 13.4L19.1 13.4zM21.8 15.1C20.5 16.2 20 17.9 19.8 19.6 21.5 19.3 23.2 19.1 25 18.8 25.9 18.6 27 18.3 27.5 17.5 27.9 16.7 28.1 15.7 27.5 14.9 27.1 14.3 26.3 14 25.6 14 24.2 13.9 22.8 14.2 21.8 15.1z"/>
      <path fill="#018749" d="M12.2,9.4 C13.4,8 15.2,7.4 17,7.2 C18.7,7.1 20.6,7.1 22.1,8.1 L22.2,8.1 C20,8.1 17.6,8.5 15.9,10 C14.3,11.4 13.6,13.4 13.2,15.4 C12.6,19.6 11.9,23.9 11.3,28.1 C10.1,28.1 9,28.1 7.8,28.1 C8.4,23.9 9,19.7 9.7,15.4 C10,13.3 10.7,11.1 12.2,9.4 Z"/>
      <path fill="#FF0D00" d="M31.2,32.4 C35.3,32 39.5,32 43.7,31.9 C59,31.9 74.4,31.9 89.7,31.9 C95.5,31.9 101.4,32 107.2,32.4 C102,32.8 96.8,32.9 91.6,32.8 C76.2,32.8 60.8,32.8 45.3,32.8 C40.6,32.8 35.9,32.7 31.2,32.4 Z"/>
      <path fill="#222" d="M84.4.9C84.9.7 85.4.5 85.9.3 85.9.5 86 .8 86 1 85.5 1.1 85 1.3 84.5 1.4 84.4 1.3 84.4 1 84.4.9zM10.8 1.6C11.6 1.6 12.5 1.6 13.3 1.6 13.3 1.8 13.2 2 13.2 2.3 12.6 2.3 12.1 2.3 11.5 2.3 11.5 2.6 11.4 2.9 11.4 3.2 11.9 3.2 12.4 3.2 12.9 3.2 12.9 3.4 12.8 3.6 12.8 3.9 12.3 3.9 11.8 3.9 11.3 3.9 11.3 4.2 11.2 4.5 11.2 4.8 11.8 4.8 12.3 4.8 12.9 4.8 12.9 5 12.8 5.3 12.8 5.5 12 5.5 11.1 5.5 10.3 5.5 10.5 4.1 10.7 2.8 10.8 1.6zM14.8 1.7C15.5 1.4 16.3 1.5 17 1.6 16.9 1.8 16.9 2 16.8 2.3 16.3 2.3 15.8 2.1 15.3 2.3 14.9 2.6 14.9 3.2 14.8 3.7 14.8 4 14.7 4.5 15.1 4.5 15.5 4.6 16 4.5 16.4 4.4 16.4 4.6 16.4 4.8 16.4 5.1 15.7 5.2 15 5.4 14.3 5.1 13.8 4.8 13.8 4.1 13.9 3.6 14 3 14.1 2.2 14.8 1.7zM18.8 1.5C19.4 1.4 20 1.4 20.5 1.7 20.9 2.1 20.8 2.7 20.8 3.2 20.7 3.9 20.6 4.7 19.9 5.1 19.3 5.3 18.7 5.3 18.1 5.2 17.7 5.1 17.4 4.8 17.4 4.4 17.3 3.7 17.5 3 17.7 2.4 17.8 2 18.3 1.6 18.8 1.5L18.8 1.5zM18.9 2.2C18.5 2.4 18.4 2.9 18.3 3.3 18.3 3.7 18.1 4.1 18.3 4.5 18.6 4.7 18.9 4.7 19.2 4.6 19.6 4.5 19.7 4 19.8 3.6 19.9 3.2 20 2.8 19.9 2.4 19.7 2.1 19.2 2.1 18.9 2.2zM34 1.6C34.2 1.6 34.5 1.6 34.8 1.6 34.6 2.8 34.4 4.1 34.2 5.3 33.9 5.3 33.6 5.3 33.3 5.3 32.9 4.4 32.6 3.4 32.2 2.5 32.2 3.4 32 4.4 31.9 5.3 31.6 5.3 31.4 5.3 31.1 5.3 31.3 4.1 31.5 2.8 31.7 1.6 32 1.6 32.3 1.6 32.6 1.6 33 2.5 33.3 3.4 33.7 4.4 33.8 3.4 33.9 2.5 34 1.6zM38.6 1.7C39.3 1.4 40 1.5 40.7 1.7 40.6 1.9 40.6 2.2 40.5 2.4 40 2.4 39.6 2.2 39.1 2.4 38.6 2.7 38.6 3.4 38.5 3.9 38.5 4.2 38.4 4.7 38.8 4.7 39.2 4.8 39.7 4.7 40.1 4.6 40.1 4.8 40.1 5 40.1 5.3 39.4 5.4 38.7 5.6 38 5.3 37.4 5 37.5 4.2 37.6 3.6 37.8 2.9 37.9 2 38.6 1.7zM45.9 1.8C46.6 1.4 47.4 1.6 48.1 1.7 48 1.9 48 2.2 47.9 2.4 47.4 2.4 46.7 2.2 46.3 2.6 46 3 46 3.5 45.9 4 45.9 4.3 45.9 4.7 46.2 4.8 46.6 4.9 47.1 4.8 47.6 4.7 47.6 4.9 47.6 5.2 47.6 5.4 46.9 5.5 46.2 5.7 45.6 5.4 45 5.1 45.1 4.4 45.2 3.8 45.3 3 45.3 2.2 45.9 1.8zM51.9 1.6C52.5 1.5 53.1 1.4 53.7 1.7 54.1 1.9 54.2 2.5 54.1 3 54 3.7 53.9 4.4 53.5 4.9 53 5.4 52.3 5.4 51.7 5.3 51.3 5.3 50.8 5.1 50.7 4.6 50.5 3.9 50.7 3.3 50.9 2.6 51 2.2 51.4 1.7 51.9 1.6L51.9 1.6zM52.2 2.2C51.8 2.3 51.7 2.7 51.6 3.1 51.5 3.5 51.4 4 51.5 4.4 51.7 4.7 52.2 4.7 52.5 4.6 53 4.4 53 3.9 53.1 3.4 53.1 3 53.3 2.6 53 2.3 52.9 2.1 52.5 2.2 52.2 2.2zM59.8 1.6C60.6 1.6 61.5 1.6 62.3 1.6 62.3 1.8 62.2 2 62.2 2.2 61.6 2.2 61.1 2.2 60.5 2.2 60.5 2.5 60.4 2.8 60.4 3.1 60.9 3.1 61.4 3.1 61.9 3.1 61.9 3.3 61.8 3.5 61.8 3.7 61.3 3.7 60.8 3.7 60.3 3.7 60.2 4 60.2 4.3 60.2 4.6 60.8 4.6 61.3 4.6 61.9 4.6 61.9 4.8 61.8 5.1 61.8 5.3 61 5.3 60.1 5.3 59.3 5.3 59.5 4.1 59.7 2.8 59.8 1.6zM63.7 1.6C64.4 1.4 65 1.5 65.7 1.6 65.6 1.8 65.6 2.1 65.5 2.3 65 2.3 64.5 2.2 64.1 2.3 63.9 2.3 63.9 2.5 63.8 2.7 64.3 3.2 65 3.3 65.4 3.8 65.7 4.3 65.4 5.1 64.8 5.3 64.1 5.5 63.3 5.4 62.6 5.3 62.7 5.1 62.7 4.8 62.8 4.6 63.3 4.7 63.8 4.8 64.3 4.6 64.5 4.6 64.7 4.2 64.5 4.1 64.1 3.8 63.6 3.6 63.3 3.3 62.7 2.8 63 1.8 63.7 1.6zM73.1 1.6C73.9 1.6 74.8 1.6 75.6 1.6 75.6 1.8 75.5 2 75.5 2.2 74.9 2.2 74.4 2.2 73.8 2.2 73.8 2.5 73.7 2.8 73.7 3.1 74.2 3.1 74.7 3.1 75.2 3.1 75.2 3.3 75.1 3.5 75.1 3.7 74.6 3.7 74.1 3.7 73.6 3.7 73.5 4 73.5 4.3 73.5 4.6 74.1 4.6 74.6 4.6 75.2 4.6 75.2 4.8 75.1 5.1 75.1 5.3 74.3 5.3 73.4 5.3 72.6 5.3 72.7 4.1 72.9 2.8 73.1 1.6zM93.4 1.8C94.1 1.3 95 1.5 95.7 1.6 95.6 1.8 95.6 2.1 95.5 2.3 95 2.3 94.4 2.1 93.9 2.4 93.6 2.7 93.5 3.3 93.5 3.7 93.5 4 93.4 4.4 93.7 4.6 94.2 4.7 94.6 4.6 95.1 4.6 95.1 4.8 95.1 5 95.1 5.3 94.4 5.4 93.7 5.6 93.1 5.3 92.5 5.1 92.6 4.3 92.6 3.8 92.8 3.1 92.8 2.3 93.4 1.8zM97.4 1.6C98 1.5 98.6 1.4 99.2 1.7 99.7 2 99.7 2.6 99.6 3.1 99.5 3.7 99.4 4.4 99 4.9 98.5 5.4 97.8 5.4 97.1 5.3 96.7 5.3 96.3 5 96.2 4.6 96.1 3.9 96.2 3.3 96.4 2.6 96.5 2.2 96.8 1.7 97.4 1.6L97.4 1.6zM97.6 2.2C97.1 2.4 97.1 3 97 3.5 97 3.8 96.8 4.4 97.2 4.6 97.6 4.7 98.2 4.7 98.4 4.2 98.6 3.7 98.7 3.2 98.7 2.6 98.7 2.1 98 2.1 97.6 2.2zM.3 1.6C1.3 1.6 2.3 1.6 3.3 1.6 3.3 1.8 3.2 2.1 3.2 2.3 2.8 2.3 2.5 2.3 2.1 2.3 1.9 3.3 1.8 4.3 1.6 5.4 1.3 5.4 1.1 5.4.8 5.4.9 4.4 1.1 3.4 1.3 2.3 1 2.3.6 2.3.2 2.3.2 2 .2 1.8.3 1.6zM3.5 5.3C3.7 4.1 3.9 2.8 4.1 1.6 4.9 1.6 5.8 1.6 6.6 1.6 6.6 1.8 6.5 2 6.5 2.3 5.9 2.3 5.4 2.3 4.8 2.3 4.8 2.6 4.7 2.9 4.7 3.2 5.2 3.2 5.7 3.2 6.2 3.2 6.2 3.4 6.1 3.6 6.1 3.8 5.6 3.8 5.1 3.8 4.6 3.8 4.5 4.1 4.5 4.4 4.5 4.7 5.1 4.7 5.6 4.7 6.2 4.7 6.2 4.9 6.1 5.2 6.1 5.4 5.2 5.3 4.3 5.3 3.5 5.3zM7.6 1.6C7.9 1.6 8.1 1.6 8.4 1.6 8.2 2.6 8.1 3.6 7.9 4.7 8.4 4.7 9 4.7 9.5 4.7 9.5 4.9 9.4 5.1 9.4 5.4 8.6 5.4 7.8 5.4 7 5.4 7.2 4 7.4 2.8 7.6 1.6zM21.5 5.3C21.8 4.1 22 2.8 22.3 1.6 22.6 1.6 22.9 1.6 23.3 1.6 23.5 2.4 23.6 3.1 23.8 3.9 24.2 3.1 24.6 2.4 25 1.6 25.3 1.6 25.7 1.6 26 1.6 25.9 2.8 25.8 4.1 25.6 5.3 25.4 5.3 25.1 5.3 24.8 5.3 24.9 4.4 25 3.4 25.2 2.5 24.8 3.3 24.4 4 24 4.8 23.8 4.8 23.5 4.8 23.2 4.8 23 4 22.8 3.2 22.6 2.5 22.5 3.5 22.3 4.4 22.1 5.4 22 5.3 21.8 5.3 21.5 5.3zM27.4 1.6C27.7 1.6 28 1.6 28.2 1.6 28.1 2.3 28 3.1 27.9 3.8 27.9 4 27.8 4.3 28 4.6 28.3 4.8 28.7 4.8 29 4.6 29.2 4.4 29.3 4.1 29.3 3.8 29.4 3.1 29.5 2.3 29.6 1.6 29.9 1.6 30.2 1.6 30.4 1.6 30.3 2.4 30.2 3.3 30 4.1 29.9 4.6 29.7 5.1 29.2 5.3 28.6 5.4 28 5.5 27.5 5.3 27 5.1 27 4.6 27 4.2 27.1 3.2 27.3 2.4 27.4 1.6zM35.4 5.3C35.6 4.1 35.8 2.8 36 1.6 36.3 1.6 36.5 1.6 36.8 1.6 36.6 2.8 36.4 4.1 36.2 5.3 36 5.3 35.7 5.3 35.4 5.3zM42.6 1.6C42.9 1.6 43.3 1.6 43.7 1.6 43.9 2.8 44.2 4.1 44.4 5.3 44.1 5.3 43.8 5.3 43.6 5.3 43.5 5 43.5 4.7 43.4 4.4 43 4.4 42.5 4.4 42.1 4.4 42 4.7 41.8 5 41.7 5.3 41.4 5.3 41.1 5.3 40.9 5.3 41.3 4 42 2.8 42.6 1.6L42.6 1.6zM42.2 3.8C42.5 3.8 42.9 3.8 43.2 3.8 43.1 3.2 43 2.7 42.9 2.1 42.8 2.7 42.5 3.3 42.2 3.8zM48.5 5.3C48.7 4.1 48.9 2.8 49.1 1.6 49.4 1.6 49.6 1.6 49.9 1.6 49.7 2.8 49.5 4.1 49.3 5.3 49.1 5.3 48.8 5.3 48.5 5.3zM55.5 1.6C55.8 1.6 56.1 1.6 56.4 1.6 56.8 2.5 57.1 3.5 57.5 4.4 57.5 3.5 57.7 2.5 57.8 1.6 58 1.6 58.3 1.6 58.6 1.6 58.4 2.8 58.2 4.1 58 5.3 57.7 5.3 57.4 5.3 57.1 5.3 56.7 4.4 56.4 3.5 56 2.5 55.9 3.4 55.8 4.3 55.7 5.3 55.4 5.3 55.2 5.3 54.9 5.3 55.1 4.1 55.3 2.8 55.5 1.6zM68.9 1.6C69.6 1.6 70.3 1.5 71 1.7 71.4 1.8 71.6 2.1 71.7 2.5 71.8 3.1 71.7 3.8 71.5 4.4 71.4 4.8 71 5.2 70.6 5.3 69.9 5.5 69.1 5.4 68.4 5.3 68.5 4 68.7 2.8 68.9 1.6L68.9 1.6zM69.6 2.2C69.5 3 69.4 3.8 69.2 4.6 69.6 4.6 70.1 4.7 70.5 4.4 70.8 4.1 70.8 3.6 70.9 3.2 70.9 2.9 71 2.5 70.8 2.3 70.4 2.2 70 2.3 69.6 2.2zM77.8 5.3C78.1 4.1 78.3 2.8 78.6 1.6 78.9 1.6 79.3 1.6 79.6 1.6 79.8 2.4 79.9 3.1 80.1 3.9 80.5 3.1 80.9 2.4 81.3 1.6 81.6 1.6 82 1.6 82.3 1.6 82.2 2.8 82.1 4.1 81.9 5.3 81.6 5.3 81.4 5.3 81.1 5.3 81.2 4.4 81.3 3.4 81.5 2.5 81.1 3.3 80.7 4 80.3 4.8 80 4.8 79.8 4.8 79.5 4.8 79.3 4 79.1 3.3 79 2.5 78.9 3.5 78.7 4.4 78.5 5.4 78.3 5.3 78 5.3 77.8 5.3zM83.7 1.6C84.5 1.6 85.4 1.6 86.2 1.6 86.2 1.8 86.1 2 86.1 2.2 85.5 2.2 85 2.2 84.4 2.2 84.3 2.5 84.3 2.8 84.3 3.1 84.8 3.1 85.3 3.1 85.8 3.1 85.8 3.3 85.7 3.5 85.7 3.7 85.2 3.7 84.7 3.7 84.2 3.7 84.1 4 84.1 4.3 84.1 4.6 84.7 4.6 85.2 4.6 85.8 4.6 85.8 4.8 85.7 5.1 85.7 5.3 84.9 5.3 84 5.3 83.2 5.3 83.3 4.1 83.5 2.8 83.7 1.6zM86.9 1.6C87.2 1.6 87.5 1.6 87.8 1.6 88 2.1 88.1 2.6 88.3 3 88.6 2.5 88.9 2 89.2 1.6 89.5 1.6 89.8 1.6 90.1 1.6 89.7 2.2 89.3 2.8 88.9 3.4 89.2 4 89.4 4.7 89.7 5.3 89.4 5.3 89.1 5.3 88.8 5.3 88.6 4.8 88.4 4.3 88.2 3.8 87.9 4.3 87.5 4.8 87.1 5.3 86.8 5.3 86.5 5.3 86.2 5.3 86.6 4.7 87.1 4 87.5 3.4 87.4 2.8 87.2 2.2 86.9 1.6zM91.1 1.6C91.4 1.6 91.7 1.6 91.9 1.6 91.7 2.8 91.5 4.1 91.3 5.3 91 5.3 90.8 5.3 90.5 5.3 90.7 4.1 90.9 2.8 91.1 1.6z" transform="translate(20 35)"/>
    </g>
  </g>
</svg>
