<svg xmlns="http://www.w3.org/2000/svg" width="121" height="126" viewBox="0 0 121 126">
  <g fill="none">
    <path fill="#004580" d="M21.7633777,19.0822086 C22.1562429,19.2147239 22.6134568,19.411798 23.1350192,19.6734309 C24.0494468,20.2000944 24.8317905,20.9204342 25.4888237,21.837848 C26.2745541,23.1494101 26.6640325,24.722605 26.6640325,26.5574328 C26.6640325,32.8536102 22.8708512,36 15.2912621,36 L0.58929781,36 C0.196432603,36 0,35.8029259 0,35.4087777 L0,5.11373289 C0,4.71958471 0.196432603,4.52251062 0.58929781,4.52251062 L16.0803793,4.52251062 C18.827049,4.52251062 21.0453827,5.28022652 22.7455408,6.78546484 C24.442312,8.29410099 25.2957778,10.2954224 25.2957778,12.7860311 C25.2957778,14.2301085 24.9672612,15.5076923 24.3170016,16.6221803 C23.6599684,17.7400661 22.8098894,18.5589429 21.7633777,19.0822086 Z M15.0982163,31.4740916 C17.3199368,31.4740916 18.9523594,31.1139217 19.9988711,30.3935819 C21.0419959,29.6732421 21.5669451,28.4262388 21.5669451,26.6559698 C21.5669451,24.8857008 21.0419959,23.6420953 19.9988711,22.9183577 C18.9523594,22.1980179 17.31655,21.837848 15.0982163,21.837848 L5.88281779,21.837848 C5.35786859,21.837848 5.09708738,22.0349221 5.09708738,22.4290703 L5.09708738,30.8896649 C5.09708738,31.2838131 5.35786859,31.4808872 5.88281779,31.4808872 L15.0982163,31.4808872 L15.0982163,31.4740916 Z M5.88281779,9.04841907 C5.48995259,9.04841907 5.29351998,9.24549316 5.29351998,9.63964134 L5.29351998,16.7207173 C5.29351998,17.1148655 5.48995259,17.3119396 5.88281779,17.3119396 L14.9017837,17.3119396 C18.298713,17.3119396 19.9988711,15.9358188 19.9988711,13.1801793 C19.9988711,10.4245399 18.298713,9.04841907 14.9017837,9.04841907 L5.88281779,9.04841907 L5.88281779,9.04841907 Z M53.5312712,19.0822086 C53.9241364,19.2147239 54.3170016,19.411798 54.70648,19.6734309 C55.7496049,20.2000944 56.5353353,20.9204342 57.0602845,21.837848 C57.9747121,23.1494101 58.4319259,24.722605 58.4319259,26.5574328 C58.4319259,32.8536102 54.6387446,36 47.0591556,36 L32.3538045,36 C31.9609393,36 31.7645067,35.8029259 31.7645067,35.4087777 L31.7645067,5.11373289 C31.7645067,4.71958471 31.9609393,4.52251062 32.3538045,4.52251062 L47.844886,4.52251062 C50.4594717,4.52251062 52.6473245,5.28022652 54.4152179,6.78546484 C56.1797245,8.29410099 57.0636713,10.2954224 57.0636713,12.7860311 C57.0636713,14.2301085 56.7351547,15.5076923 56.084895,16.6221803 C55.4244751,17.7400661 54.574396,18.5589429 53.5312712,19.0822086 Z M37.4508918,9.04841907 C37.0580266,9.04841907 36.861594,9.24549316 36.861594,9.63964134 L36.861594,16.7207173 C36.861594,17.1148655 37.0580266,17.3119396 37.4508918,17.3119396 L46.6662904,17.3119396 C50.0632197,17.3119396 51.7633777,15.9358188 51.7633777,13.1801793 C51.7633777,10.4245399 50.0632197,9.04841907 46.6662904,9.04841907 L37.4508918,9.04841907 L37.4508918,9.04841907 Z M46.862723,31.4740916 C49.0844434,31.4740916 50.7168661,31.1139217 51.7633777,30.3935819 C52.8065026,29.6732421 53.3314518,28.4262388 53.3314518,26.6559698 C53.3314518,24.8857008 52.8065026,23.6420953 51.7633777,22.9183577 C50.7168661,22.1980179 49.0810567,21.837848 46.862723,21.837848 L37.4508918,21.837848 C37.0580266,21.837848 36.861594,22.0349221 36.861594,22.4290703 L36.861594,30.8896649 C36.861594,31.2838131 37.0580266,31.4808872 37.4508918,31.4808872 L46.862723,31.4808872 L46.862723,31.4740916 Z M86.4709867,4.9166588 C86.5996839,4.65502596 86.7317679,4.52251062 86.8638519,4.52251062 L91.9609393,4.52251062 C92.0896365,4.52251062 92.2217205,4.5904672 92.3538045,4.71958471 C92.4825017,4.85210005 92.4825017,4.98461538 92.3538045,5.11373289 L76.0803793,35.8029259 C75.9482953,35.9354412 75.7857304,36 75.5892978,36 C75.3928652,36 75.2269135,35.9354412 75.0982163,35.8029259 L58.8247911,5.11373289 C58.6925807,4.98461538 58.6588395,4.85210005 58.7265748,4.71958471 C58.7909235,4.5904672 58.9534884,4.52251062 59.2176564,4.52251062 L64.1183111,4.52251062 C64.3790923,4.52251062 64.5755249,4.65502596 64.7076089,4.9166588 L75.0982163,24.5900897 C75.0982163,24.722605 75.2269135,24.7871638 75.4910815,24.7871638 C75.7518627,24.7871638 75.9482953,24.722605 76.0803793,24.5900897 L86.4709867,4.9166588 Z M92.3538045,31.0833412 C92.2217205,31.3483719 92.0252879,31.4774894 91.7645067,31.4774894 L86.6674193,31.4774894 C86.5353353,31.4774894 86.437119,31.4129306 86.3727704,31.2804153 C86.305035,31.1512978 86.2745541,31.0187824 86.2745541,30.8862671 L102.551366,0.197074092 C102.680063,0.0679565833 102.876496,0 103.140664,0 C103.401445,0 103.597878,0.0679565833 103.729962,0.197074092 L120,30.8862671 C120,31.0187824 119.966132,31.1512978 119.901784,31.2804153 C119.834048,31.4129306 119.735832,31.4774894 119.607135,31.4774894 L114.510047,31.4774894 C114.245879,31.4774894 114.049447,31.3483719 113.92075,31.0833412 L103.723188,11.4099103 C103.591104,11.1482775 103.394671,11.0157622 103.13389,11.0157622 C102.869722,11.0157622 102.67329,11.1482775 102.544592,11.4099103 L92.3538045,31.0833412 Z" transform="translate(.4 .5)"/>
    <g transform="translate(28 57)">
      <rect width="64.9" height="67.3" x=".3" y=".8" fill="#006546"/>
      <path fill="#FFF" d="M40.8,61.5 L40.8,64 L25.2,64 L25.2,61.5 L13.4,61.5 C12.2,61.5 11.3,60.3 11.3,58.8 L6.4,9 C6.4,7.5 7.6,6.3 9,6.3 L56.6,6.3 C58,6.3 59.2,7.5 59.2,9 L54.3,58.8 C54.3,60.3 53.4,61.5 52.2,61.5 L40.8,61.5 Z"/>
      <path fill="#F60" d="M15.2,13.6 L47,13.6 C43.9,14.8 34.3,21.2 31.9,25.6 L15.2,25.6 L15.2,13.6 Z"/>
      <path fill="#FE000C" d="M41.8 36.8C42.1 33.4 46.8 27.8 51.3 26.3L51.3 13C38.8 18.6 30.6 27.1 28.9 36.7L41.8 36.8zM40.5 48C40.1 52.3 40 57.6 40 63.2L26.2 63.2C26.2 57.6 26.4 52.4 26.9 48L40.5 48z"/>
      <g fill="#006546" transform="translate(14 37)">
        <polygon points=".1 1 5.2 1 5.2 3 3 3 3 4.7 5.2 4.7 5.2 6.4 3 6.4 3 8.1 5.2 8.1 5.2 10 .1 10"/>
        <polygon points="11.9 1 16.9 1 16.9 3 14.7 3 14.7 4.7 16.9 4.7 16.9 6.4 14.7 6.4 14.7 8.1 16.9 8.1 16.9 10 11.9 10"/>
        <polygon points="24.8 1 29.9 1 29.9 3 27.7 3 27.7 4.7 29.9 4.7 29.9 6.4 27.7 6.4 27.7 8.1 29.9 8.1 29.9 10 24.8 10"/>
        <polygon points="9 8.1 11.2 8.1 11.2 10 6.1 10 6.1 1 9 1"/>
        <polygon points="17.4 1 18.8 10 22.5 10 24.2 1 22.1 1 21 7.1 19.9 1"/>
        <g transform="translate(31)">
          <rect width="2.7" height="9" x=".1" y="1"/>
          <path d="M2.8,3.7 C2.9,2.7 4.3,3 4.3,3.5 L4.3,10 L7,10 L7,2.4 C7,0.8 4.7,0.1 2.7,1.6"/>
        </g>
      </g>
      <path fill="#006546" d="M45.5,51.8 C45.2,52.1 44.7,52.3 44.2,52.3 C43.7,52.3 43.3,52.1 42.9,51.8 C42.5,51.5 42.4,51 42.4,50.5 C42.4,50 42.6,49.6 42.9,49.2 C43.2,48.9 43.7,48.7 44.2,48.7 C44.7,48.7 45.1,48.9 45.5,49.2 C45.9,49.5 46,50 46,50.5 C46,51 45.8,51.4 45.5,51.8 L45.5,51.8 Z M43.1,49.4 C42.8,49.7 42.7,50.1 42.7,50.5 C42.7,50.9 42.9,51.3 43.1,51.6 C43.4,51.9 43.8,52.1 44.2,52.1 C44.6,52.1 45,51.9 45.3,51.6 C45.6,51.3 45.7,50.9 45.7,50.5 C45.7,50.1 45.5,49.7 45.3,49.4 C45,49.1 44.6,48.9 44.2,48.9 C43.7,49 43.4,49.1 43.1,49.4 L43.1,49.4 Z M44.1,49.5 C44.3,49.5 44.5,49.5 44.6,49.6 C44.8,49.7 44.9,49.9 44.9,50.1 C44.9,50.3 44.8,50.4 44.7,50.5 C44.6,50.5 44.5,50.6 44.4,50.6 C44.6,50.6 44.7,50.7 44.7,50.8 C44.8,50.9 44.8,51 44.8,51.1 L44.8,51.2 C44.8,51.2 44.8,51.3 44.8,51.4 C44.8,51.4 44.8,51.5 44.8,51.5 L44.8,51.5 L44.5,51.5 C44.5,51.5 44.5,51.5 44.5,51.5 C44.5,51.5 44.5,51.5 44.5,51.5 L44.5,51.4 L44.5,51.2 C44.5,51 44.4,50.8 44.3,50.7 C44.2,50.7 44.1,50.6 43.9,50.6 L43.6,50.6 L43.6,51.4 L43.3,51.4 L43.3,49.4 L44.1,49.4 L44.1,49.5 Z M44.5,49.8 C44.4,49.8 44.3,49.7 44.1,49.7 L43.8,49.7 L43.8,50.4 L44.1,50.4 C44.3,50.4 44.4,50.4 44.4,50.4 C44.5,50.4 44.6,50.2 44.6,50.1 C44.7,50 44.6,49.9 44.5,49.8 L44.5,49.8 Z"/>
    </g>
  </g>
</svg>
