<svg xmlns="http://www.w3.org/2000/svg" width="110" height="51" viewBox="0 0 110 51">
  <g fill="none">
    <path fill="#EEA52D" d="M0.5,3.9 C0.5,2 2,0.5 3.9,0.5 L105.6,0.5 C107.5,0.5 109,2 109,3.9 L109,47.1 C109,49 107.5,50.5 105.6,50.5 L3.9,50.5 C2,50.5 0.5,49 0.5,47.1 L0.5,3.9 L0.5,3.9 Z"/>
    <polygon fill="#FFF" points=".5 5.4 109 5.4 109 45.6 .5 45.6"/>
    <path fill="#ED1C24" d="M92.4 15.8C87.4 15.8 83.4 19.8 83.4 24.8 83.4 29.8 87.5 33.8 92.4 33.8 97.3 33.8 101.4 29.8 101.4 24.8 101.4 19.8 97.4 15.8 92.4 15.8L92.4 15.8zM18.2 15.8C13.2 15.8 9.2 19.8 9.2 24.8 9.2 29.8 13.3 33.8 18.2 33.8 23.1 33.8 27.2 29.8 27.2 24.8 27.2 19.8 23.2 15.8 18.2 15.8L18.2 15.8z"/>
    <path fill="#ED1C24" d="M91.7,7.9 C83.4,7.7 79.4,13.1 73.8,19.7 L68.4,25.9 L76.9,36.1 C78.9,39.2 75.1,42.3 72.7,39.5 L64.8,30.1 L57.1,39 C54.7,41.8 50.8,38.7 52.9,35.6 L61.2,25.9 L55.8,19.4 L59.3,15.1 L64.8,21.8 L69.6,16.2 C71.9,13.5 74.3,9.9 77.4,8 L0.5,8 L0.5,43 L18.5,43 C26.8,43 30.6,38 36.2,31.3 L41.4,25 L32.7,15 C30.6,11.9 34.4,8.7 36.9,11.5 L45,20.7 L52.4,11.7 C54.8,8.8 58.7,11.9 56.7,15 L48.6,24.9 L54.2,31.3 L50.7,35.5 L45.1,29.2 L40.5,34.9 C38.2,37.7 35.9,41.2 32.9,43.1 L109.1,43.1 L109.1,7.9 L91.7,7.9 L91.7,7.9 Z M32.4,24.8 C32.4,32.6 26,39 18.2,39 C10.4,39 4,32.6 4,24.8 C4,17 10.4,10.6 18.2,10.6 C26,10.6 32.4,17 32.4,24.8 L32.4,24.8 Z M92.4,39.1 C84.6,39.1 78.2,32.7 78.2,24.9 C78.2,17.1 84.6,10.7 92.4,10.7 C100.2,10.7 106.6,17.1 106.6,24.9 C106.6,32.7 100.3,39.1 92.4,39.1 L92.4,39.1 Z"/>
  </g>
</svg>
