<svg xmlns="http://www.w3.org/2000/svg" width="154" height="83" viewBox="0 0 154 83">
  <g fill="none" fill-rule="evenodd">
    <path fill="#FFF" stroke="#D6D6D6" d="M153.5,70.5 C153.5,77.1 148.1,82.5 141.5,82.5 L12.5,82.5 C5.9,82.5 0.5,77.1 0.5,70.5 L0.5,12.5 C0.5,5.9 5.9,0.5 12.5,0.5 L141.5,0.5 C148.1,0.5 153.5,5.9 153.5,12.5 L153.5,70.5 Z"/>
    <g fill="#195A7F" fill-rule="nonzero" transform="translate(138 27)">
      <path d="M3.3,3.5 L3.3,0 L4,0 L4.8,2.5 C4.9,2.7 4.9,2.9 5,3 C5,2.9 5.1,2.7 5.2,2.4 L6,0 L6.6,0 L6.6,3.5 L6.2,3.5 L6.2,0.6 L5.2,3.5 L4.8,3.5 L3.8,0.5 L3.8,3.5 L3.3,3.5 Z"/>
      <polygon points="1.2 3.5 1.2 .4 .1 .4 .1 0 2.9 0 2.9 .4 1.8 .4 1.8 3.5"/>
    </g>
    <polygon fill="#187FAE" fill-rule="nonzero" points="130.6 27.1 124.9 53.3 131.9 53.3 137.7 27.1"/>
    <path fill="#187FAE" fill-rule="nonzero" d="M115.9 32.5C112.6 32.5 110 33.4 108 33.8L107.4 38.8C108.4 38.3 111.5 37.5 114.1 37.4 116.7 37.3 118.2 37.9 117.7 40.1 110 40.1 104.8 41.7 103.7 46.7 102.2 55.3 111.6 55 115.3 51.3L114.8 53.4 121.7 53.4 124.7 39.8C126 33.8 120.7 32.4 115.9 32.5zM116.3 46.5C115.9 48.3 114.5 49.1 112.7 49.2 111.2 49.3 109.8 47.9 110.8 46.3 111.6 45 113.7 44.6 115 44.6 115.5 44.6 116.2 44.6 116.7 44.6 116.6 45.3 116.5 45.8 116.3 46.5zM98.5 27.2L85.7 27.2 80 53.3 87.4 53.3 89.3 44.7 94.6 44.7C99.8 44.7 104.1 41.5 105.3 36.1 106.7 30 102.2 27.2 98.5 27.2zM98.3 36.1C97.8 38.1 95.9 39.7 93.9 39.7L90.5 39.7 92 32.6 95.7 32.6C97.6 32.5 98.8 34.1 98.3 36.1z"/>
    <polygon fill="#195A7F" fill-rule="nonzero" points="60.7 32.9 67.6 32.9 68.7 45 75.4 32.9 82.5 32.9 66.2 62 58.5 62 63.5 53.4"/>
    <path fill="#195A7F" fill-rule="nonzero" d="M48.9 32.5C45.7 32.5 43.1 33.4 41.2 33.8L40.6 38.8C41.5 38.3 44.6 37.5 47.2 37.4 49.8 37.3 51.3 37.9 50.8 40.1 43.2 40 38 41.6 37 46.6 35.5 55.2 44.8 54.9 48.4 51.2L47.9 53.3 54.8 53.3 57.8 39.7C58.9 33.8 53.6 32.4 48.9 32.5zM49.4 46.5C49 48.3 47.5 49.1 45.8 49.2 44.3 49.3 43 47.9 44 46.3 44.8 45 46.9 44.6 48.1 44.6 48.7 44.6 49.2 44.6 49.8 44.6 49.6 45.3 49.5 45.8 49.4 46.5zM30.8 26.2L18 26.2 12.3 52.3 19.8 52.3 21.6 43.7 27 43.7C32.2 43.7 36.5 40.5 37.6 35.1 38.9 29 34.6 26.2 30.8 26.2zM30.6 35.1C30.1 37.1 28.2 38.7 26.3 38.7L22.8 38.7 24.4 31.6 28 31.6C29.9 31.5 31.1 33.1 30.6 35.1z"/>
  </g>
</svg>
