<svg xmlns="http://www.w3.org/2000/svg" xmlns:xlink="http://www.w3.org/1999/xlink" viewBox="0 0 422 113">
  <defs>
    <polygon id="paypal-logo-a" points=".06 .708 234.883 .708 234.883 112.94 .06 112.94"/>
  </defs>
  <g fill="none" fill-rule="evenodd">
    <mask id="paypal-logo-b" fill="#fff">
      <use xlink:href="#paypal-logo-a"/>
    </mask>
    <path fill="#28356A" d="M50.57.708L17.792.708C15.549.708 13.641 2.337 13.291 4.552L.034 88.604C-.229 90.262 1.055 91.757 2.738 91.757L18.386 91.757C20.629 91.757 22.537 90.128 22.887 87.909L26.462 65.239C26.807 63.02 28.72 61.39 30.958 61.39L41.334 61.39C62.926 61.39 75.388 50.942 78.642 30.236 80.109 21.178 78.704 14.061 74.463 9.076 69.804 3.602 61.541.708 50.57.708zM54.352 31.406C52.559 43.168 43.573 43.168 34.883 43.168L29.937 43.168 33.407 21.202C33.613 19.874 34.763 18.896 36.105 18.896L38.372 18.896C44.292 18.896 49.875 18.896 52.761 22.271 54.481 24.284 55.008 27.274 54.352 31.406L54.352 31.406zM148.55 31.027L132.854 31.027C131.517 31.027 130.362 32.005 130.155 33.333L129.461 37.723 128.363 36.132C124.965 31.2 117.387 29.551 109.824 29.551 92.479 29.551 77.664 42.688 74.779 61.117 73.279 70.309 75.412 79.1 80.626 85.229 85.41 90.866 92.254 93.214 100.397 93.214 114.373 93.214 122.123 84.228 122.123 84.228L121.423 88.59C121.159 90.257 122.444 91.753 124.117 91.753L138.255 91.753C140.503 91.753 142.401 90.123 142.756 87.904L151.239 34.181C151.508 32.527 150.228 31.027 148.55 31.027zM126.671 61.577C125.157 70.544 118.039 76.564 108.962 76.564 104.404 76.564 100.761 75.102 98.422 72.332 96.102 69.581 95.22 65.665 95.959 61.304 97.372 52.413 104.61 46.197 113.548 46.197 118.006 46.197 121.629 47.678 124.016 50.472 126.408 53.295 127.356 57.235 126.671 61.577L126.671 61.577zM232.147 31.027L216.374 31.027C214.869 31.027 213.455 31.775 212.602 33.026L190.847 65.071 181.626 34.277C181.046 32.35 179.268 31.027 177.255 31.027L161.755 31.027C159.871 31.027 158.563 32.868 159.162 34.641L176.536 85.628 160.202 108.686C158.917 110.502 160.211 113 162.431 113L178.185 113C179.68 113 181.08 112.271 181.928 111.044L234.39 35.317C235.646 33.505 234.357 31.027 232.147 31.027" mask="url(#paypal-logo-b)"/>
    <path fill="#298FC2" d="M284.37,0.708 L251.587,0.708 C249.349,0.708 247.441,2.337 247.091,4.552 L233.834,88.604 C233.571,90.262 234.855,91.757 236.528,91.757 L253.351,91.757 C254.913,91.757 256.251,90.617 256.495,89.064 L260.257,65.239 C260.602,63.02 262.515,61.39 264.753,61.39 L275.125,61.39 C296.721,61.39 309.178,50.942 312.437,30.236 C313.909,21.178 312.495,14.061 308.253,9.076 C303.599,3.602 295.341,0.708 284.37,0.708 Z M288.152,31.406 C286.364,43.168 277.378,43.168 268.683,43.168 L263.742,43.168 L267.217,21.202 C267.423,19.874 268.563,18.896 269.91,18.896 L272.177,18.896 C278.092,18.896 283.68,18.896 286.565,22.271 C288.286,24.284 288.808,27.274 288.152,31.406 L288.152,31.406 Z"/>
    <path fill="#298FC2" d="M74.346 31.027L58.659 31.027C57.312 31.027 56.166 32.005 55.965 33.333L55.27 37.723 54.168 36.132C50.77 31.2 43.197 29.551 35.634 29.551 18.288 29.551 3.479 42.688.593 61.117-.902 70.309 1.221 79.1 6.436 85.229 11.229 90.866 18.063 93.214 26.206 93.214 40.182 93.214 47.932 84.228 47.932 84.228L47.232 88.59C46.969 90.257 48.253 91.753 49.936 91.753L64.07 91.753C66.308 91.753 68.216 90.123 68.566 87.904L77.054 34.181C77.312 32.527 76.028 31.027 74.346 31.027zM52.466 61.577C50.961 70.544 43.834 76.564 34.757 76.564 30.208 76.564 26.556 75.102 24.217 72.332 21.898 69.581 21.025 65.665 21.754 61.304 23.177 52.413 30.405 46.197 39.344 46.197 43.801 46.197 47.424 47.678 49.811 50.472 52.212 53.295 53.161 57.235 52.466 61.577L52.466 61.577zM92.851 3.013L79.397 88.604C79.134 90.262 80.418 91.757 82.091 91.757L95.616 91.757C97.864 91.757 99.772 90.128 100.117 87.909L113.383 3.862C113.647 2.203 112.363.703 110.69.703L95.544.703C94.207.708 93.057 1.685 92.851 3.013" transform="translate(308)"/>
  </g>
</svg>
