<svg xmlns="http://www.w3.org/2000/svg" width="36" height="36" viewBox="0 0 36 36">
  <g fill="none" fill-rule="evenodd" transform="translate(1 1)">
    <circle cx="17" cy="17" r="17" stroke="#222"/>
    <path fill="#222" fill-rule="nonzero" d="M18,1.89583333 C17.3363001,2.21666667 16.6268277,2.43333333 15.8792117,2.53333333 C16.6420852,2.03333333 17.2294978,1.24166667 17.5041322,0.3 C16.7908455,0.7625 16.0012715,1.1 15.1582962,1.27916667 C14.4831532,0.491666667 13.5219326,0 12.4615385,0 C10.4208519,0 8.76923077,1.80833333 8.76923077,4.0375 C8.76923077,4.35416667 8.79974571,4.6625 8.86458996,4.95833333 C5.79402416,4.79166667 3.0705658,3.18333333 1.25111252,0.7375 C0.934520025,1.33333333 0.751430388,2.02916667 0.751430388,2.76666667 C0.751430388,4.16666667 1.40368722,5.40416667 2.39542276,6.12916667 C1.78893833,6.1125 1.21678322,5.92916667 0.720915448,5.625 C0.720915448,5.64166667 0.720915448,5.65833333 0.720915448,5.675 C0.720915448,7.63333333 1.99491418,9.2625 3.68467896,9.63333333 C3.37571519,9.725 3.04767959,9.775 2.71201526,9.775 C2.47552448,9.775 2.24284806,9.75 2.01780038,9.7 C2.48696758,11.3041667 3.85251113,12.4708333 5.46980292,12.5041667 C4.2072473,13.5875 2.6128417,14.2333333 0.881118881,14.2333333 C0.58359822,14.2333333 0.289891926,14.2125 0,14.175 C1.63254927,15.3333333 3.5740623,16 5.65670693,16 C12.4539097,16 16.1691036,9.84583333 16.1691036,4.50833333 C16.1691036,4.33333333 16.1652893,4.15833333 16.1576605,3.9875 C16.878576,3.41666667 17.5041322,2.70416667 18,1.89583333 Z" transform="translate(8 9)"/>
  </g>
</svg>
