<svg xmlns="http://www.w3.org/2000/svg" width="36" height="36" viewBox="0 0 36 36">
  <g fill="none" fill-rule="evenodd" transform="translate(1 1)">
    <circle cx="17" cy="17" r="17" stroke="#222"/>
    <path fill="#222" fill-rule="nonzero" d="M9.67268886,18.5106445 C8.03721112,18.5106445 6.50074442,18.0926444 5.16398889,17.3590333 L0,19 L1.6834,14.0342444 C0.834311108,12.6394333 0.345166667,11.0037444 0.345166667,9.25532222 C0.345166667,4.14368888 4.52115555,0 9.67290001,0 C14.8240111,0 19,4.14368888 19,9.25532222 C19,14.3669555 14.8242222,18.5106445 9.67268886,18.5106445 Z M9.67268886,1.47397778 C5.34828889,1.47397778 1.83075555,4.9647 1.83075555,9.25532222 C1.83075555,10.9579334 2.38576667,12.5347222 3.32436667,13.8176445 L2.34481111,16.7073333 L5.35821111,15.7495222 C6.59658889,16.5625111 8.07985556,17.0366666 9.67268886,17.0366666 C13.9964555,17.0366666 17.5146222,13.5461556 17.5146222,9.25553331 C17.5146222,4.96491111 13.9964555,1.47397778 9.67268886,1.47397778 L9.67268886,1.47397778 Z M14.3825778,11.3869111 C14.3251555,11.2925444 14.1727333,11.2355444 13.9445222,11.1221778 C13.7156778,11.0088111 12.5913,10.4597111 12.3820889,10.3843445 C12.1722444,10.3087666 12.0196111,10.2705556 11.8674,10.4977111 C11.7151889,10.7248667 11.2769222,11.2355444 11.1432889,11.3869111 C11.0098666,11.5384889 10.8766555,11.5574889 10.6480222,11.4439111 C10.4196,11.3305445 9.68282221,11.0909333 8.80924444,10.3180556 C8.12967775,9.71681113 7.67072225,8.97454445 7.53751109,8.74717775 C7.40408889,8.52023335 7.52336668,8.39757778 7.63778891,8.28463331 C7.74059997,8.18287778 7.86642223,8.01968888 7.98084447,7.88732221 C8.09526665,7.75474444 8.13326668,7.66037775 8.20926664,7.50879997 C8.28568889,7.35743334 8.24747777,7.22506667 8.19026668,7.11127777 C8.13305553,6.99791112 7.6755778,5.88155556 7.48515555,5.42724446 C7.29473336,4.97335555 7.1045222,5.04893333 6.97088891,5.04893333 C6.83746666,5.04893333 6.68504445,5.02993333 6.53262223,5.02993333 C6.38020002,5.02993333 6.13235553,5.08672222 5.92272223,5.31366666 C5.71330002,5.54082221 5.12282222,6.0897111 5.12282222,7.20585556 C5.12282222,8.32221111 5.94172225,9.40077777 6.05635557,9.55193331 C6.17056666,9.7030889 7.63757776,12.0683778 9.96170002,12.9767889 C12.2866666,13.8849889 12.2866666,13.5820444 12.7059333,13.5442555 C13.1245666,13.5064667 14.0581,12.9955777 14.2491556,12.4659 C14.4393667,11.9358 14.4393667,11.4814889 14.3825778,11.3869111 L14.3825778,11.3869111 Z" transform="translate(8 7)"/>
  </g>
</svg>
