<svg xmlns="http://www.w3.org/2000/svg" width="36" height="36" viewBox="0 0 36 36">
  <g fill="none" fill-rule="evenodd" transform="translate(1 1)">
    <circle cx="17" cy="17" r="17" stroke="#FFF"/>
    <path fill="#FFF" d="M10.7936447,16.7736416 C15.0872895,16.7736416 18,12.866658 18,7.6368374 C18,3.68342168 14.6441424,0 9.54517614,0 C3.19965544,0 0,4.5411734 0,8.32796861 C0,10.6209115 0.869065852,12.6608664 2.73506892,13.421168 C3.04077336,13.5457512 3.31470139,13.4251807 3.40371363,13.0875448 C3.46458653,12.8534736 3.61179174,12.2630408 3.67572742,12.0175048 C3.76531394,11.6831173 3.73085759,11.5659861 3.48392037,11.2744002 C2.94640123,10.6404015 2.60336907,9.82124763 2.60336907,8.659681 C2.60336907,5.29096573 5.1272971,2.27517259 9.17859876,2.27517259 C12.7641654,2.27517259 14.7356432,4.46206688 14.7356432,7.38404041 C14.7356432,11.2277771 13.031585,14.4719091 10.5011486,14.4719091 C9.10336906,14.4719091 8.0583844,13.3185588 8.39299387,11.9041952 C8.79364471,10.2154428 9.57235836,8.39217103 9.57235836,7.17308967 C9.57235836,6.08241317 8.9856432,5.17154162 7.77086522,5.17154162 C6.34226647,5.17154162 5.19506127,6.64705038 5.19506127,8.62261178 C5.19506127,9.8808642 5.6217458,10.7321192 5.6217458,10.7321192 C5.6217458,10.7321192 4.15983921,16.9140844 3.90313936,17.9963534 C3.67036754,18.9819367 3.63552833,20.0651611 3.66826187,20.9806186 C3.76607964,21.8018743 4.57963247,22.4706493 5.28541348,21.5697138 C5.781585,20.7780753 6.31508424,19.7783522 6.59111795,18.7763361 C6.75574274,18.1834193 7.53101074,15.1120223 7.53101074,15.1120223 C7.99559726,15.9955696 9.35183767,16.7736416 10.7936447,16.7736416 Z" transform="translate(8 6)"/>
  </g>
</svg>
