<svg xmlns="http://www.w3.org/2000/svg" width="36" height="36" viewBox="0 0 36 36">
  <g fill="none" fill-rule="evenodd" transform="translate(1 1)">
    <g fill="#FFF" transform="translate(8 8)">
      <path fill-rule="nonzero" d="M16.5884107,2.96476314 C16.371641,2.40641693 16.0826148,1.93346484 15.6096627,1.46051276 C15.1367106,0.987560671 14.6637585,0.698534396 14.1054123,0.48176469 C13.5667724,0.271563763 12.9427384,0.127050625 12.0428157,0.0876379511 C11.1363242,0.0482252773 10.8472979,0.0350877193 8.53508772,0.0350877193 C6.22287752,0.0350877193 5.93385124,0.0416564983 5.02735974,0.0876379511 C4.12086824,0.127050625 3.50340302,0.271563763 2.96476314,0.48176469 C2.40641693,0.698534396 1.93346484,0.987560671 1.46051276,1.46051276 C0.987560671,1.93346484 0.698534396,2.40641693 0.48176469,2.96476314 C0.271563763,3.50340302 0.127050625,4.12743702 0.0876379511,5.02735974 C0.0482252773,5.93385124 0.0350877193,6.22287752 0.0350877193,8.53508772 C0.0350877193,10.8472979 0.0416564983,11.1363242 0.0876379511,12.0428157 C0.127050625,12.9493072 0.271563763,13.5667724 0.48176469,14.1054123 C0.698534396,14.6637585 0.987560671,15.1367106 1.46051276,15.6096627 C1.93346484,16.0826148 2.40641693,16.371641 2.96476314,16.5884107 C3.50340302,16.7986117 4.12743702,16.9431248 5.02735974,16.9825375 C5.93385124,17.0219502 6.22287752,17.0350877 8.53508772,17.0350877 C10.8472979,17.0350877 11.1363242,17.0285189 12.0428157,16.9825375 C12.9493072,16.9431248 13.5667724,16.7986117 14.1054123,16.5884107 C14.6637585,16.371641 15.1367106,16.0826148 15.6096627,15.6096627 C16.0826148,15.1367106 16.371641,14.6637585 16.5884107,14.1054123 C16.7986117,13.5667724 16.9431248,12.9427384 16.9825375,12.0428157 C17.0219502,11.1363242 17.0350877,10.8472979 17.0350877,8.53508772 C17.0350877,6.22287752 17.0285189,5.93385124 16.9825375,5.02735974 C16.9431248,4.12086824 16.7986117,3.50340302 16.5884107,2.96476314 Z M15.452012,11.9705591 C15.4125993,12.7982253 15.274655,13.251471 15.1564169,13.5470661 C15.005335,13.9411928 14.8148404,14.2302191 14.5192454,14.5258141 C14.2236503,14.8214092 13.9411928,15.005335 13.5404973,15.1629857 C13.2383335,15.2812237 12.7916565,15.4191681 11.9639903,15.4585808 C11.0640676,15.4979934 10.8013165,15.511131 8.52851894,15.511131 C6.25572141,15.511131 5.98640148,15.5045622 5.09304753,15.4585808 C4.26538138,15.4191681 3.81213563,15.2812237 3.51654058,15.1629857 C3.12241384,15.0119038 2.83338756,14.8214092 2.53779251,14.5258141 C2.24219746,14.2302191 2.05827165,13.9477616 1.90062095,13.5470661 C1.78238293,13.2449022 1.64443857,12.7982253 1.6050259,11.9705591 C1.56561322,11.0706364 1.55247566,10.8013165 1.55247566,8.53508772 C1.55247566,6.26885897 1.55904444,5.99297025 1.6050259,5.09961631 C1.64443857,4.27195016 1.78238293,3.81870441 1.90062095,3.52310936 C2.05170287,3.12898262 2.24219746,2.83995634 2.53779251,2.54436129 C2.83338756,2.24876624 3.11584506,2.06484042 3.51654058,1.90718973 C3.81870441,1.78895171 4.26538138,1.65100735 5.09304753,1.61159467 C5.99297025,1.572182 6.26229019,1.55904444 8.52851894,1.55904444 C10.7947477,1.55904444 11.0706364,1.56561322 11.9639903,1.61159467 C12.7916565,1.65100735 13.2449022,1.78895171 13.5404973,1.90718973 C13.934624,2.05827165 14.2236503,2.24876624 14.5192454,2.54436129 C14.8148404,2.83995634 14.9987662,3.12241384 15.1564169,3.52310936 C15.274655,3.82527319 15.4125993,4.27195016 15.452012,5.09961631 C15.4914247,5.99953903 15.5045622,6.26885897 15.5045622,8.53508772 C15.5045622,10.8013165 15.4914247,11.0772052 15.452012,11.9705591 Z"/>
      <path fill-rule="nonzero" d="M8.53508772,4.03508772 C6.05162907,4.03508772 4.03508772,6.05162907 4.03508772,8.53508772 C4.03508772,11.0185464 6.05162907,13.0350877 8.53508772,13.0350877 C11.0185464,13.0350877 13.0350877,11.0185464 13.0350877,8.53508772 C13.0350877,6.05162907 11.0185464,4.03508772 8.53508772,4.03508772 Z M8.53508772,11.458396 C6.9245614,11.458396 5.61177945,10.152381 5.61177945,8.53508772 C5.61177945,6.9245614 6.91779449,5.61177945 8.53508772,5.61177945 C10.152381,5.61177945 11.458396,6.91779449 11.458396,8.53508772 C11.458396,10.145614 10.145614,11.458396 8.53508772,11.458396 Z"/>
      <circle cx="13.035" cy="4.035" r="1"/>
    </g>
    <circle cx="17" cy="17" r="17" stroke="#FFF"/>
  </g>
</svg>
